SplineFontDB: 3.0
FontName: Rats-Get-Fat
FullName: Rats Get Fat Regular
FamilyName: Rats Get Fat
Weight: Book
Copyright: Copyright Out Of Step Font Company 2013\nhttp://www.facebook.com/OutOfStepFontCompany
Version: 1.0
ItalicAngle: 0
UnderlinePosition: 74
UnderlineWidth: 51
Ascent: 819
Descent: 205
InvalidEm: 0
sfntRevision: 0x00010000
LayerCount: 2
Layer: 0 1 "Back" 1
Layer: 1 1 "Fore" 0
XUID: [1021 285 -1874242212 1492]
StyleMap: 0x0040
FSType: 4
OS2Version: 2
OS2_WeightWidthSlopeOnly: 0
OS2_UseTypoMetrics: 0
CreationTime: 1378214506
ModificationTime: 1465148073
PfmFamily: 81
TTFWeight: 400
TTFWidth: 5
LineGap: 0
VLineGap: 0
Panose: 0 0 4 0 0 0 0 0 0 0
OS2TypoAscent: 830
OS2TypoAOffset: 0
OS2TypoDescent: 194
OS2TypoDOffset: 0
OS2TypoLinegap: 0
OS2WinAscent: 830
OS2WinAOffset: 0
OS2WinDescent: 194
OS2WinDOffset: 0
HheadAscent: 830
HheadAOffset: 0
HheadDescent: 194
HheadDOffset: 0
OS2SubXSize: 512
OS2SubYSize: 512
OS2SubXOff: 0
OS2SubYOff: 64
OS2SupXSize: 512
OS2SupYSize: 512
OS2SupXOff: 0
OS2SupYOff: 512
OS2StrikeYSize: 51
OS2StrikeYPos: 204
OS2CapHeight: 819
OS2XHeight: 821
OS2Vendor: 'FSTR'
OS2CodePages: 00000001.00000000
OS2UnicodeRanges: 00000001.00000000.00000000.00000000
MarkAttachClasses: 1
DEI: 91125
ShortTable: maxp 16
  1
  0
  62
  216
  2
  0
  0
  2
  0
  0
  0
  0
  0
  0
  0
  0
EndShort
LangName: 1033 "" "" "Regular" "Rats Get Fat" "" "Version 1.0" "" "" "http://www.facebook.com/OutOfStepFontCompany" "Out Of Step Font Company" "" "http://www.facebook.com/OutOfStepFontCompany" "http://www.facebook.com/OutOfStepFontCompany" "Creative Commons Attribution Non-Commercial Share Alike" "http://creativecommons.org/licenses/by-sa/3.0/" "" "" "" "" "Rats Get Fat"
GaspTable: 1 65535 2 0
Encoding: UnicodeBmp
UnicodeInterp: none
NameList: AGL For New Fonts
DisplaySize: -48
AntiAlias: 1
FitToEm: 0
WinInfo: 64 32 12
BeginChars: 65539 66

StartChar: A
Encoding: 65 65 4
Width: 996
GlyphClass: 2
Flags: W
LayerCount: 2
Fore
SplineSet
440 629 m 1,0,1
 440 628 440 628 427 602 c 0,2,3
 329 401 329 401 329 350 c 0,4,5
 329 344 329 344 330 340 c 0,6,7
 395 311 395 311 485 243 c 1,8,9
 567 288 567 288 591 321 c 1,10,11
 567 355 567 355 534 429 c 128,-1,12
 501 503 501 503 494 517 c 128,-1,13
 487 531 487 531 472 572.5 c 128,-1,14
 457 614 457 614 440 629 c 1,0,1
237 -6 m 2,15,-1
 175 -2 l 1,16,17
 164 -6 164 -6 159 -9 c 0,18,19
 153 -13 153 -13 149 -16 c 128,-1,20
 145 -19 145 -19 127 -11 c 0,21,22
 113 -5 113 -5 87 -5 c 0,23,24
 80 -5 80 -5 73 -5 c 256,25,26
 66 -5 66 -5 61 -5 c 0,27,28
 35 -5 35 -5 31 2 c 0,29,30
 15 13 15 13 15 36 c 0,31,32
 15 41 15 41 16 47 c 1,33,34
 28 55 28 55 36 73 c 1,35,36
 63 76 63 76 63 76 c 2,37,38
 80 78 80 78 89 79 c 0,39,40
 100 86 100 86 139 181 c 0,41,42
 178 277 178 277 181 303 c 0,43,44
 178 305 178 305 177 308 c 0,45,46
 172 309 172 309 155 312 c 0,47,48
 58 332 58 332 48 350 c 0,49,50
 44 356 44 356 45 371 c 1,51,52
 61 379 61 379 75 404 c 1,53,54
 100 407 100 407 123 407 c 0,55,56
 178 407 178 407 214 386 c 1,57,58
 233 398 233 398 249 450 c 0,59,60
 265 501 265 501 270 511 c 0,61,62
 297 561 297 561 332 655 c 0,63,64
 371 759 371 759 401 804 c 1,65,66
 414 806 414 806 428 806 c 0,67,68
 438 806 438 806 449 805 c 0,69,70
 477 802 477 802 485 787 c 0,71,72
 494 777 494 777 501 755 c 0,73,74
 508 732 508 732 513 725 c 0,75,76
 576 628 576 628 622 521 c 0,77,78
 625 514 625 514 637 478 c 0,79,80
 664 397 664 397 684 384 c 0,81,82
 694 380 694 380 709 395 c 128,-1,83
 724 410 724 410 728 413 c 1,84,85
 722 426 722 426 720 445 c 0,86,87
 718 463 718 463 722 473 c 1,88,89
 731 477 731 477 744 490 c 0,90,91
 758 504 758 504 777 504 c 0,92,93
 778 504 778 504 779 504 c 0,94,95
 785 498 785 498 807 485 c 0,96,97
 848 461 848 461 849 414 c 0,98,99
 849 413 849 413 849 413 c 2,100,101
 849 364 849 364 778 323 c 0,102,103
 737 299 737 299 728 278 c 1,104,105
 750 261 750 261 769 193 c 128,-1,106
 788 125 788 125 802 108 c 0,107,108
 810 95 810 95 824 95 c 0,109,110
 829 95 829 95 835 97 c 0,111,112
 842 99 842 99 849 99 c 0,113,114
 862 99 862 99 874 92 c 0,115,116
 887 84 887 84 903 72 c 0,117,118
 916 62 916 62 921 59 c 1,119,120
 921 50 921 50 920 43 c 1,121,122
 898 20 898 20 893 15 c 1,123,124
 836 5 836 5 833 5 c 128,-1,125
 830 5 830 5 821 -4 c 0,126,127
 814 -11 814 -11 802 -12 c 0,128,129
 800 -10 800 -10 769 -5 c 0,130,131
 708 5 708 5 677 5 c 0,132,133
 657 5 657 5 649 1 c 0,134,135
 638 -4 638 -4 628 -4 c 2,136,-1
 605 2 l 1,137,138
 587 12 587 12 587 12 c 2,139,140
 577 18 577 18 572 21 c 1,141,142
 572 47 572 47 579 53 c 0,143,144
 592 71 592 71 611 74 c 0,145,146
 636 78 636 78 651 78 c 0,147,148
 672 78 672 78 684 88 c 0,149,150
 686 88 686 88 686 88 c 2,151,152
 688 87 688 87 689 87 c 1,153,154
 687 103 687 103 661 161 c 128,-1,155
 635 219 635 219 626 222 c 1,156,157
 572 171 572 171 493 113 c 1,158,159
 432 117 432 117 395 162 c 0,160,161
 379 182 379 182 365 201 c 0,162,163
 330 250 330 250 277 260 c 1,164,165
 271 230 271 230 242 171 c 0,166,167
 214 115 214 115 210 76 c 1,168,169
 243 75 243 75 261 70 c 128,-1,170
 279 65 279 65 289 48 c 1,171,172
 289 37 289 37 290 25 c 1,173,174
 286 23 286 23 268 10 c 128,-1,175
 250 -3 250 -3 237 -6 c 2,15,-1
EndSplineSet
Validated: 1
EndChar

StartChar: B
Encoding: 66 66 5
Width: 787
GlyphClass: 2
Flags: W
LayerCount: 2
Fore
SplineSet
430 411 m 0,0,1
 413 393 413 393 354 381 c 0,2,3
 293 369 293 369 278 356 c 0,4,5
 270 349 270 349 273 331 c 0,6,7
 274 322 274 322 274 314 c 0,8,9
 274 304 274 304 272 294 c 0,10,11
 267 274 267 274 267 220 c 0,12,13
 267 211 267 211 267 201 c 0,14,15
 268 127 268 127 274 92 c 1,16,-1
 359 92 l 1,17,18
 383 102 383 102 436 110 c 0,19,20
 492 119 492 119 526 131 c 0,21,22
 565 145 565 145 584 172 c 0,23,24
 601 198 601 198 601 230 c 0,25,26
 601 241 601 241 599 252 c 0,27,28
 592 295 592 295 571 339 c 0,29,30
 551 380 551 380 535 391 c 128,-1,31
 519 402 519 402 486 407 c 0,32,33
 459 411 459 411 438 411 c 0,34,35
 434 411 434 411 430 411 c 0,0,1
17 743 m 1,36,37
 49 746 49 746 106.5 769 c 128,-1,38
 164 792 164 792 194 799 c 0,39,40
 222 806 222 806 284 808 c 0,41,42
 294 808 294 808 304 808 c 0,43,44
 352 808 352 808 392 800 c 0,45,46
 442 790 442 790 484 763 c 0,47,48
 521 740 521 740 539 700 c 0,49,50
 543 691 543 691 555 669 c 0,51,52
 583 615 583 615 583 580 c 0,53,54
 583 565 583 565 578 554 c 0,55,56
 572 538 572 538 555 509 c 0,57,58
 539 481 539 481 535 473 c 1,59,-1
 541 473 l 1,60,61
 549 466 549 466 576 456 c 0,62,63
 600 447 600 447 610 441 c 0,64,65
 661 408 661 408 702 324 c 0,66,67
 713 298 713 298 713 263 c 0,68,69
 713 235 713 235 706 202 c 0,70,71
 691 125 691 125 668 103 c 0,72,73
 615 52 615 52 493 21 c 0,74,75
 394 -4 394 -4 283 -4 c 0,76,77
 264 -4 264 -4 245 -3 c 0,78,79
 117 2 117 2 43 45 c 1,80,-1
 43 92 l 1,81,82
 66 95 66 95 73 110 c 1,83,84
 78 110 78 110 83 110 c 0,85,86
 101 110 101 110 122 105 c 0,87,88
 149 98 149 98 156 97 c 1,89,90
 159 174 159 174 159 233.5 c 128,-1,91
 159 293 159 293 156 334 c 1,92,93
 143 337 143 337 108 339 c 128,-1,94
 73 341 73 341 60 345 c 1,95,96
 56 380 56 380 56 403 c 1,97,98
 65 405 65 405 77 409 c 128,-1,99
 89 413 89 413 103 416 c 0,100,101
 116 420 116 420 152 420 c 1,102,103
 153 426 153 426 153 439 c 0,104,105
 153 457 153 457 151 487 c 0,106,107
 147 541 147 541 145 576 c 0,108,109
 143 614 143 614 152 634 c 1,110,111
 172 655 172 655 205 655 c 1,112,113
 231 645 231 645 261 634 c 1,114,115
 267 620 267 620 267 593 c 0,116,117
 267 576 267 576 265 555 c 0,118,119
 262 527 262 527 262 506 c 0,120,121
 262 446 262 446 287 445 c 1,122,123
 291 451 291 451 305 454 c 0,124,125
 321 458 321 458 323 454 c 1,126,127
 355 481 355 481 366 486 c 0,128,129
 389 489 389 489 396 490 c 0,130,131
 403 495 403 495 409 506 c 0,132,133
 412 512 412 512 419 522 c 0,134,135
 427 535 427 535 434 543 c 0,136,137
 444 555 444 555 448 563 c 0,138,139
 459 582 459 582 459 603 c 256,140,141
 459 624 459 624 447 649 c 0,142,143
 433 679 433 679 433 681 c 2,144,145
 433 681 433 681 426 700 c 1,146,147
 341 739 341 739 340 739 c 0,148,149
 337 740 337 740 312 736 c 0,150,151
 288 732 288 732 282 730 c 2,152,-1
 223 730 l 1,153,154
 191 718 191 718 180 713 c 0,155,156
 138 693 138 693 99 687 c 0,157,158
 80 684 80 684 65 684 c 0,159,160
 37 684 37 684 26 696 c 256,161,162
 15 708 15 708 15 726 c 0,163,164
 15 734 15 734 17 743 c 1,36,37
EndSplineSet
Validated: 33
EndChar

StartChar: C
Encoding: 67 67 6
Width: 806
GlyphClass: 2
Flags: W
LayerCount: 2
Fore
SplineSet
624 754 m 0,0,1
 627 754 627 754 630 754 c 0,2,3
 731 754 731 754 731 699 c 1,4,5
 702 672 702 672 642 552 c 0,6,7
 622 513 622 513 590.5 480.5 c 128,-1,8
 559 448 559 448 525 447 c 1,9,10
 520 453 520 453 508.5 460 c 128,-1,11
 497 467 497 467 488 470 c 1,12,13
 487 481 487 481 487 491 c 0,14,15
 487 510 487 510 491 524 c 0,16,17
 498 544 498 544 509.5 563 c 128,-1,18
 521 582 521 582 523.5 594 c 128,-1,19
 526 606 526 606 527 606.5 c 128,-1,20
 528 607 528 607 527 608 c 128,-1,21
 526 609 526 609 525 609 c 0,22,23
 517 624 517 624 489 639 c 0,24,25
 450 660 450 660 418 660 c 0,26,27
 395 660 395 660 376 648 c 0,28,29
 321 609 321 609 277 541.5 c 128,-1,30
 233 474 233 474 232 403 c 0,31,32
 234 401 234 401 236 398 c 0,33,34
 237 398 237 398 238 398 c 0,35,36
 286 398 286 398 310 357 c 1,37,38
 308 341 308 341 300 334 c 0,39,40
 291 323 291 323 264.5 320.5 c 128,-1,41
 238 318 238 318 227 311 c 0,42,43
 224 308 224 308 222 300 c 1,44,45
 230 291 230 291 231.5 262 c 128,-1,46
 233 233 233 233 236 224 c 0,47,48
 267 146 267 146 317 111 c 0,49,50
 349 88 349 88 387 88 c 0,51,52
 408 88 408 88 431 95 c 0,53,54
 476 109 476 109 522 132 c 128,-1,55
 568 155 568 155 579 159 c 0,56,57
 583 160 583 160 593 160 c 0,58,59
 613 160 613 160 656 155 c 0,60,61
 659 151 659 151 668.5 140 c 128,-1,62
 678 129 678 129 679 110 c 1,63,64
 659 77 659 77 607.5 49 c 128,-1,65
 556 21 556 21 495 7 c 0,66,67
 452 -3 452 -3 407 -3 c 0,68,69
 388 -3 388 -3 369 -2 c 0,70,71
 305 4 305 4 267 31.5 c 128,-1,72
 229 59 229 59 189 109 c 128,-1,73
 149 159 149 159 137.5 188 c 128,-1,74
 126 217 126 217 121 256.5 c 128,-1,75
 116 296 116 296 110 311 c 1,76,77
 105 312 105 312 85.5 313.5 c 128,-1,78
 66 315 66 315 56 317 c 0,79,80
 27 321 27 321 21 339 c 0,81,82
 15 345 15 345 15 353 c 0,83,84
 15 366 15 366 27 384 c 0,85,86
 30 389 30 389 30 389 c 1,87,88
 42 391 42 391 71 396 c 128,-1,89
 100 401 100 401 115 403 c 2,90,-1
 119 403 l 2,91,92
 119 404 119 404 119 405 c 0,93,94
 119 463 119 463 140 508 c 256,95,96
 161 553 161 553 188 600 c 0,97,98
 255 714 255 714 353 737 c 0,99,100
 376 742 376 742 401 742 c 0,101,102
 482 742 482 742 580 685 c 1,103,104
 583 688 583 688 588.5 692.5 c 128,-1,105
 594 697 594 697 596 699 c 0,106,107
 600 715 600 715 611 732.5 c 128,-1,108
 622 750 622 750 624 754 c 0,0,1
EndSplineSet
Validated: 1
EndChar

StartChar: D
Encoding: 68 68 7
Width: 821
GlyphClass: 2
Flags: W
LayerCount: 2
Fore
SplineSet
287 611 m 1,0,-1
 287 415 l 1,1,2
 300 407 300 407 329 394 c 128,-1,3
 358 381 358 381 368 375 c 1,4,5
 369 369 369 369 369 364 c 0,6,7
 369 345 369 345 364 341 c 0,8,9
 356 326 356 326 336 322 c 0,10,11
 327 320 327 320 320 320 c 0,12,13
 309 320 309 320 300 323 c 1,14,15
 296 315 296 315 287 310 c 1,16,17
 290 238 290 238 292 186 c 1,18,19
 287 169 287 169 285 139 c 0,20,21
 284 129 284 129 284 122 c 0,22,23
 284 105 284 105 287 96 c 1,24,25
 303 95 303 95 318 95 c 0,26,27
 412 95 412 95 495 150 c 0,28,29
 540 179 540 179 573 222 c 128,-1,30
 606 265 606 265 622 314 c 0,31,32
 635 351 635 351 635 393 c 0,33,34
 635 406 635 406 634 419 c 0,35,36
 629 475 629 475 600 528 c 0,37,38
 595 537 595 537 586 554.5 c 128,-1,39
 577 572 577 572 572 582 c 0,40,41
 540 640 540 640 465 664 c 0,42,43
 426 677 426 677 374 687 c 128,-1,44
 322 697 322 697 293 707 c 0,45,46
 271 715 271 715 240 715 c 0,47,48
 202 715 202 715 150 703 c 0,49,50
 99 692 99 692 71 692 c 0,51,52
 46 692 46 692 38 701 c 0,53,54
 21 714 21 714 21 744 c 0,55,56
 21 747 21 747 21 749 c 0,57,58
 28 754 28 754 30 766 c 1,59,60
 54 768 54 768 98 780 c 128,-1,61
 142 792 142 792 152 795 c 0,62,63
 176 800 176 800 208 800 c 0,64,65
 257 800 257 800 324 787 c 0,66,67
 433 766 433 766 527 726 c 128,-1,68
 621 686 621 686 648 651 c 0,69,70
 663 629 663 629 688.5 584.5 c 128,-1,71
 714 540 714 540 722 521.5 c 128,-1,72
 730 503 730 503 730.5 470.5 c 128,-1,73
 731 438 731 438 740 416 c 0,74,75
 747 400 747 400 747 374 c 0,76,77
 747 365 747 365 746 354 c 0,78,79
 734 202 734 202 630 120 c 0,80,81
 574 77 574 77 520 51.5 c 128,-1,82
 466 26 466 26 394 -2 c 0,83,84
 381 -8 381 -8 351 -8 c 0,85,86
 349 -8 349 -8 347 -7 c 0,87,88
 342 -7 342 -7 338 -7 c 0,89,90
 313 -7 313 -7 305 -10 c 256,91,92
 297 -13 297 -13 290 -12.5 c 128,-1,93
 283 -12 283 -12 279.5 -11 c 128,-1,94
 276 -10 276 -10 270 -8.5 c 128,-1,95
 264 -7 264 -7 263 -7 c 2,96,-1
 196 -7 l 1,97,98
 182 -2 182 -2 147 8 c 128,-1,99
 112 18 112 18 92 28 c 128,-1,100
 72 38 72 38 63.5 47 c 128,-1,101
 55 56 55 56 48 62.5 c 128,-1,102
 41 69 41 69 36 74 c 0,103,104
 15 97 15 97 15 115 c 0,105,106
 15 128 15 128 25 140 c 0,107,108
 39 168 39 168 73 170 c 1,109,110
 77 165 77 165 85.5 162.5 c 128,-1,111
 94 160 94 160 102 152.5 c 128,-1,112
 110 145 110 145 124 114 c 1,113,114
 130 112 130 112 146.5 106.5 c 128,-1,115
 163 101 163 101 176 100 c 1,116,-1
 176 107 l 1,117,118
 184 117 184 117 184 188 c 0,119,120
 184 200 184 200 184 213 c 0,121,122
 182 309 182 309 176 314 c 0,123,124
 167 322 167 322 144 322 c 0,125,126
 136 322 136 322 125 321 c 0,127,128
 106 319 106 319 93.5 319 c 128,-1,129
 81 319 81 319 76 321 c 0,130,131
 64 326 64 326 51.5 334 c 128,-1,132
 39 342 39 342 34 345 c 1,133,134
 30 369 30 369 30 395 c 0,135,136
 30 396 30 396 30 397 c 0,137,138
 41 398 41 398 55 398 c 0,139,140
 77 398 77 398 105 396 c 0,141,142
 114 396 114 396 123 396 c 0,143,144
 159 396 159 396 185 406 c 1,145,146
 179 452 179 452 179 508 c 0,147,148
 179 525 179 525 179 544 c 0,149,150
 182 621 182 621 189 629 c 0,151,152
 199 642 199 642 217 642 c 0,153,154
 244 642 244 642 287 611 c 1,0,-1
EndSplineSet
Validated: 1
EndChar

StartChar: E
Encoding: 69 69 8
Width: 794
GlyphClass: 2
Flags: W
LayerCount: 2
Fore
SplineSet
131 67 m 1,0,-1
 214 74 l 2,1,2
 220 74 220 74 268 67 c 0,3,4
 302 62 302 62 326 62 c 0,5,6
 337 62 337 62 345 63 c 0,7,8
 367 69 367 69 411 70 c 0,9,10
 421 70 421 70 430 70 c 0,11,12
 459 70 459 70 473.5 68 c 128,-1,13
 488 66 488 66 525 66 c 0,14,15
 537 66 537 66 550 66 c 0,16,17
 608 67 608 67 612 70 c 0,18,19
 615 73 615 73 615 94 c 0,20,21
 615 103 615 103 615 116 c 0,22,23
 613 142 613 142 613 156 c 0,24,25
 613 166 613 166 614 170 c 1,26,27
 619 170 619 170 629 171.5 c 128,-1,28
 639 173 639 173 650.5 174 c 128,-1,29
 662 175 662 175 671 166 c 0,30,31
 693 152 693 152 708 101 c 0,32,33
 720 63 720 63 720 33 c 0,34,35
 720 24 720 24 719 15 c 1,36,37
 710 11 710 11 706 2 c 1,38,39
 680 2 680 2 576 -1 c 0,40,41
 538 -1 538 -1 509 -1 c 0,42,43
 458 -1 458 -1 433 1 c 0,44,45
 413 4 413 4 396 4 c 0,46,47
 380 4 380 4 367 2 c 0,48,49
 340 -2 340 -2 322 -4 c 0,50,51
 318 -4 318 -4 315 -4 c 0,52,53
 299 -4 299 -4 280 2 c 0,54,55
 270 6 270 6 251 6 c 0,56,57
 237 6 237 6 216 4 c 0,58,59
 202 2 202 2 191 2 c 0,60,61
 166 2 166 2 160 11 c 1,62,63
 155 9 155 9 147 5.5 c 128,-1,64
 139 2 139 2 138 2 c 0,65,66
 103 -3 103 -3 83 -3 c 0,67,68
 75 -3 75 -3 69 -2 c 0,69,70
 50 1 50 1 16 19 c 0,71,72
 16 22 16 22 16 25 c 0,73,74
 16 88 16 88 20 210 c 0,75,76
 24 337 24 337 24 381 c 1,77,-1
 24 381 l 1,78,79
 24 425 24 425 20.5 469 c 128,-1,80
 17 513 17 513 16 537 c 0,81,82
 16 541 16 541 16 544 c 0,83,84
 16 565 16 565 20 588 c 0,85,86
 23 602 23 602 23 617 c 0,87,88
 23 631 23 631 21 644 c 0,89,90
 15 677 15 677 15 700 c 0,91,92
 15 737 15 737 29 753 c 0,93,94
 39 769 39 769 58 773 c 0,95,96
 75 776 75 776 98 776 c 0,97,98
 101 776 101 776 104 775 c 0,99,100
 106 775 106 775 107 775 c 0,101,102
 133 775 133 775 157 783 c 256,103,104
 181 791 181 791 224 793 c 0,105,106
 242 794 242 794 266 794 c 0,107,108
 296 794 296 794 334 793 c 0,109,110
 403 790 403 790 418.5 790 c 128,-1,111
 434 790 434 790 462 788 c 0,112,113
 468 788 468 788 473 788 c 0,114,115
 494 788 494 788 507 794 c 1,116,117
 507 806 507 806 511 819 c 128,-1,118
 515 832 515 832 516 842 c 0,119,120
 520 843 520 843 524 843 c 0,121,122
 565 843 565 843 585 827 c 1,123,124
 588 816 588 816 588 798 c 0,125,126
 588 774 588 774 584 737 c 0,127,128
 576 672 576 672 564 659 c 0,129,130
 557 647 557 647 539 643 c 0,131,132
 533 642 533 642 528 642 c 0,133,134
 516 642 516 642 507 648 c 0,135,136
 506 651 506 651 497.5 678 c 128,-1,137
 489 705 489 705 483 709 c 1,138,-1
 400 709 l 1,139,140
 387 705 387 705 350 705 c 0,141,142
 330 705 330 705 303 706 c 0,143,144
 282 707 282 707 265 707 c 0,145,146
 221 707 221 707 208 701 c 0,147,148
 202 698 202 698 182 698 c 0,149,150
 175 698 175 698 168 698 c 0,151,152
 164 698 164 698 160 698 c 0,153,154
 135 698 135 698 131 692 c 0,155,156
 127 690 127 690 123 687 c 0,157,158
 123 684 123 684 123 680 c 0,159,160
 123 649 123 649 125 582 c 0,161,162
 126 552 126 552 126 528 c 0,163,164
 126 490 126 490 124 466 c 0,165,166
 122 455 122 455 122 447 c 0,167,168
 122 424 122 424 131 415 c 0,169,170
 136 411 136 411 162.5 412 c 128,-1,171
 189 413 189 413 195 419 c 0,172,173
 196 420 196 420 199 421.5 c 128,-1,174
 202 423 202 423 203 423 c 1,175,176
 203 436 203 436 203 445 c 0,177,178
 203 473 203 473 208 478 c 0,179,180
 215 490 215 490 234 490 c 0,181,182
 240 490 240 490 246 489 c 0,183,184
 274 485 274 485 280 469 c 1,185,186
 288 462 288 462 288 393 c 0,187,188
 288 383 288 383 288 372 c 0,189,190
 286 284 286 284 280 277 c 0,191,192
 278 273 278 273 276 268 c 1,193,194
 270 268 270 268 264 268 c 0,195,196
 223 268 223 268 199 273 c 0,197,198
 199 276 199 276 198.5 308.5 c 128,-1,199
 198 341 198 341 190 349 c 2,200,-1
 188 353 l 1,201,202
 179 354 179 354 171 354 c 0,203,204
 139 354 139 354 132 346 c 128,-1,205
 125 338 125 338 125 313 c 0,206,207
 125 307 125 307 126 300 c 0,208,209
 126 292 126 292 126 281 c 0,210,211
 126 245 126 245 121 183 c 0,212,213
 120 161 120 161 120 141 c 0,214,215
 120 92 120 92 131 67 c 1,0,-1
EndSplineSet
Validated: 1
EndChar

StartChar: F
Encoding: 70 70 9
Width: 758
GlyphClass: 2
Flags: W
LayerCount: 2
Fore
SplineSet
371 323 m 1,0,1
 366 323 366 323 362 323 c 0,2,3
 333 323 333 323 322 337 c 0,4,5
 316 344 316 344 311 351 c 0,6,7
 298 369 298 369 264 369 c 1,8,9
 254 360 254 360 183 360 c 0,10,11
 169 360 169 360 153 360 c 1,12,13
 151 319 151 319 151 285 c 0,14,15
 151 198 151 198 161 159 c 0,16,17
 162 155 162 155 162 147 c 0,18,19
 162 135 162 135 161 116 c 0,20,21
 160 107 160 107 160 99 c 0,22,23
 160 81 160 81 166 79 c 1,24,-1
 166 74 l 1,25,26
 173 74 173 74 179 74 c 0,27,28
 286 74 286 74 286 9 c 0,29,30
 283 6 283 6 281 0 c 1,31,32
 260 -8 260 -8 240 -15 c 0,33,34
 236 -16 236 -16 223 -16 c 0,35,36
 197 -16 197 -16 130 -12 c 0,37,38
 31 -5 31 -5 22 1 c 0,39,40
 15 6 15 6 15 39 c 0,41,42
 15 42 15 42 15 46 c 0,43,44
 22 53 22 53 28 61 c 1,45,-1
 72 70 l 1,46,47
 65 222 65 222 63 404 c 0,48,49
 63 417 63 417 56 475 c 0,50,51
 52 509 52 509 52 530 c 0,52,53
 52 545 52 545 54 554 c 0,54,55
 55 559 55 559 55 566 c 0,56,57
 55 586 55 586 46 618 c 0,58,59
 43 626 43 626 42 697 c 2,60,-1
 41 768 l 1,61,62
 53 783 53 783 59 790 c 1,63,64
 70 790 70 790 80 790 c 0,65,66
 190 790 190 790 233 805 c 1,67,68
 259 803 259 803 275 801 c 1,69,70
 285 806 285 806 289 809 c 0,71,72
 292 810 292 810 312 810 c 0,73,74
 320 810 320 810 332 810 c 0,75,76
 356 809 356 809 366 809 c 0,77,78
 372 809 372 809 374 810 c 0,79,80
 378 810 378 810 397 813 c 0,81,82
 481 827 481 827 531 827 c 0,83,84
 570 827 570 827 587 819 c 0,85,86
 589 819 589 819 594 821 c 1,87,88
 593 827 593 827 593 832 c 0,89,90
 593 870 593 870 611 875 c 1,91,92
 619 883 619 883 629 883 c 0,93,94
 644 883 644 883 666 869 c 0,95,96
 678 860 678 860 683 853 c 1,97,-1
 683 712 l 2,98,99
 681 708 681 708 674.5 697 c 128,-1,100
 668 686 668 686 663 679 c 1,101,102
 657 678 657 678 645.5 676.5 c 128,-1,103
 634 675 634 675 628 674 c 1,104,105
 624 679 624 679 615.5 686.5 c 128,-1,106
 607 694 607 694 600.5 702.5 c 128,-1,107
 594 711 594 711 594 737 c 2,108,-1
 594 738 l 1,109,110
 564 741 564 741 523 741 c 0,111,112
 457 741 457 741 360 733 c 0,113,114
 205 720 205 720 144 720 c 1,115,116
 139 713 139 713 131 707 c 1,117,118
 131 700 131 700 131 694 c 0,119,120
 131 596 131 596 144 541 c 0,121,122
 146 532 146 532 146 516 c 0,123,124
 146 503 146 503 145 486 c 0,125,126
 144 478 144 478 144 471 c 0,127,128
 144 444 144 444 153 434 c 1,129,-1
 153 430 l 1,130,131
 260 443 260 443 294 447 c 0,132,133
 298 451 298 451 303 481 c 128,-1,134
 308 511 308 511 312 519 c 1,135,136
 327 521 327 521 338 521 c 0,137,138
 346 521 346 521 352 520 c 0,139,140
 365 517 365 517 384 506 c 1,141,142
 389 480 389 480 392 428 c 0,143,144
 393 411 393 411 393 397 c 0,145,146
 393 366 393 366 388 347 c 0,147,148
 386 342 386 342 379.5 336.5 c 128,-1,149
 373 331 373 331 371 323 c 1,0,1
EndSplineSet
Validated: 1
EndChar

StartChar: G
Encoding: 71 71 10
Width: 848
GlyphClass: 2
Flags: W
LayerCount: 2
Fore
SplineSet
675 35 m 1,0,-1
 633 127 l 1,1,-1
 631 127 l 1,2,3
 618 116 618 116 592 86 c 128,-1,4
 566 56 566 56 549 44.5 c 128,-1,5
 532 33 532 33 457 5 c 1,6,-1
 415 5 l 1,7,8
 388 -3 388 -3 359 -3 c 0,9,10
 300 -3 300 -3 232 29 c 0,11,12
 188 50 188 50 154 75.5 c 128,-1,13
 120 101 120 101 107 121.5 c 128,-1,14
 94 142 94 142 77 231.5 c 128,-1,15
 60 321 60 321 51 330 c 0,16,17
 46 335 46 335 34 338.5 c 128,-1,18
 22 342 22 342 20 343 c 0,19,20
 20 344 20 344 16 364.5 c 128,-1,21
 12 385 12 385 20.5 392.5 c 128,-1,22
 29 400 29 400 47.5 404 c 128,-1,23
 66 408 66 408 68 409 c 2,24,25
 68 409 68 409 68 410 c 0,26,27
 68 496 68 496 121 593 c 0,28,29
 175 691 175 691 238 734 c 0,30,31
 257 746 257 746 303.5 758.5 c 128,-1,32
 350 771 350 771 369 784 c 0,33,34
 376 784 376 784 382 784 c 0,35,36
 569 784 569 784 620 703 c 1,37,38
 629 710 629 710 635.5 722.5 c 128,-1,39
 642 735 642 735 649 740 c 128,-1,40
 656 745 656 745 669 744.5 c 128,-1,41
 682 744 682 744 692 740.5 c 128,-1,42
 702 737 702 737 714 731.5 c 128,-1,43
 726 726 726 726 732 725 c 1,44,45
 734 705 734 705 736 690 c 1,46,47
 722 679 722 679 682 622 c 0,48,49
 605 512 605 512 561 512 c 0,50,51
 549 512 549 512 540 520 c 0,52,53
 535 523 535 523 531 526 c 0,54,55
 530 531 530 531 526 555 c 0,56,57
 528 559 528 559 545 588 c 0,58,59
 560 614 560 614 560 624 c 0,60,61
 560 625 560 625 559 627 c 0,62,63
 545 671 545 671 481 694 c 0,64,65
 446 707 446 707 417 707 c 0,66,67
 392 707 392 707 370 698 c 0,68,69
 323 678 323 678 278.5 633.5 c 128,-1,70
 234 589 234 589 203 530 c 0,71,72
 178 481 178 481 178 439 c 0,73,74
 178 430 178 430 179 422 c 1,75,76
 208 420 208 420 251 395 c 0,77,78
 251 393 251 393 251 390 c 0,79,80
 251 368 251 368 247 352 c 1,81,82
 226 349 226 349 198 341.5 c 128,-1,83
 170 334 170 334 166 326 c 0,84,85
 164 322 164 322 164 314 c 0,86,87
 164 298 164 298 173 264 c 0,88,89
 187 212 187 212 197 190 c 0,90,91
 229 121 229 121 291 95 c 0,92,93
 325 81 325 81 361 81 c 0,94,95
 389 81 389 81 418 90 c 0,96,97
 482 111 482 111 526 168 c 0,98,99
 527 169 527 169 533.5 177.5 c 128,-1,100
 540 186 540 186 541.5 188.5 c 128,-1,101
 543 191 543 191 549 199 c 128,-1,102
 555 207 555 207 557 211.5 c 128,-1,103
 559 216 559 216 562 224 c 0,104,105
 570 240 570 240 570 259 c 0,106,107
 570 273 570 273 566 288 c 1,108,109
 556 288 556 288 510 284 c 0,110,111
 483 282 483 282 462 282 c 0,112,113
 409 282 409 282 393 297 c 0,114,115
 380 306 380 306 383.5 318.5 c 128,-1,116
 387 331 387 331 389 336.5 c 128,-1,117
 391 342 391 342 396 350.5 c 128,-1,118
 401 359 401 359 402 360 c 0,119,120
 416 362 416 362 468 364 c 128,-1,121
 520 366 520 366 550 374 c 1,122,-1
 590 369 l 1,123,124
 605 374 605 374 616 374 c 0,125,126
 623 374 623 374 627 373 c 0,127,128
 640 368 640 368 664.5 351 c 128,-1,129
 689 334 689 334 692 332 c 2,130,131
 692 332 692 332 692 331 c 0,132,133
 692 249 692 249 734 145 c 0,134,135
 749 107 749 107 762 66 c 0,136,137
 773 30 773 30 773 -7 c 0,138,139
 773 -61 773 -61 749 -115 c 1,140,141
 737 -118 737 -118 725 -118 c 0,142,143
 695 -118 695 -118 671 -102 c 1,144,145
 673 -24 673 -24 675 35 c 1,0,-1
EndSplineSet
Validated: 1
EndChar

StartChar: H
Encoding: 72 72 11
Width: 975
GlyphClass: 2
Flags: W
LayerCount: 2
Fore
SplineSet
239 702 m 1,0,-1
 235 348 l 1,1,2
 301 331 301 331 381 292 c 0,3,4
 385 290 385 290 403 274 c 128,-1,5
 421 258 421 258 429 260.5 c 128,-1,6
 437 263 437 263 443.5 272 c 128,-1,7
 450 281 450 281 454.5 283.5 c 128,-1,8
 459 286 459 286 471 287.5 c 128,-1,9
 483 289 483 289 489.5 292.5 c 128,-1,10
 496 296 496 296 517.5 309 c 128,-1,11
 539 322 539 322 564 335.5 c 128,-1,12
 589 349 589 349 626 351 c 1,13,-1
 648 623 l 2,14,15
 648 635 648 635 655 674 c 0,16,17
 659 690 659 690 659 702 c 0,18,19
 659 720 659 720 652 728 c 0,20,21
 648 734 648 734 633 747 c 128,-1,22
 618 760 618 760 617 787 c 1,23,24
 623 791 623 791 626 800 c 1,25,26
 654 800 654 800 699 807 c 0,27,28
 735 813 735 813 761 813 c 0,29,30
 767 813 767 813 773 812 c 0,31,32
 802 811 802 811 831 794 c 1,33,34
 833 776 833 776 833 764 c 128,-1,35
 833 752 833 752 831 746 c 1,36,37
 774 738 774 738 768 724 c 0,38,39
 761 717 761 717 751.5 596 c 128,-1,40
 742 475 742 475 738 461 c 0,41,42
 735 451 735 451 735 438 c 0,43,44
 735 433 735 433 736 428 c 0,45,46
 737 408 737 408 741 403.5 c 128,-1,47
 745 399 745 399 755 399 c 1,48,-1
 755 403 l 1,49,50
 765 409 765 409 778 436.5 c 128,-1,51
 791 464 791 464 792 479 c 1,52,53
 792 479 792 479 792 479 c 1,54,55
 798 479 798 479 826 481 c 0,56,57
 832 482 832 482 838 482 c 0,58,59
 859 482 859 482 866 475 c 0,60,61
 881 466 881 466 887 455 c 128,-1,62
 893 444 893 444 899 420 c 0,63,64
 901 412 901 412 901 404 c 0,65,66
 901 390 901 390 894 377 c 0,67,68
 884 357 884 357 861.5 343.5 c 128,-1,69
 839 330 839 330 816.5 320.5 c 128,-1,70
 794 311 794 311 767.5 300.5 c 128,-1,71
 741 290 741 290 728 283 c 1,72,73
 728 268 728 268 718 189 c 0,74,75
 713 153 713 153 713 127 c 0,76,77
 713 97 713 97 720 82 c 0,78,79
 721 82 721 82 723 82 c 0,80,81
 739 82 739 82 757 74 c 0,82,83
 776 66 776 66 779 51 c 0,84,85
 784 46 784 46 783 23 c 1,86,87
 770 15 770 15 763 3 c 1,88,89
 749 3 749 3 701 -3 c 0,90,91
 673 -6 673 -6 648 -6 c 0,92,93
 630 -6 630 -6 613 -4 c 0,94,95
 562 1 562 1 560 49 c 0,96,97
 562 53 562 53 562 56 c 0,98,99
 582 65 582 65 600 73 c 0,100,101
 600 76 600 76 602 88 c 0,102,103
 617 182 617 182 617 217 c 0,104,105
 617 234 617 234 614 238 c 0,106,107
 610 242 610 242 602 244 c 1,108,109
 566 229 566 229 530 200 c 128,-1,110
 494 171 494 171 475 141 c 1,111,112
 475 141 475 141 475 141 c 1,113,114
 419 141 419 141 372 191 c 0,115,116
 353 211 353 211 333 231 c 0,117,118
 295 269 295 269 246 269 c 0,119,120
 237 269 237 269 226 268 c 1,121,122
 226 256 226 256 223 223.5 c 128,-1,123
 220 191 220 191 216 138 c 0,124,125
 215 122 215 122 215 110 c 0,126,127
 215 82 215 82 222 73 c 0,128,129
 230 61 230 61 252 52 c 128,-1,130
 274 43 274 43 274 43 c 2,131,132
 275 41 275 41 278.5 26.5 c 128,-1,133
 282 12 282 12 274 3 c 0,134,135
 264 -16 264 -16 179 -21 c 0,136,137
 153 -22 153 -22 133 -22 c 0,138,139
 85 -22 85 -22 65 -14 c 0,140,141
 57 -10 57 -10 41 -1 c 128,-1,142
 25 8 25 8 17 12 c 1,143,144
 15 30 15 30 15 42 c 128,-1,145
 15 54 15 54 17 60 c 0,146,147
 20 60 20 60 54 58 c 0,148,149
 61 57 61 57 66 57 c 0,150,151
 90 57 90 57 98 65 c 0,152,153
 103 67 103 67 106 69 c 0,154,155
 106 84 106 84 114 174 c 0,156,157
 118 222 118 222 118 254 c 0,158,159
 118 281 118 281 115 296 c 0,160,161
 113 296 113 296 111 296 c 0,162,163
 67 296 67 296 25 320 c 0,164,165
 25 321 25 321 21.5 335.5 c 128,-1,166
 18 350 18 350 25 357 c 0,167,168
 27 362 27 362 30 368 c 1,169,170
 40 368 40 368 80 371.5 c 128,-1,171
 120 375 120 375 124 377 c 0,172,173
 132 431 132 431 136 536 c 0,174,175
 137 573 137 573 137 604 c 0,176,177
 137 664 137 664 132 706 c 1,178,179
 95 708 95 708 64 733 c 0,180,181
 49 745 49 745 39 750 c 1,182,183
 38 769 38 769 46 773.5 c 128,-1,184
 54 778 54 778 76 776 c 1,185,186
 92 784 92 784 171 786 c 0,187,188
 199 786 199 786 219 786 c 0,189,190
 256 786 256 786 266 784 c 0,191,192
 282 781 282 781 290 775 c 128,-1,193
 298 769 298 769 307 760 c 128,-1,194
 316 751 316 751 320 748 c 1,195,196
 319 738 319 738 314.5 730 c 128,-1,197
 310 722 310 722 309 719 c 0,198,199
 271 709 271 709 244 702 c 1,200,-1
 239 702 l 1,0,-1
EndSplineSet
Validated: 5
EndChar

StartChar: I
Encoding: 73 73 12
Width: 455
GlyphClass: 2
Flags: W
LayerCount: 2
Fore
SplineSet
149 410 m 1,0,-1
 136 689 l 1,1,-1
 123 689 l 1,2,3
 113 678 113 678 74 676 c 0,4,5
 67 675 67 675 60 675 c 0,6,7
 33 675 33 675 25 685 c 0,8,9
 18 689 18 689 15.5 705.5 c 128,-1,10
 13 722 13 722 22 731.5 c 128,-1,11
 31 741 31 741 52 747 c 128,-1,12
 73 753 73 753 101 757.5 c 128,-1,13
 129 762 129 762 139 765 c 0,14,15
 144 766 144 766 155 766 c 0,16,17
 162 766 162 766 172 766 c 0,18,19
 196 763 196 763 200 770 c 1,20,21
 258 767 258 767 309 765 c 0,22,23
 310 766 310 766 321 770 c 128,-1,24
 332 774 332 774 348.5 764 c 128,-1,25
 365 754 365 754 372 752 c 1,26,27
 373 746 373 746 376.5 736.5 c 128,-1,28
 380 727 380 727 381 717 c 1,29,30
 349 691 349 691 315 691 c 0,31,32
 305 691 305 691 295 693 c 0,33,34
 287 695 287 695 276 695 c 0,35,36
 261 695 261 695 239 691 c 1,37,38
 239 675 239 675 237.5 625 c 128,-1,39
 236 575 236 575 236 519 c 2,40,-1
 236 518 l 2,41,42
 236 463 236 463 250 418 c 1,43,44
 259 419 259 419 266 419 c 0,45,46
 288 419 288 419 293 414 c 0,47,48
 312 405 312 405 312 387 c 0,49,50
 312 378 312 378 307 366 c 1,51,52
 294 360 294 360 273 358 c 128,-1,53
 252 356 252 356 248 355 c 1,54,55
 248 355 248 355 248 354 c 0,56,57
 248 317 248 317 243 210 c 0,58,59
 241 157 241 157 241 124 c 0,60,61
 241 89 241 89 243 76 c 1,62,63
 260 73 260 73 284 73 c 0,64,65
 287 73 287 73 289 73 c 0,66,67
 294 73 294 73 298 73 c 0,68,69
 320 73 320 73 337 72 c 0,70,71
 357 71 357 71 368 57 c 0,72,73
 372 51 372 51 372 41 c 0,74,75
 372 26 372 26 363 3 c 1,76,77
 363 3 363 3 363 3 c 1,78,79
 357 3 357 3 288 4 c 0,80,81
 279 4 279 4 272 4 c 0,82,83
 216 4 216 4 204 -1 c 0,84,85
 199 0 199 0 169 3 c 1,86,87
 114 -11 114 -11 74 -11 c 0,88,89
 61 -11 61 -11 49 -10 c 1,90,91
 44 4 44 4 34 10 c 1,92,93
 33 28 33 28 36 35 c 128,-1,94
 39 42 39 42 43 48 c 128,-1,95
 47 54 47 54 49 58 c 1,96,97
 72 58 72 58 99 66.5 c 128,-1,98
 126 75 126 75 141 76 c 1,99,100
 150 128 150 128 150 179 c 0,101,102
 150 201 150 201 150 222 c 0,103,104
 150 251 150 251 150 281 c 0,105,106
 149 331 149 331 149 348 c 0,107,108
 146 349 146 349 130.5 351 c 128,-1,109
 115 353 115 353 106 357 c 1,110,111
 105 365 105 365 101 375 c 128,-1,112
 97 385 97 385 97 396 c 1,113,114
 122 403 122 403 145 410 c 1,115,-1
 149 410 l 1,0,-1
EndSplineSet
Validated: 5
EndChar

StartChar: J
Encoding: 74 74 13
Width: 784
GlyphClass: 2
Flags: W
LayerCount: 2
Fore
SplineSet
568 716 m 1,0,-1
 576 447 l 1,1,2
 586 448 586 448 594 448 c 0,3,4
 614 448 614 448 624 445 c 0,5,6
 639 442 639 442 661 430 c 1,7,8
 662 413 662 413 657 408 c 0,9,10
 649 396 649 396 623.5 395 c 128,-1,11
 598 394 598 394 590.5 388 c 128,-1,12
 583 382 583 382 576 377 c 1,13,14
 576 371 576 371 576 364 c 0,15,16
 576 180 576 180 547 104 c 0,17,18
 532 66 532 66 503 38.5 c 128,-1,19
 474 11 474 11 396 -10 c 0,20,21
 336 -27 336 -27 272 -27 c 0,22,23
 254 -27 254 -27 236 -26 c 0,24,25
 153 -20 153 -20 120 18.5 c 128,-1,26
 87 57 87 57 83 109 c 0,27,28
 80 143 80 143 80 177 c 0,29,30
 80 193 80 193 80 210 c 0,31,32
 83 259 83 259 83 275 c 1,33,34
 81 275 81 275 79 275 c 0,35,36
 48 275 48 275 20 288 c 0,37,38
 19 290 19 290 16 301 c 128,-1,39
 13 312 13 312 20 318 c 0,40,41
 23 324 23 324 33.5 333 c 128,-1,42
 44 342 44 342 50 345 c 2,43,-1
 79 340 l 2,44,45
 86 342 86 342 105 346 c 128,-1,46
 124 350 124 350 137 353 c 0,47,48
 165 359 165 359 185 359 c 0,49,50
 229 359 229 359 238 331 c 0,51,52
 243 327 243 327 243 316 c 128,-1,53
 243 305 243 305 238.5 300 c 128,-1,54
 234 295 234 295 221.5 291 c 128,-1,55
 209 287 209 287 194 284 c 128,-1,56
 179 281 179 281 175 279 c 0,57,58
 174 271 174 271 169 221 c 0,59,60
 166 191 166 191 166 166 c 0,61,62
 166 115 166 115 179 89 c 0,63,64
 193 60 193 60 243 52 c 0,65,66
 265 48 265 48 287 48 c 0,67,68
 315 48 315 48 343 54 c 0,69,70
 393 64 393 64 418 83.5 c 128,-1,71
 443 103 443 103 454 130.5 c 128,-1,72
 465 158 465 158 471 209.5 c 128,-1,73
 477 261 477 261 482 286 c 0,74,75
 490 318 490 318 490 337.5 c 128,-1,76
 490 357 490 357 482 364 c 0,77,78
 458 382 458 382 439 395 c 1,79,-1
 439 412 l 1,80,81
 452 415 452 415 487 434 c 1,82,83
 487 490 487 490 487 535 c 0,84,85
 487 698 487 698 478 709 c 0,86,87
 476 712 476 712 471 716 c 1,88,89
 455 706 455 706 427 706 c 0,90,91
 401 706 401 706 366 714 c 0,92,93
 340 720 340 720 327 727 c 1,94,95
 326 736 326 736 326 744 c 0,96,97
 326 758 326 758 332 764 c 0,98,99
 345 786 345 786 384 786 c 0,100,101
 394 786 394 786 405 785 c 0,102,103
 412 784 412 784 419 784 c 0,104,105
 432 784 432 784 444 787 c 0,106,107
 461 793 461 793 557 803 c 0,108,109
 634 811 634 811 654 811 c 0,110,111
 659 811 659 811 661 811 c 0,112,113
 669 808 669 808 687.5 795.5 c 128,-1,114
 706 783 706 783 709 781 c 0,115,116
 711 757 711 757 705 751 c 0,117,118
 695 734 695 734 637 727.5 c 128,-1,119
 579 721 579 721 568 716 c 1,0,-1
EndSplineSet
Validated: 1
EndChar

StartChar: K
Encoding: 75 75 14
Width: 824
GlyphClass: 2
Flags: W
LayerCount: 2
Fore
SplineSet
100 730 m 0,0,1
 97 730 97 730 94 730 c 0,2,3
 54 730 54 730 35 740 c 0,4,5
 16 752 16 752 15 767 c 1,6,7
 35 781 35 781 75 791 c 0,8,9
 122 803 122 803 157 803 c 0,10,11
 198 803 198 803 224 788 c 0,12,13
 251 773 251 773 251 743 c 0,14,15
 251 741 251 741 251 739 c 0,16,17
 245 737 245 737 222 732.5 c 128,-1,18
 199 728 199 728 187 726 c 1,19,-1
 187 640 l 2,20,21
 188 639 188 639 188 629 c 0,22,23
 188 620 188 620 188 604 c 0,24,25
 187 601 187 601 187 598 c 0,26,27
 187 569 187 569 192 551 c 0,28,29
 194 543 194 543 194 489 c 0,30,31
 195 419 195 419 207 350 c 1,32,33
 221 378 221 378 265.5 418 c 128,-1,34
 310 458 310 458 321.5 474.5 c 128,-1,35
 333 491 333 491 371 548 c 0,36,37
 428 633 428 633 476 678 c 0,38,39
 511 712 511 712 521 734 c 1,40,41
 517 736 517 736 498.5 738.5 c 128,-1,42
 480 741 480 741 472 749.5 c 128,-1,43
 464 758 464 758 468 771.5 c 128,-1,44
 472 785 472 785 473 800 c 1,45,46
 473 800 473 800 475 800 c 0,47,48
 486 800 486 800 563 804 c 0,49,50
 584 805 584 805 601 805 c 0,51,52
 658 805 658 805 666 793 c 0,53,54
 669 785 669 785 667.5 782.5 c 128,-1,55
 666 780 666 780 666 772 c 1,56,57
 666 772 666 772 666 772 c 1,58,59
 666 742 666 742 612 737 c 1,60,61
 612 737 612 737 612 736 c 0,62,63
 612 725 612 725 600 701 c 2,64,-1
 572 652 l 1,65,-1
 463 519 l 1,66,67
 463 519 463 519 463 519 c 257,68,69
 463 519 463 519 437 481 c 256,70,71
 411 443 411 443 401 427 c 1,72,73
 405 414 405 414 436.5 386.5 c 128,-1,74
 468 359 468 359 484 337.5 c 128,-1,75
 500 316 500 316 559.5 242.5 c 128,-1,76
 619 169 619 169 650 125 c 1,77,78
 657 124 657 124 663 123 c 1,79,80
 668 146 668 146 681 146 c 0,81,82
 686 146 686 146 692 143 c 0,83,84
 693 142 693 142 702 139.5 c 128,-1,85
 711 137 711 137 714 134 c 0,86,87
 735 126 735 126 746 63 c 0,88,89
 751 34 751 34 751 17 c 0,90,91
 751 -3 751 -3 744 -6 c 0,92,93
 739 -9 739 -9 728.5 -9.5 c 128,-1,94
 718 -10 718 -10 702 -12 c 128,-1,95
 686 -14 686 -14 674 -6 c 1,96,97
 668 3 668 3 655 23 c 1,98,99
 647 26 647 26 616.5 50 c 128,-1,100
 586 74 586 74 585 75 c 0,101,102
 578 75 578 75 551 118 c 128,-1,103
 524 161 524 161 517.5 163.5 c 128,-1,104
 511 166 511 166 476.5 211 c 128,-1,105
 442 256 442 256 426 265 c 0,106,107
 424 266 424 266 398 293.5 c 128,-1,108
 372 321 372 321 327 347 c 1,109,110
 303 323 303 323 281 301.5 c 128,-1,111
 259 280 259 280 233.5 255.5 c 128,-1,112
 208 231 208 231 205 228 c 0,113,114
 205 227 205 227 205 225 c 0,115,116
 205 207 205 207 204 160 c 0,117,118
 204 154 204 154 204 147 c 0,119,120
 204 105 204 105 209 75 c 1,121,122
 209 75 209 75 209 75 c 1,123,124
 234 75 234 75 252 61.5 c 128,-1,125
 270 48 270 48 277 44 c 1,126,127
 277 38 277 38 277 32 c 0,128,129
 277 14 277 14 273 10 c 0,130,131
 265 -5 265 -5 206 -8 c 0,132,133
 181 -10 181 -10 165 -10 c 0,134,135
 144 -10 144 -10 138 -8 c 0,136,137
 129 -3 129 -3 109.5 8 c 128,-1,138
 90 19 90 19 72 23 c 0,139,140
 71 25 71 25 67 37.5 c 128,-1,141
 63 50 63 50 63 62 c 1,142,143
 94 67 94 67 118 79 c 1,144,145
 118 94 118 94 118 109 c 0,146,147
 118 316 118 316 100 730 c 0,0,1
EndSplineSet
Validated: 5
EndChar

StartChar: L
Encoding: 76 76 15
Width: 832
GlyphClass: 2
Flags: W
LayerCount: 2
Fore
SplineSet
215 326 m 1,0,-1
 210 79 l 1,1,2
 210 79 210 79 211 79 c 0,3,4
 295 79 295 79 348 96 c 0,5,6
 357 99 357 99 375 99 c 0,7,8
 379 99 379 99 384 99 c 0,9,10
 390 99 390 99 395 99 c 0,11,12
 412 99 412 99 419 101 c 0,13,14
 421 102 421 102 426 102 c 0,15,16
 437 102 437 102 461 96 c 1,17,-1
 540 96 l 1,18,19
 568 88 568 88 601 88 c 0,20,21
 624 88 624 88 649 92 c 1,22,-1
 649 101 l 1,23,24
 649 101 649 101 651 123 c 128,-1,25
 653 145 653 145 656 151 c 1,26,27
 662 152 662 152 670.5 155.5 c 128,-1,28
 679 159 679 159 691 160 c 1,29,30
 694 152 694 152 703 151 c 128,-1,31
 712 150 712 150 719 144.5 c 128,-1,32
 726 139 726 139 745 84 c 0,33,34
 758 44 758 44 758 30 c 0,35,36
 758 24 758 24 756 22 c 0,37,38
 739 1 739 1 623 1 c 0,39,40
 571 1 571 1 498 5 c 0,41,42
 418 10 418 10 391 10 c 0,43,44
 386 10 386 10 383 10 c 0,45,46
 364 8 364 8 307 -2 c 0,47,48
 272 -9 272 -9 250 -9 c 0,49,50
 237 -9 237 -9 229 -6 c 0,51,52
 217 -3 217 -3 206 -3 c 0,53,54
 198 -3 198 -3 190 -5 c 0,55,56
 170 -11 170 -11 155 -11 c 0,57,58
 128 -11 128 -11 112 5 c 0,59,60
 107 10 107 10 107 40 c 0,61,62
 107 42 107 42 107 43 c 0,63,64
 107 76 107 76 115 106 c 128,-1,65
 123 136 123 136 125 212 c 0,66,67
 126 224 126 224 126 235 c 0,68,69
 126 295 126 295 116 339 c 1,70,71
 79 341 79 341 77 341 c 0,72,73
 57 371 57 371 56 379.5 c 128,-1,74
 55 388 55 388 55 391.5 c 128,-1,75
 55 395 55 395 62 399 c 128,-1,76
 69 403 69 403 73.5 404.5 c 128,-1,77
 78 406 78 406 92.5 410 c 128,-1,78
 107 414 107 414 116 417 c 1,79,80
 119 483 119 483 119 538 c 0,81,82
 119 652 119 652 108 716 c 1,83,-1
 86 719 l 1,84,85
 76 715 76 715 66 715 c 256,86,87
 56 715 56 715 45 719 c 0,88,89
 24 726 24 726 17.5 739.5 c 128,-1,90
 11 753 11 753 23 769 c 0,91,92
 31 778 31 778 135 794 c 0,93,94
 203 805 203 805 235 805 c 0,95,96
 251 805 251 805 257 802 c 0,97,98
 276 793 276 793 285.5 783.5 c 128,-1,99
 295 774 295 774 304 751 c 1,100,101
 300 736 300 736 298 734 c 0,102,103
 287 716 287 716 222 716 c 0,104,105
 215 716 215 716 206 716 c 1,106,107
 213 603 213 603 215 413 c 1,108,109
 276 405 276 405 276 352 c 0,110,111
 276 350 276 350 276 347 c 0,112,113
 273 344 273 344 271 336 c 1,114,115
 263 336 263 336 245 330 c 128,-1,116
 227 324 227 324 215 326 c 1,0,-1
EndSplineSet
Validated: 1
EndChar

StartChar: M
Encoding: 77 77 16
Width: 977
GlyphClass: 2
Flags: W
LayerCount: 2
Fore
SplineSet
861 -13 m 1,0,-1
 829 -9 l 2,1,2
 825 -9 825 -9 798 -11 c 0,3,4
 772 -14 772 -14 753 -14 c 0,5,6
 704 -14 704 -14 693 2 c 1,7,8
 679 10 679 10 676 29 c 1,9,10
 719 60 719 60 719 102 c 0,11,12
 719 106 719 106 719 109 c 0,13,14
 717 138 717 138 717 161 c 256,15,16
 717 184 717 184 719 200 c 0,17,18
 722 217 722 217 722 236 c 0,19,20
 722 250 722 250 720 264 c 0,21,22
 718 290 718 290 718 313 c 0,23,24
 718 319 718 319 718 324 c 0,25,26
 719 352 719 352 719 403 c 2,27,-1
 719 406 l 2,28,29
 719 456 719 456 718 526 c 0,30,31
 717 597 717 597 717 638 c 1,32,-1
 709 638 l 1,33,34
 683 594 683 594 616 521.5 c 128,-1,35
 549 449 549 449 530 376 c 1,36,37
 521 374 521 374 517.5 370 c 128,-1,38
 514 366 514 366 512 365 c 0,39,40
 504 364 504 364 498 364 c 0,41,42
 460 364 460 364 449 376 c 0,43,44
 439 384 439 384 426 408 c 128,-1,45
 413 432 413 432 406.5 441.5 c 128,-1,46
 400 451 400 451 373.5 472 c 128,-1,47
 347 493 347 493 339.5 502 c 128,-1,48
 332 511 332 511 306 544 c 128,-1,49
 280 577 280 577 245.5 615 c 128,-1,50
 211 653 211 653 178 668 c 1,51,52
 178 580 178 580 178 508 c 128,-1,53
 178 436 178 436 178 380 c 1,54,55
 202 374 202 374 224 354 c 0,56,57
 237 342 237 342 237 330 c 0,58,59
 237 321 237 321 231 312 c 0,60,61
 224 303 224 303 202.5 295.5 c 128,-1,62
 181 288 181 288 178 286 c 0,63,64
 178 274 178 274 176 237.5 c 128,-1,65
 174 201 174 201 170 143 c 0,66,67
 169 124 169 124 169 110 c 0,68,69
 169 82 169 82 174 77 c 0,70,71
 181 69 181 69 196 61 c 128,-1,72
 211 53 211 53 218.5 43 c 128,-1,73
 226 33 226 33 226 11 c 1,74,-1
 226 11 l 1,75,-1
 222 11 l 1,76,77
 213 -6 213 -6 165 -14 c 0,78,79
 142 -18 142 -18 120 -18 c 0,80,81
 94 -18 94 -18 69 -13 c 0,82,83
 23 -4 23 -4 19 20 c 1,84,85
 29 39 29 39 40 49.5 c 128,-1,86
 51 60 51 60 71 68 c 1,87,88
 84 147 84 147 84 286 c 1,89,90
 39 293 39 293 32 299 c 0,91,92
 15 310 15 310 15 320 c 0,93,94
 15 325 15 325 18 330 c 0,95,96
 34 352 34 352 84 371 c 1,97,98
 84 382 84 382 88 453.5 c 128,-1,99
 92 525 92 525 92 572 c 0,100,101
 92 639 92 639 84 657 c 0,102,103
 83 660 83 660 83 666 c 0,104,105
 83 675 83 675 87 692 c 0,106,107
 89 701 89 701 89 708 c 0,108,109
 89 722 89 722 80 727 c 0,110,111
 75 734 75 734 64 743 c 0,112,113
 41 761 41 761 41 788 c 1,114,-1
 45 788 l 1,115,116
 57 809 57 809 87 809 c 0,117,118
 106 809 106 809 132 801 c 0,119,120
 167 790 167 790 194.5 768.5 c 128,-1,121
 222 747 222 747 251 722 c 128,-1,122
 280 697 280 697 314 661.5 c 128,-1,123
 348 626 348 626 364.5 609 c 128,-1,124
 381 592 381 592 424 544 c 128,-1,125
 467 496 467 496 475 487 c 1,126,-1
 477 487 l 1,127,128
 496 508 496 508 525.5 552 c 128,-1,129
 555 596 555 596 566 609.5 c 128,-1,130
 577 623 577 623 595.5 639 c 128,-1,131
 614 655 614 655 624.5 665 c 128,-1,132
 635 675 635 675 658 712 c 128,-1,133
 681 749 681 749 683 751.5 c 128,-1,134
 685 754 685 754 713 771 c 1,135,136
 723 788 723 788 735 810 c 0,137,138
 739 813 739 813 752.5 814 c 128,-1,139
 766 815 766 815 770 819 c 0,140,141
 774 819 774 819 777 819 c 0,142,143
 811 819 811 819 829 805 c 0,144,145
 847 792 847 792 847 767 c 0,146,147
 847 762 847 762 846 758 c 0,148,149
 826 754 826 754 809 742 c 1,150,-1
 809 494 l 1,151,-1
 813 411 l 1,152,153
 805 358 805 358 805 301 c 0,154,155
 805 252 805 252 811 199 c 0,156,157
 812 191 812 191 812 179 c 0,158,159
 812 162 812 162 810 135 c 0,160,161
 808 107 808 107 808 92 c 0,162,163
 808 82 808 82 809 77 c 1,164,-1
 837 77 l 1,165,166
 842 81 842 81 849 81 c 0,167,168
 861 81 861 81 878 65 c 0,169,170
 903 41 903 41 903 18 c 0,171,172
 903 17 903 17 903 16 c 0,173,174
 900 14 900 14 885.5 2.5 c 128,-1,175
 871 -9 871 -9 861 -13 c 1,0,-1
EndSplineSet
Validated: 5
EndChar

StartChar: N
Encoding: 78 78 17
Width: 878
GlyphClass: 2
Flags: W
LayerCount: 2
Fore
SplineSet
607 520 m 1,0,-1
 602 561 l 1,1,2
 608 580 608 580 609 627 c 128,-1,3
 610 674 610 674 616 694 c 0,4,5
 618 701 618 701 618 709 c 0,6,7
 618 724 618 724 610 742 c 0,8,9
 598 769 598 769 598 786 c 1,10,11
 612 787 612 787 627 796.5 c 128,-1,12
 642 806 642 806 646 808 c 0,13,14
 665 817 665 817 689 817 c 0,15,16
 735 817 735 817 799 782 c 1,17,18
 802 758 802 758 803 753 c 1,19,20
 783 739 783 739 751.5 731 c 128,-1,21
 720 723 720 723 718 723 c 0,22,23
 712 687 712 687 705 646 c 1,24,25
 707 628 707 628 709 613 c 0,26,27
 709 610 709 610 709 607 c 0,28,29
 709 582 709 582 707 544 c 0,30,31
 704 502 704 502 701 493 c 128,-1,32
 698 484 698 484 699.5 465.5 c 128,-1,33
 701 447 701 447 702 435 c 128,-1,34
 703 423 703 423 696 415 c 0,35,36
 695 411 695 411 695 406 c 0,37,38
 695 392 695 392 700 367 c 0,39,40
 704 348 704 348 704 334 c 0,41,42
 704 323 704 323 701 315 c 0,43,44
 696 297 696 297 693 175 c 0,45,46
 691 109 691 109 691 76 c 0,47,48
 691 47 691 47 692 43 c 0,49,50
 695 33 695 33 710 16.5 c 128,-1,51
 725 0 725 0 727 -2 c 0,52,53
 763 -54 763 -54 770 -116 c 1,54,55
 756 -140 756 -140 729 -140 c 1,56,-1
 729 -140 l 1,57,58
 725 -136 725 -136 714.5 -133 c 128,-1,59
 704 -130 704 -130 694.5 -122 c 128,-1,60
 685 -114 685 -114 671.5 -96 c 128,-1,61
 658 -78 658 -78 642.5 -51 c 128,-1,62
 627 -24 627 -24 618.5 -11 c 128,-1,63
 610 2 610 2 582 31 c 128,-1,64
 554 60 554 60 543 79 c 0,65,66
 502 149 502 149 436.5 289 c 128,-1,67
 371 429 371 429 360 450 c 128,-1,68
 349 471 349 471 348.5 488.5 c 128,-1,69
 348 506 348 506 344.5 511.5 c 128,-1,70
 341 517 341 517 328 529 c 128,-1,71
 315 541 315 541 308 550.5 c 128,-1,72
 301 560 301 560 285 589 c 128,-1,73
 269 618 269 618 262 627.5 c 128,-1,74
 255 637 255 637 242 646 c 128,-1,75
 229 655 229 655 225 662 c 1,76,-1
 216 662 l 1,77,-1
 216 646 l 1,78,79
 220 587 220 587 233 391 c 1,80,81
 245 390 245 390 259 382.5 c 128,-1,82
 273 375 273 375 277 367 c 0,83,84
 288 358 288 358 288 341 c 0,85,86
 288 329 288 329 284 314 c 1,87,88
 274 311 274 311 256 305 c 128,-1,89
 238 299 238 299 233 297 c 1,90,91
 233 250 233 250 233 213 c 0,92,93
 233 92 233 92 238 86 c 0,94,95
 245 77 245 77 258.5 70 c 128,-1,96
 272 63 272 63 279 52 c 0,97,98
 286 42 286 42 286 20 c 0,99,100
 286 19 286 19 286 18 c 2,101,-1
 281 18 l 1,102,103
 273 3 273 3 219 -3 c 0,104,105
 187 -7 187 -7 155 -7 c 0,106,107
 133 -7 133 -7 111 -5 c 0,108,109
 56 -1 56 -1 46 13 c 1,110,-1
 46 39 l 1,111,112
 42 43 42 43 41 52 c 1,113,114
 83 71 83 71 122 74 c 1,115,116
 127 95 127 95 132 187 c 0,117,118
 135 235 135 235 135 261 c 0,119,120
 135 284 135 284 133 289 c 0,121,122
 128 298 128 298 126 301 c 0,123,124
 124 301 124 301 122 301 c 0,125,126
 76 301 76 301 37 325 c 1,127,128
 38 349 38 349 51.5 360.5 c 128,-1,129
 65 372 65 372 90.5 379 c 128,-1,130
 116 386 116 386 126 393 c 1,131,132
 128 425 128 425 128 453 c 0,133,134
 128 538 128 538 113 587 c 0,135,136
 110 597 110 597 112 613.5 c 128,-1,137
 114 630 114 630 112.5 636.5 c 128,-1,138
 111 643 111 643 113 665.5 c 128,-1,139
 115 688 115 688 116 702.5 c 128,-1,140
 117 717 117 717 109 729 c 0,141,142
 101 740 101 740 66.5 743.5 c 128,-1,143
 32 747 32 747 24 755 c 0,144,145
 22 756 22 756 19 757.5 c 128,-1,146
 16 759 16 759 15 760 c 0,147,148
 15 776 15 776 19 788.5 c 128,-1,149
 23 801 23 801 24 803 c 0,150,151
 50 809 50 809 77 809 c 0,152,153
 129 809 129 809 179 786 c 0,154,155
 186 782 186 782 203.5 780 c 128,-1,156
 221 778 221 778 229 773 c 0,157,158
 372 677 372 677 456 507 c 0,159,160
 465 487 465 487 477.5 450 c 128,-1,161
 490 413 490 413 497 398.5 c 128,-1,162
 504 384 504 384 539 317.5 c 128,-1,163
 574 251 574 251 589 214 c 1,164,-1
 594 214 l 1,165,166
 594 222 594 222 594 234 c 0,167,168
 594 254 594 254 593 286 c 0,169,170
 593 315 593 315 593 347 c 0,171,172
 593 373 593 373 593 401 c 0,173,174
 594 465 594 465 607 520 c 1,0,-1
EndSplineSet
Validated: 5
EndChar

StartChar: O
Encoding: 79 79 18
Width: 834
GlyphClass: 2
Flags: W
LayerCount: 2
Fore
SplineSet
559 304 m 1,0,-1
 506 334 l 1,1,2
 507 348 507 348 508 365 c 1,3,4
 539 386 539 386 572 391 c 1,5,-1
 572 441 l 1,6,7
 565 449 565 449 566 472 c 0,8,9
 566 476 566 476 566 479 c 0,10,11
 566 497 566 497 563 507 c 0,12,13
 531 590 531 590 518 612.5 c 128,-1,14
 505 635 505 635 470 656.5 c 128,-1,15
 435 678 435 678 425 695 c 0,16,17
 424 695 424 695 423 695 c 0,18,19
 387 695 387 695 358 670 c 0,20,21
 328 645 328 645 314 610 c 0,22,23
 302 580 302 580 302 547 c 0,24,25
 302 541 302 541 302 535 c 0,26,27
 305 496 305 496 327 472 c 0,28,29
 328 472 328 472 329 472 c 0,30,31
 351 472 351 472 365 490 c 256,32,33
 379 508 379 508 382 533 c 1,34,35
 410 539 410 539 424 539 c 0,36,37
 425 539 425 539 426 539 c 0,38,39
 440 539 440 539 465 524 c 1,40,41
 467 510 467 510 467 496 c 0,42,43
 467 473 467 473 460 454 c 0,44,45
 451 424 451 424 431 410 c 128,-1,46
 411 396 411 396 384 390 c 0,47,48
 373 388 373 388 360 388 c 0,49,50
 345 388 345 388 329 391 c 0,51,52
 300 398 300 398 273 411 c 128,-1,53
 246 424 246 424 224.5 446 c 128,-1,54
 203 468 203 468 192 494 c 1,55,56
 190 491 190 491 190 489 c 0,57,58
 177 477 177 477 170 443 c 0,59,60
 163 410 163 410 163 380 c 0,61,62
 163 379 163 379 163 378 c 0,63,64
 194 377 194 377 210 356 c 0,65,66
 219 344 219 344 219 330 c 0,67,68
 219 319 219 319 214 306 c 1,69,70
 206 305 206 305 187.5 302 c 128,-1,71
 169 299 169 299 159 297 c 0,72,73
 159 295 159 295 159 292 c 0,74,75
 159 224 159 224 190 173 c 0,76,77
 223 120 223 120 272 96 c 0,78,79
 311 77 311 77 358 77 c 0,80,81
 369 77 369 77 380 79 c 0,82,83
 440 84 440 84 491 123 c 0,84,85
 511 138 511 138 533 200 c 128,-1,86
 555 262 555 262 559 304 c 1,0,-1
369 788 m 0,87,88
 371 788 371 788 374 788 c 0,89,90
 500 788 500 788 571 716 c 0,91,92
 634 651 634 651 674 542 c 0,93,94
 683 519 683 519 684.5 465.5 c 128,-1,95
 686 412 686 412 696 391 c 1,96,97
 704 389 704 389 721 384.5 c 128,-1,98
 738 380 738 380 746 378 c 1,99,100
 747 373 747 373 753 357.5 c 128,-1,101
 759 342 759 342 759 326 c 0,102,103
 757 324 757 324 755 321.5 c 128,-1,104
 753 319 753 319 747 316 c 128,-1,105
 741 313 741 313 728.5 310.5 c 128,-1,106
 716 308 716 308 700 306.5 c 128,-1,107
 684 305 684 305 674 304 c 1,108,109
 670 221 670 221 620.5 134 c 128,-1,110
 571 47 571 47 511 22 c 0,111,112
 487 13 487 13 443 9.5 c 128,-1,113
 399 6 399 6 371 -1 c 0,114,115
 358 -4 358 -4 341 -4 c 0,116,117
 319 -4 319 -4 290 1 c 0,118,119
 238 9 238 9 211 27 c 0,120,121
 97 101 97 101 70 184 c 0,122,123
 67 202 67 202 52 297 c 0,124,125
 47 313 47 313 35 321 c 0,126,127
 15 334 15 334 15 367 c 1,128,129
 15 367 15 367 15 367 c 1,130,131
 16 368 16 368 25 373 c 128,-1,132
 34 378 34 378 43.5 384 c 128,-1,133
 53 390 53 390 56 400 c 1,134,135
 63 408 63 408 72.5 469 c 128,-1,136
 82 530 82 530 87 542 c 0,137,138
 154 700 154 700 284 769 c 0,139,140
 297 776 297 776 326 779.5 c 128,-1,141
 355 783 355 783 369 788 c 0,87,88
EndSplineSet
Validated: 5
EndChar

StartChar: P
Encoding: 80 80 19
Width: 648
GlyphClass: 2
Flags: W
LayerCount: 2
Fore
SplineSet
191 815 m 0,0,1
 194 814 194 814 197 814 c 0,2,3
 215 814 215 814 262 816 c 0,4,5
 272 817 272 817 280 817 c 0,6,7
 326 817 326 817 353 806 c 0,8,9
 386 794 386 794 429 775 c 128,-1,10
 472 756 472 756 509 723 c 0,11,12
 574 665 574 665 574 581 c 0,13,14
 574 539 574 539 558 492 c 0,15,16
 549 463 549 463 521 422.5 c 128,-1,17
 493 382 493 382 450.5 360.5 c 128,-1,18
 408 339 408 339 337 319 c 128,-1,19
 266 299 266 299 239 288 c 1,20,21
 224 203 224 203 224 146 c 0,22,23
 224 109 224 109 231 83 c 1,24,25
 246 90 246 90 262 90 c 0,26,27
 271 90 271 90 281 88 c 0,28,29
 308 82 308 82 322 66 c 0,30,31
 333 58 333 58 333 35 c 0,32,33
 333 25 333 25 331 13 c 1,34,-1
 322 13 l 1,35,36
 312 4 312 4 282 4 c 1,37,38
 282 4 282 4 282 4 c 257,39,40
 282 4 282 4 281 4 c 0,41,42
 252 4 252 4 235 0 c 0,43,44
 185 -16 185 -16 140 -16 c 0,45,46
 131 -16 131 -16 123 -15 c 0,47,48
 70 -12 70 -12 47 0 c 0,49,50
 47 2 47 2 47 4 c 0,51,52
 47 19 47 19 51 35 c 0,53,54
 56 52 56 52 56 66 c 1,55,56
 59 66 59 66 70.5 67.5 c 128,-1,57
 82 69 82 69 97.5 71 c 128,-1,58
 113 73 113 73 119 78.5 c 128,-1,59
 125 84 125 84 130 176 c 0,60,61
 132 215 132 215 132 239 c 0,62,63
 132 271 132 271 128 275 c 0,64,65
 128 276 128 276 76.5 288 c 128,-1,66
 25 300 25 300 17 302 c 1,67,68
 15 313 15 313 15 324 c 0,69,70
 15 363 15 363 41 384 c 0,71,72
 63 403 63 403 97 403 c 0,73,74
 112 403 112 403 128 400 c 1,75,76
 129 415 129 415 129.5 457.5 c 128,-1,77
 130 500 130 500 131 528 c 0,78,79
 135 607 135 607 159 638 c 1,80,81
 165 639 165 639 171 639 c 0,82,83
 181 639 181 639 191 636 c 0,84,85
 209 631 209 631 215.5 627.5 c 128,-1,86
 222 624 222 624 239 614 c 1,87,88
 243 588 243 588 243 557 c 0,89,90
 243 542 243 542 242 526 c 0,91,92
 239 476 239 476 239 467.5 c 128,-1,93
 239 459 239 459 238 428 c 0,94,95
 237 423 237 423 237 418 c 0,96,97
 237 396 237 396 244 391 c 1,98,-1
 244 387 l 1,99,100
 307 397 307 397 364.5 427 c 128,-1,101
 422 457 422 457 449 498 c 0,102,103
 455 507 455 507 455.5 525.5 c 128,-1,104
 456 544 456 544 458 553 c 0,105,106
 462 571 462 571 462 588 c 0,107,108
 462 622 462 622 446 649 c 0,109,110
 421 690 421 690 373 718 c 0,111,112
 341 737 341 737 290 737 c 0,113,114
 266 737 266 737 239 733 c 0,115,116
 202 728 202 728 167 723 c 0,117,118
 138 718 138 718 115 718 c 0,119,120
 67 718 67 718 39 736 c 0,121,122
 38 740 38 740 38 745 c 0,123,124
 38 769 38 769 47 777 c 0,125,126
 58 795 58 795 85 798.5 c 128,-1,127
 112 802 112 802 144 803 c 128,-1,128
 176 804 176 804 191 815 c 0,0,1
EndSplineSet
Validated: 5
EndChar

StartChar: Q
Encoding: 81 81 20
Width: 886
GlyphClass: 2
Flags: W
LayerCount: 2
Fore
SplineSet
653 367 m 1,0,1
 644 366 644 366 637 366 c 0,2,3
 614 366 614 366 609 371 c 0,4,5
 607 373 607 373 600.5 378 c 128,-1,6
 594 383 594 383 590 386 c 1,7,-1
 590 410 l 1,8,9
 595 415 595 415 604.5 429.5 c 128,-1,10
 614 444 614 444 620.5 448 c 128,-1,11
 627 452 627 452 639.5 456.5 c 128,-1,12
 652 461 652 461 657 465 c 1,13,14
 647 495 647 495 631 554.5 c 128,-1,15
 615 614 615 614 589.5 640 c 128,-1,16
 564 666 564 666 510 687 c 0,17,18
 481 697 481 697 460 697 c 0,19,20
 440 697 440 697 426 688 c 0,21,22
 409 676 409 676 371 614 c 0,23,24
 342 566 342 566 342 547 c 0,25,26
 342 540 342 540 345 537 c 0,27,28
 346 523 346 523 346.5 506.5 c 128,-1,29
 347 490 347 490 348.5 476.5 c 128,-1,30
 350 463 350 463 361 456 c 0,31,32
 368 452 368 452 378 452 c 0,33,34
 386 452 386 452 395 454 c 1,35,36
 403 495 403 495 429 510 c 0,37,38
 442 517 442 517 453 517 c 0,39,40
 466 517 466 517 478 508 c 0,41,42
 498 493 498 493 498 461 c 0,43,44
 498 459 498 459 498 456 c 0,45,46
 490 447 490 447 476.5 418.5 c 128,-1,47
 463 390 463 390 448 380 c 1,48,49
 427 377 427 377 417 375 c 0,50,51
 397 368 397 368 377 368 c 0,52,53
 345 368 345 368 316 389 c 0,54,55
 269 422 269 422 251 474 c 1,56,-1
 251 504 l 1,57,58
 245 527 245 527 245 549 c 0,59,60
 245 562 245 562 247 574 c 0,61,62
 263 623 263 623 306 705 c 1,63,64
 304 703 304 703 302 701 c 0,65,66
 273 684 273 684 260.5 666 c 128,-1,67
 248 648 248 648 242 640.5 c 128,-1,68
 236 633 236 633 227.5 612 c 128,-1,69
 219 591 219 591 217 586 c 128,-1,70
 215 581 215 581 204.5 552 c 128,-1,71
 194 523 194 523 188 509 c 0,72,73
 173 474 173 474 173 457 c 0,74,75
 173 449 173 449 177 445 c 0,76,77
 178 443 178 443 188 431.5 c 128,-1,78
 198 420 198 420 199 404 c 1,79,80
 178 387 178 387 172 365 c 0,81,82
 168 347 168 347 168 312 c 0,83,84
 168 304 168 304 168 295 c 1,85,86
 176 286 176 286 179 258 c 0,87,88
 187 189 187 189 262 117 c 0,89,90
 298 82 298 82 344 82 c 0,91,92
 361 82 361 82 380 87 c 0,93,94
 391 90 391 90 415 91 c 128,-1,95
 439 92 439 92 454 97 c 128,-1,96
 469 102 469 102 474 118 c 1,97,98
 464 122 464 122 455.5 131.5 c 128,-1,99
 447 141 447 141 443 144 c 0,100,101
 397 157 397 157 395 157 c 0,102,103
 380 166 380 166 378 194 c 1,104,105
 384 205 384 205 395 225 c 1,106,107
 408 227 408 227 421 227 c 0,108,109
 471 227 471 227 518 189 c 0,110,111
 543 168 543 168 553 161 c 1,112,113
 587 193 587 193 620 255 c 128,-1,114
 653 317 653 317 653 367 c 1,0,1
35 469 m 1,115,116
 40 469 40 469 44 469 c 0,117,118
 65 469 65 469 75 474 c 1,119,120
 82 580 82 580 135.5 668.5 c 128,-1,121
 189 757 189 757 267 808 c 0,122,123
 278 815 278 815 302 816 c 128,-1,124
 326 817 326 817 337 821 c 0,125,126
 364 828 364 828 397 828 c 0,127,128
 423 828 423 828 452 824 c 0,129,130
 521 814 521 814 564 790 c 0,131,132
 573 785 573 785 588.5 765.5 c 128,-1,133
 604 746 604 746 609.5 742.5 c 128,-1,134
 615 739 615 739 636.5 728.5 c 128,-1,135
 658 718 658 718 672 703.5 c 128,-1,136
 686 689 686 689 699.5 653.5 c 128,-1,137
 713 618 713 618 725 573 c 128,-1,138
 737 528 737 528 744 513 c 128,-1,139
 751 498 751 498 751 481.5 c 128,-1,140
 751 465 751 465 760 458 c 0,141,142
 770 455 770 455 795 447 c 0,143,144
 798 445 798 445 801 438 c 128,-1,145
 804 431 804 431 808 428 c 1,146,-1
 808 395 l 2,147,148
 807 394 807 394 785.5 383 c 128,-1,149
 764 372 764 372 760 365 c 0,150,151
 755 359 755 359 742.5 297 c 128,-1,152
 730 235 730 235 725 225 c 0,153,154
 699 170 699 170 653 105 c 0,155,156
 651 101 651 101 640 92.5 c 128,-1,157
 629 84 629 84 627 79 c 0,158,159
 626 77 626 77 626 74 c 0,160,161
 626 56 626 56 665 6 c 0,162,163
 710 -51 710 -51 725 -57 c 1,164,165
 735 -24 735 -24 783 -24 c 0,166,167
 787 -24 787 -24 791 -24 c 0,168,169
 811 -79 811 -79 811 -125 c 0,170,171
 811 -152 811 -152 804 -177 c 1,172,173
 799 -178 799 -178 788 -182 c 128,-1,174
 777 -186 777 -186 769 -189 c 0,175,176
 762 -191 762 -191 754 -191 c 0,177,178
 726 -191 726 -191 697 -159 c 0,179,180
 682 -142 682 -142 665.5 -118.5 c 128,-1,181
 649 -95 649 -95 640 -85 c 0,182,183
 610 -56 610 -56 568 -15 c 0,184,185
 563 -9 563 -9 556.5 7.5 c 128,-1,186
 550 24 550 24 544 31 c 1,187,188
 479 10 479 10 445 -1 c 0,189,190
 422 -9 422 -9 391 -9 c 0,191,192
 375 -9 375 -9 358 -7 c 0,193,194
 306 -1 306 -1 258 24 c 0,195,196
 249 28 249 28 221.5 38 c 128,-1,197
 194 48 194 48 182 59 c 0,198,199
 177 69 177 69 173 79 c 1,200,201
 162 89 162 89 127 122 c 1,202,203
 105 154 105 154 94.5 191 c 128,-1,204
 84 228 84 228 76.5 295 c 128,-1,205
 69 362 69 362 66 380 c 1,206,207
 49 383 49 383 26 407 c 0,208,209
 15 419 15 419 15 430 c 0,210,211
 15 442 15 442 27 453 c 0,212,213
 33 459 33 459 35 469 c 1,115,116
EndSplineSet
Validated: 1
EndChar

StartChar: R
Encoding: 82 82 21
Width: 894
GlyphClass: 2
Flags: W
LayerCount: 2
Fore
SplineSet
237 85 m 2,0,1
 238 85 238 85 239 85 c 0,2,3
 266 85 266 85 297 58 c 0,4,5
 317 40 317 40 317 25 c 0,6,7
 317 16 317 16 311 9 c 0,8,9
 300 -4 300 -4 249 -8 c 0,10,11
 220 -10 220 -10 191 -10 c 0,12,13
 168 -10 168 -10 145 -9 c 0,14,15
 93 -6 93 -6 66 0 c 1,16,17
 65 9 65 9 63 12.5 c 128,-1,18
 61 16 61 16 53 20 c 0,19,20
 53 21 53 21 53 22 c 0,21,22
 53 43 53 43 62 72 c 0,23,24
 65 73 65 73 92 76.5 c 128,-1,25
 119 80 119 80 134 85 c 0,26,27
 135 88 135 88 139 112 c 0,28,29
 149 177 149 177 149 215 c 128,-1,30
 149 253 149 253 138 264 c 1,31,-1
 138 268 l 1,32,33
 130 268 130 268 123 268 c 0,34,35
 76 268 76 268 69 285 c 0,36,37
 67 290 67 290 65.5 296.5 c 128,-1,38
 64 303 64 303 62 308 c 0,39,40
 55 322 55 322 55 332 c 0,41,42
 55 339 55 339 59 344 c 0,43,44
 68 355 68 355 83 357 c 0,45,46
 133 364 133 364 138 371 c 0,47,48
 146 379 146 379 146 425 c 0,49,50
 146 457 146 457 142 508 c 0,51,52
 138 567 138 567 138 601 c 0,53,54
 138 638 138 638 143 646 c 0,55,56
 154 659 154 659 183 659 c 0,57,58
 184 659 184 659 187 659 c 0,59,60
 192 650 192 650 211 636.5 c 128,-1,61
 230 623 230 623 237 611 c 1,62,63
 235 602 235 602 235 572 c 0,64,65
 235 540 235 540 237 484 c 0,66,67
 240 377 240 377 248 364 c 1,68,69
 263 374 263 374 308 374 c 128,-1,70
 353 374 353 374 367 379.5 c 128,-1,71
 381 385 381 385 430.5 399.5 c 128,-1,72
 480 414 480 414 510 429 c 0,73,74
 576 463 576 463 576 539 c 0,75,76
 576 557 576 557 572 578 c 0,77,78
 561 643 561 643 525 668 c 0,79,80
 477 701 477 701 372 719 c 0,81,82
 329 726 329 726 290 726 c 0,83,84
 233 726 233 726 182 711 c 0,85,86
 93 684 93 684 55 684 c 0,87,88
 38 684 38 684 32 690 c 0,89,90
 23 696 23 696 21.5 704.5 c 128,-1,91
 20 713 20 713 18 719 c 128,-1,92
 16 725 16 725 15 731 c 128,-1,93
 14 737 14 737 15.5 742 c 128,-1,94
 17 747 17 747 18 751 c 128,-1,95
 19 755 19 755 24 759 c 128,-1,96
 29 763 29 763 30.5 765 c 128,-1,97
 32 767 32 767 39.5 770.5 c 128,-1,98
 47 774 47 774 49 775 c 128,-1,99
 51 776 51 776 60 779.5 c 128,-1,100
 69 783 69 783 71 784 c 0,101,102
 123 805 123 805 228 813 c 0,103,104
 264 816 264 816 295 816 c 0,105,106
 356 816 356 816 400 805 c 0,107,108
 495 781 495 781 560.5 743 c 128,-1,109
 626 705 626 705 658 642 c 0,110,111
 663 631 663 631 663 610 c 1,112,-1
 663 610 l 1,113,114
 663 610 663 610 663 609 c 0,115,116
 663 588 663 588 667 574 c 0,117,118
 675 547 675 547 675 520 c 0,119,120
 675 466 675 466 643 415 c 0,121,122
 621 382 621 382 592 359.5 c 128,-1,123
 563 337 563 337 534 330 c 1,124,-1
 534 321 l 1,125,126
 569 305 569 305 597.5 271.5 c 128,-1,127
 626 238 626 238 642 205.5 c 128,-1,128
 658 173 658 173 680.5 127 c 128,-1,129
 703 81 703 81 719 55 c 1,130,-1
 721 59 l 1,131,132
 736 71 736 71 756 107 c 0,133,134
 759 107 759 107 775.5 111 c 128,-1,135
 792 115 792 115 799 108.5 c 128,-1,136
 806 102 806 102 815 10 c 0,137,138
 820 -32 820 -32 820 -58 c 0,139,140
 820 -87 820 -87 814 -95 c 0,141,142
 803 -110 803 -110 779 -112 c 0,143,144
 777 -112 777 -112 776 -112 c 0,145,146
 752 -112 752 -112 717 -85 c 0,147,148
 680 -55 680 -55 666 -35.5 c 128,-1,149
 652 -16 652 -16 639.5 8 c 128,-1,150
 627 32 627 32 616 56 c 128,-1,151
 605 80 605 80 583 126 c 128,-1,152
 561 172 561 172 532 213.5 c 128,-1,153
 503 255 503 255 463 276 c 0,154,155
 442 287 442 287 416 287 c 0,156,157
 391 287 391 287 361 277 c 0,158,159
 349 272 349 272 319 272 c 0,160,161
 310 272 310 272 298 273 c 0,162,163
 290 273 290 273 283 273 c 0,164,165
 250 273 250 273 245 264 c 0,166,167
 242 261 242 261 239 187 c 0,168,169
 237 115 237 115 237 87 c 2,170,-1
 237 85 l 2,0,1
EndSplineSet
Validated: 5
EndChar

StartChar: S
Encoding: 83 83 22
Width: 749
GlyphClass: 2
Flags: W
LayerCount: 2
Fore
SplineSet
334 832 m 1,0,1
 344 833 344 833 353 833 c 0,2,3
 521 833 521 833 556 765 c 1,4,-1
 572 765 l 1,5,6
 579 781 579 781 588.5 787.5 c 128,-1,7
 598 794 598 794 620 793 c 1,8,9
 629 785 629 785 640.5 781 c 128,-1,10
 652 777 652 777 659.5 771 c 128,-1,11
 667 765 667 765 674 747 c 1,12,13
 668 734 668 734 643 707.5 c 128,-1,14
 618 681 618 681 586 655 c 0,15,16
 532 610 532 610 501 610 c 0,17,18
 487 610 487 610 478 618 c 0,19,20
 474 621 474 621 469 625 c 0,21,22
 469 626 469 626 469 626 c 2,23,24
 469 651 469 651 481 674 c 0,25,26
 493 698 493 698 495 710 c 1,27,28
 463 734 463 734 430 739 c 0,29,30
 418 741 418 741 407 741 c 0,31,32
 387 741 387 741 370 734 c 0,33,34
 343 724 343 724 324.5 701.5 c 128,-1,35
 306 679 306 679 300 652 c 0,36,37
 297 642 297 642 297 631 c 0,38,39
 297 612 297 612 305 591 c 0,40,41
 315 558 315 558 345 529 c 0,42,43
 347 526 347 526 354 518.5 c 128,-1,44
 361 511 361 511 369.5 503 c 128,-1,45
 378 495 378 495 393 494 c 1,46,47
 395 508 395 508 402.5 522 c 128,-1,48
 410 536 410 536 410 538 c 0,49,50
 416 539 416 539 421 540 c 0,51,52
 426 536 426 536 450.5 527.5 c 128,-1,53
 475 519 475 519 482 511 c 0,54,55
 493 502 493 502 493 485 c 0,56,57
 493 471 493 471 486 452 c 0,58,59
 481 439 481 439 491 424 c 0,60,61
 497 408 497 408 528.5 385.5 c 128,-1,62
 560 363 560 363 567 350 c 0,63,64
 605 288 605 288 615 204 c 0,65,66
 616 196 616 196 611.5 186.5 c 128,-1,67
 607 177 607 177 605 171.5 c 128,-1,68
 603 166 603 166 599.5 136 c 128,-1,69
 596 106 596 106 585 94 c 0,70,71
 547 54 547 54 518 32.5 c 128,-1,72
 489 11 489 11 415 -2 c 0,73,74
 359 -13 359 -13 301 -13 c 0,75,76
 282 -13 282 -13 262 -12 c 0,77,78
 185 -7 185 -7 148 18 c 0,79,80
 133 28 133 28 115.5 49.5 c 128,-1,81
 98 71 98 71 90 86 c 0,82,83
 85 96 85 96 85 115 c 0,84,85
 85 126 85 126 87 140 c 0,86,87
 88 151 88 151 88 160 c 0,88,89
 88 180 88 180 80 186 c 1,90,-1
 80 191 l 1,91,92
 76 190 76 190 72 190 c 0,93,94
 18 190 18 190 15 230 c 1,95,96
 19 235 19 235 23 250.5 c 128,-1,97
 27 266 27 266 32 271 c 0,98,99
 36 272 36 272 63 280 c 0,100,101
 73 284 73 284 91.5 293.5 c 128,-1,102
 110 303 110 303 130 311 c 0,103,104
 148 320 148 320 167 320 c 0,105,106
 195 320 195 320 225 302 c 0,107,108
 226 301 226 301 230.5 298.5 c 128,-1,109
 235 296 235 296 236 295 c 128,-1,110
 237 294 237 294 240.5 291.5 c 128,-1,111
 244 289 244 289 244.5 287.5 c 128,-1,112
 245 286 245 286 248 282 c 128,-1,113
 251 278 251 278 251 260 c 0,114,115
 249 259 249 259 246.5 255 c 128,-1,116
 244 251 244 251 239 246.5 c 128,-1,117
 234 242 234 242 218 239 c 128,-1,118
 202 236 202 236 192.5 228.5 c 128,-1,119
 183 221 183 221 183 201 c 1,120,121
 179 197 179 197 179 180 c 0,122,123
 179 172 179 172 180 161 c 0,124,125
 183 127 183 127 183 116 c 1,126,127
 190 110 190 110 211 90 c 1,128,129
 238 80 238 80 277 80 c 0,130,131
 308 80 308 80 346 86 c 0,132,133
 432 101 432 101 461.5 123 c 128,-1,134
 491 145 491 145 506 187 c 0,135,136
 517 219 517 219 517 235 c 0,137,138
 517 240 517 240 516 243 c 0,139,140
 511 257 511 257 503 272 c 128,-1,141
 495 287 495 287 479.5 308 c 128,-1,142
 464 329 464 329 460 335 c 1,143,144
 438 326 438 326 424 326 c 0,145,146
 415 326 415 326 410 330 c 0,147,148
 401 337 401 337 398.5 361 c 128,-1,149
 396 385 396 385 386.5 394.5 c 128,-1,150
 377 404 377 404 348 418 c 128,-1,151
 319 432 319 432 312 437 c 0,152,153
 252 478 252 478 212 562 c 0,154,155
 194 601 194 601 194 648 c 0,156,157
 194 649 194 649 194 650 c 0,158,159
 194 698 194 698 220 738 c 128,-1,160
 246 778 246 778 259.5 789 c 128,-1,161
 273 800 273 800 299 810 c 128,-1,162
 325 820 325 820 334 832 c 1,0,1
EndSplineSet
Validated: 1
EndChar

StartChar: T
Encoding: 84 84 23
Width: 862
GlyphClass: 2
Flags: W
LayerCount: 2
Fore
SplineSet
381 66 m 1,0,1
 394 65 394 65 409 65 c 256,2,3
 424 65 424 65 442 66 c 0,4,5
 451 67 451 67 460 67 c 0,6,7
 486 67 486 67 513 62 c 0,8,9
 550 57 550 57 560 42 c 0,10,11
 568 36 568 36 568 23 c 0,12,13
 568 14 568 14 565 3 c 1,14,15
 544 0 544 0 470 -3 c 128,-1,16
 396 -6 396 -6 364 -19 c 0,17,18
 351 -24 351 -24 336.5 -21 c 128,-1,19
 322 -18 322 -18 308 -15 c 128,-1,20
 294 -12 294 -12 283 -16 c 0,21,22
 275 -19 275 -19 254 -19 c 0,23,24
 246 -19 246 -19 235 -19 c 0,25,26
 199 -17 199 -17 194 -6 c 1,27,28
 181 3 181 3 181 25 c 1,29,30
 185 28 185 28 189 38 c 1,31,32
 197 41 197 41 234.5 47 c 128,-1,33
 272 53 272 53 279 62 c 0,34,35
 285 67 285 67 293 182 c 0,36,37
 301 293 301 293 301 345 c 0,38,39
 301 348 301 348 301 350 c 0,40,41
 286 352 286 352 275 360 c 128,-1,42
 264 368 264 368 261 370 c 0,43,44
 260 390 260 390 267 397 c 128,-1,45
 274 404 274 404 279 406.5 c 128,-1,46
 284 409 284 409 287 410.5 c 128,-1,47
 290 412 290 412 296.5 414.5 c 128,-1,48
 303 417 303 417 305 418 c 0,49,50
 306 426 306 426 306 442 c 0,51,52
 306 464 306 464 304 502 c 0,53,54
 303 534 303 534 303 562 c 0,55,56
 303 666 303 666 318 695 c 1,57,58
 304 701 304 701 207 705 c 0,59,60
 170 706 170 706 146 706 c 0,61,62
 108 706 108 706 104 703 c 0,63,64
 97 697 97 697 93 683.5 c 128,-1,65
 89 670 89 670 78 666 c 0,66,67
 76 667 76 667 61.5 671 c 128,-1,68
 47 675 47 675 43 679 c 0,69,70
 35 686 35 686 23 749 c 0,71,72
 15 792 15 792 15 812 c 0,73,74
 15 822 15 822 17 826 c 256,75,76
 19 830 19 830 25.5 837 c 128,-1,77
 32 844 32 844 34 850 c 1,78,79
 43 850 43 850 50 850 c 0,80,81
 66 850 66 850 75 848 c 0,82,83
 87 846 87 846 106 834 c 0,84,85
 107 831 107 831 108.5 815.5 c 128,-1,86
 110 800 110 800 111 800 c 0,87,88
 118 793 118 793 141 793 c 0,89,90
 166 793 166 793 210 800 c 0,91,92
 221 802 221 802 232 802 c 0,93,94
 251 802 251 802 271 797 c 0,95,96
 301 790 301 790 369 790 c 2,97,-1
 374 790 l 2,98,99
 445 790 445 790 467 797 c 0,100,101
 487 803 487 803 515 803 c 0,102,103
 519 803 519 803 523 803 c 0,104,105
 532 803 532 803 540 803 c 0,106,107
 560 803 560 803 570 805 c 0,108,109
 576 806 576 806 590 806 c 0,110,111
 605 806 605 806 628 804 c 0,112,113
 637 804 637 804 644 804 c 0,114,115
 675 804 675 804 685 813 c 0,116,117
 692 817 692 817 713 854 c 0,118,119
 717 854 717 854 721 854 c 0,120,121
 743 854 743 854 752 850 c 0,122,123
 762 845 762 845 772 839 c 128,-1,124
 782 833 782 833 787 830 c 1,125,126
 786 787 786 787 777 727.5 c 128,-1,127
 768 668 768 668 755 636 c 1,128,129
 725 636 725 636 713 642.5 c 128,-1,130
 701 649 701 649 701 657 c 0,131,132
 701 659 701 659 701 660 c 0,133,134
 701 690 701 690 689 703 c 0,135,136
 682 709 682 709 641 709 c 0,137,138
 618 709 618 709 585 707 c 0,139,140
 492 702 492 702 478 698 c 0,141,142
 470 696 470 696 456 696 c 0,143,144
 448 696 448 696 438 697 c 0,145,146
 411 699 411 699 408 693 c 0,147,148
 409 691 409 691 409 678 c 0,149,150
 409 650 409 650 403 569 c 0,151,152
 400 522 400 522 400 491 c 0,153,154
 400 444 400 444 408 435 c 0,155,156
 414 425 414 425 432.5 419.5 c 128,-1,157
 451 414 451 414 453 413 c 0,158,159
 454 410 454 410 458 397.5 c 128,-1,160
 462 385 462 385 462 374 c 1,161,-1
 458 374 l 1,162,163
 451 365 451 365 429 359.5 c 128,-1,164
 407 354 407 354 403 352 c 2,165,-1
 381 66 l 1,0,1
EndSplineSet
Validated: 1
EndChar

StartChar: U
Encoding: 85 85 24
Width: 878
GlyphClass: 2
Flags: W
LayerCount: 2
Fore
SplineSet
727 816 m 0,0,1
 730 816 730 816 733 816 c 0,2,3
 753 816 753 816 772 810 c 0,4,5
 793 804 793 804 799 790 c 0,6,7
 804 785 804 785 803 768 c 1,8,9
 794 764 794 764 769.5 751 c 128,-1,10
 745 738 745 738 731 733 c 1,11,12
 731 696 731 696 736 624 c 0,13,14
 740 563 740 563 740 514 c 0,15,16
 740 441 740 441 731 395 c 0,17,18
 731 394 731 394 731 392 c 0,19,20
 731 383 731 383 734 354 c 0,21,22
 735 345 735 345 735 338 c 0,23,24
 735 316 735 316 727 308 c 1,25,26
 729 304 729 304 729 287 c 0,27,28
 729 279 729 279 729 268 c 0,29,30
 727 235 727 235 718.5 212 c 128,-1,31
 710 189 710 189 694 154 c 128,-1,32
 678 119 678 119 671.5 99.5 c 128,-1,33
 665 80 665 80 655 70 c 0,34,35
 602 17 602 17 525 0 c 0,36,37
 484 -9 484 -9 444 -9 c 0,38,39
 339 -9 339 -9 236 53 c 0,40,41
 145 107 145 107 127 176 c 0,42,43
 121 197 121 197 116 222.5 c 128,-1,44
 111 248 111 248 109 257 c 0,45,46
 108 271 108 271 106 298.5 c 128,-1,47
 104 326 104 326 102 340 c 0,48,49
 97 349 97 349 65.5 349.5 c 128,-1,50
 34 350 34 350 28 360 c 1,51,52
 15 368 15 368 15 396 c 0,53,54
 15 398 15 398 15 401 c 0,55,56
 20 405 20 405 24 412 c 1,57,58
 86 413 86 413 98 414 c 1,59,-1
 98 583 l 1,60,61
 104 605 104 605 104 642 c 0,62,63
 104 644 104 644 104 646 c 0,64,65
 104 685 104 685 98 709 c 1,66,-1
 73 712 l 2,67,68
 47 714 47 714 41 724 c 0,69,70
 38 727 38 727 31.5 732 c 128,-1,71
 25 737 25 737 24 738 c 0,72,73
 23 765 23 765 28.5 768.5 c 128,-1,74
 34 772 34 772 119 788 c 0,75,76
 193 803 193 803 208 803 c 0,77,78
 210 803 210 803 211 803 c 0,79,80
 217 800 217 800 225 796 c 128,-1,81
 233 792 233 792 242 785.5 c 128,-1,82
 251 779 251 779 255 777 c 0,83,84
 256 773 256 773 257.5 766 c 128,-1,85
 259 759 259 759 260 755 c 0,86,87
 256 752 256 752 238.5 736.5 c 128,-1,88
 221 721 221 721 201 711 c 1,89,90
 201 699 201 699 198 627 c 0,91,92
 197 612 197 612 197 597 c 0,93,94
 197 547 197 547 205 515 c 0,95,96
 207 508 207 508 207 495 c 0,97,98
 207 483 207 483 205 465 c 0,99,100
 205 454 205 454 205 446 c 0,101,102
 205 425 205 425 209 417 c 0,103,104
 213 416 213 416 223.5 416 c 128,-1,105
 234 416 234 416 246 415 c 128,-1,106
 258 414 258 414 264 401 c 1,107,108
 274 393 274 393 274 377 c 0,109,110
 274 367 274 367 271 353 c 1,111,112
 258 351 258 351 209 338 c 0,113,114
 209 334 209 334 209 329 c 0,115,116
 209 221 209 221 254 157 c 0,117,118
 277 123 277 123 324 97 c 128,-1,119
 371 71 371 71 427 67 c 0,120,121
 432 67 432 67 438 67 c 0,122,123
 488 67 488 67 537 98 c 0,124,125
 593 133 593 133 611 224 c 0,126,127
 629 312 629 312 629 471 c 0,128,129
 629 476 629 476 629 482 c 0,130,131
 629 485 629 485 629 488 c 0,132,133
 629 524 629 524 630 605 c 0,134,135
 631 623 631 623 631 639 c 0,136,137
 631 694 631 694 626 700 c 0,138,139
 620 709 620 709 597.5 712.5 c 128,-1,140
 575 716 575 716 570 722 c 0,141,142
 568 728 568 728 568 734 c 0,143,144
 568 749 568 749 581 760 c 0,145,146
 601 776 601 776 629 783 c 0,147,148
 715 805 715 805 727 816 c 0,0,1
EndSplineSet
Validated: 1
EndChar

StartChar: V
Encoding: 86 86 25
Width: 958
GlyphClass: 2
Flags: W
LayerCount: 2
Fore
SplineSet
594 79 m 1,0,1
 596 79 596 79 598 79 c 0,2,3
 629 79 629 79 656 56 c 0,4,5
 671 41 671 41 671 28 c 0,6,7
 671 14 671 14 655 3 c 0,8,9
 647 -6 647 -6 557 -6 c 0,10,11
 531 -6 531 -6 500 -6 c 0,12,13
 355 -2 355 -2 340 11.5 c 128,-1,14
 325 25 325 25 327 37 c 128,-1,15
 329 49 329 49 331 54 c 128,-1,16
 333 59 333 59 338 69.5 c 128,-1,17
 343 80 343 80 345 83 c 0,18,19
 362 83 362 83 377 83 c 0,20,21
 433 83 433 83 443 88 c 1,22,-1
 443 90 l 1,23,24
 439 103 439 103 419.5 132.5 c 128,-1,25
 400 162 400 162 303 345 c 0,26,27
 298 346 298 346 278 347.5 c 128,-1,28
 258 349 258 349 247 351 c 0,29,30
 215 356 215 356 207 374 c 0,31,32
 200 380 200 380 201.5 386.5 c 128,-1,33
 203 393 203 393 204.5 399.5 c 128,-1,34
 206 406 206 406 207 409 c 0,35,36
 217 411 217 411 235.5 415.5 c 128,-1,37
 254 420 254 420 264 422 c 1,38,-1
 264 431 l 1,39,40
 252 443 252 443 240 477 c 128,-1,41
 228 511 228 511 221 525.5 c 128,-1,42
 214 540 214 540 188 578 c 128,-1,43
 162 616 162 616 154.5 629.5 c 128,-1,44
 147 643 147 643 140 665 c 128,-1,45
 133 687 133 687 126 697 c 1,46,47
 97 697 97 697 72 696 c 2,48,-1
 71 696 l 2,49,50
 47 696 47 696 31 709 c 0,51,52
 15 721 15 721 15 747 c 0,53,54
 15 748 15 748 15 749 c 0,55,56
 36 764 36 764 95 780 c 0,57,58
 149 794 149 794 204 794 c 0,59,60
 207 794 207 794 210 794 c 0,61,62
 268 793 268 793 277 765 c 0,63,64
 282 760 282 760 282 749 c 128,-1,65
 282 738 282 738 277 734 c 0,66,67
 272 725 272 725 255 717 c 128,-1,68
 238 709 238 709 233 701 c 1,69,70
 266 668 266 668 298 602 c 128,-1,71
 330 536 330 536 336 525 c 128,-1,72
 342 514 342 514 355.5 478 c 128,-1,73
 369 442 369 442 382 435 c 0,74,75
 386 432 386 432 414 429 c 128,-1,76
 442 426 442 426 452 417 c 0,77,78
 470 405 470 405 470 394 c 0,79,80
 470 390 470 390 468 386 c 0,81,82
 458 371 458 371 442.5 360 c 128,-1,83
 427 349 427 349 423 345 c 1,84,85
 432 329 432 329 463.5 279.5 c 128,-1,86
 495 230 495 230 504 190 c 1,87,-1
 513 190 l 1,88,89
 516 216 516 216 531 241.5 c 128,-1,90
 546 267 546 267 551.5 279.5 c 128,-1,91
 557 292 557 292 566 351.5 c 128,-1,92
 575 411 575 411 584 424.5 c 128,-1,93
 593 438 593 438 600 454.5 c 128,-1,94
 607 471 607 471 617 498.5 c 128,-1,95
 627 526 627 526 628 529 c 0,96,97
 631 554 631 554 633 570 c 1,98,99
 679 674 679 674 687 747 c 0,100,101
 685 749 685 749 683 751 c 0,102,103
 675 751 675 751 669 751 c 0,104,105
 651 751 651 751 646 755 c 0,106,107
 639 760 639 760 633 765 c 0,108,109
 633 767 633 767 633 769 c 0,110,111
 633 790 633 790 639 804 c 1,112,113
 736 826 736 826 794 826 c 0,114,115
 878 826 878 826 884 780 c 0,116,117
 883 778 883 778 878.5 768.5 c 128,-1,118
 874 759 874 759 864 756 c 1,119,120
 855 747 855 747 832.5 746.5 c 128,-1,121
 810 746 810 746 803 738 c 0,122,123
 784 722 784 722 773.5 666 c 128,-1,124
 763 610 763 610 751.5 584.5 c 128,-1,125
 740 559 740 559 713 481 c 128,-1,126
 686 403 686 403 677.5 382 c 128,-1,127
 669 361 669 361 667.5 337.5 c 128,-1,128
 666 314 666 314 661 300 c 128,-1,129
 656 286 656 286 636 239 c 0,130,131
 595 143 595 143 594 79 c 1,0,1
EndSplineSet
Validated: 1
EndChar

StartChar: W
Encoding: 87 87 26
Width: 1388
GlyphClass: 2
Flags: W
LayerCount: 2
Fore
SplineSet
1106 839 m 1,0,1
 1124 834 1124 834 1159 831 c 0,2,3
 1173 830 1173 830 1185 830 c 0,4,5
 1203 830 1203 830 1217 833 c 0,6,7
 1239 839 1239 839 1252 839 c 0,8,9
 1258 839 1258 839 1261 838 c 0,10,11
 1273 833 1273 833 1281.5 827.5 c 128,-1,12
 1290 822 1290 822 1298.5 814 c 128,-1,13
 1307 806 1307 806 1313 802 c 1,14,15
 1315 778 1315 778 1309 772 c 1,16,-1
 1309 767 l 1,17,18
 1294 768 1294 768 1281 768 c 0,19,20
 1226 768 1226 768 1219 756 c 0,21,22
 1222 754 1222 754 1222 748 c 0,23,24
 1222 736 1222 736 1211 712 c 0,25,26
 1194 676 1194 676 1185 657.5 c 128,-1,27
 1176 639 1176 639 1165 617.5 c 128,-1,28
 1154 596 1154 596 1139.5 566.5 c 128,-1,29
 1125 537 1125 537 1096.5 471.5 c 128,-1,30
 1068 406 1068 406 1033.5 324 c 128,-1,31
 999 242 999 242 987 215.5 c 128,-1,32
 975 189 975 189 958 161 c 0,33,34
 923 106 923 106 923 81 c 0,35,36
 923 76 923 76 925 73 c 0,37,38
 928 73 928 73 932 73 c 0,39,40
 962 73 962 73 980 60 c 0,41,42
 1001 46 1001 46 1001 16 c 1,43,-1
 1001 16 l 1,44,45
 998 15 998 15 992 9 c 128,-1,46
 986 3 986 3 979 1 c 0,47,48
 971 -6 971 -6 938 -6 c 0,49,50
 898 -6 898 -6 819 4 c 0,51,52
 773 10 773 10 756 14 c 1,53,54
 755 24 755 24 755 35.5 c 128,-1,55
 755 47 755 47 756 60 c 1,56,57
 796 64 796 64 796 90 c 1,58,-1
 796 90 l 1,59,60
 787 96 787 96 784 107 c 128,-1,61
 781 118 781 118 778 123.5 c 128,-1,62
 775 129 775 129 763 139 c 128,-1,63
 751 149 751 149 748 153 c 128,-1,64
 745 157 745 157 714.5 204.5 c 128,-1,65
 684 252 684 252 663 269 c 0,66,67
 659 270 659 270 654 272 c 1,68,69
 586 194 586 194 556 138.5 c 128,-1,70
 526 83 526 83 503 69 c 1,71,72
 505 59 505 59 514.5 43.5 c 128,-1,73
 524 28 524 28 525 12 c 1,74,75
 519 7 519 7 516 -3 c 1,76,77
 446 -16 446 -16 396 -16 c 0,78,79
 384 -16 384 -16 374 -15 c 0,80,81
 317 -11 317 -11 298 3 c 1,82,83
 296 17 296 17 296 29 c 0,84,85
 296 46 296 46 300 60 c 1,86,87
 343 60 343 60 370 73 c 1,88,-1
 370 75 l 1,89,90
 350 169 350 169 274 330 c 0,91,92
 235 411 235 411 227.5 428.5 c 128,-1,93
 220 446 220 446 196.5 507.5 c 128,-1,94
 173 569 173 569 162 589 c 128,-1,95
 151 609 151 609 138 646 c 0,96,97
 105 739 105 739 84 745 c 1,98,99
 76 754 76 754 47.5 758.5 c 128,-1,100
 19 763 19 763 19 763 c 1,101,102
 15 779 15 779 15 789 c 0,103,104
 15 803 15 803 20 808 c 0,105,106
 30 819 30 819 100 825 c 0,107,108
 125 827 125 827 142 827 c 0,109,110
 174 827 174 827 182 820 c 0,111,112
 213 804 213 804 213 766 c 0,113,114
 213 765 213 765 213 763 c 2,115,-1
 208 763 l 2,116,117
 205 760 205 760 198.5 757 c 128,-1,118
 192 754 192 754 191 739 c 1,119,120
 214 719 214 719 257 597 c 0,121,122
 276 544 276 544 288.5 514.5 c 128,-1,123
 301 485 301 485 344.5 393.5 c 128,-1,124
 388 302 388 302 397 282 c 128,-1,125
 406 262 406 262 418.5 213.5 c 128,-1,126
 431 165 431 165 442 143 c 1,127,128
 444 146 444 146 444 147 c 0,129,130
 455 154 455 154 522.5 246.5 c 128,-1,131
 590 339 590 339 593 352 c 1,132,133
 566 355 566 355 560 368 c 0,134,135
 554 372 554 372 552 381 c 128,-1,136
 550 390 550 390 556 396 c 0,137,138
 562 409 562 409 605 422 c 128,-1,139
 648 435 648 435 688 438 c 0,140,141
 695 439 695 439 702 439 c 0,142,143
 732 439 732 439 750 427 c 0,144,145
 770 415 770 415 770 381 c 0,146,147
 770 379 770 379 770 376 c 0,148,149
 767 374 767 374 765 370 c 0,150,151
 727 363 727 363 704 359 c 1,152,-1
 704 352 l 1,153,154
 721 339 721 339 751.5 296 c 128,-1,155
 782 253 782 253 810 215.5 c 128,-1,156
 838 178 838 178 855 173 c 1,157,158
 899 259 899 259 997 475 c 0,159,160
 1001 485 1001 485 1005 506 c 128,-1,161
 1009 527 1009 527 1014.5 538.5 c 128,-1,162
 1020 550 1020 550 1050 602 c 0,163,164
 1118 720 1118 720 1121 767 c 1,165,166
 1106 773 1106 773 1091 791 c 0,167,168
 1084 801 1084 801 1084 809 c 256,169,170
 1084 817 1084 817 1090 824 c 0,171,172
 1093 829 1093 829 1106 839 c 1,0,1
EndSplineSet
Validated: 1
EndChar

StartChar: X
Encoding: 88 88 27
Width: 909
GlyphClass: 2
Flags: W
LayerCount: 2
Fore
SplineSet
336 753 m 1,0,-1
 256 732 l 1,1,-1
 256 723 l 1,2,3
 273 710 273 710 318.5 641 c 128,-1,4
 364 572 364 572 384 535 c 1,5,-1
 393 535 l 1,6,7
 412 568 412 568 432.5 591.5 c 128,-1,8
 453 615 453 615 462.5 626 c 128,-1,9
 472 637 472 637 527 693 c 0,10,11
 577 743 577 743 577 754 c 0,12,13
 577 755 577 755 576 756 c 0,14,15
 572 760 572 760 556.5 761.5 c 128,-1,16
 541 763 541 763 537 768 c 128,-1,17
 533 773 533 773 532 783.5 c 128,-1,18
 531 794 531 794 532 802 c 128,-1,19
 533 810 533 810 535 823.5 c 128,-1,20
 537 837 537 837 537 839 c 1,21,22
 547 839 547 839 595 845 c 0,23,24
 638 851 638 851 688 851 c 0,25,26
 694 851 694 851 701 851 c 0,27,28
 758 850 758 850 769 817 c 0,29,30
 774 812 774 812 773 795 c 0,31,32
 770 793 770 793 762.5 783.5 c 128,-1,33
 755 774 755 774 749.5 771.5 c 128,-1,34
 744 769 744 769 735.5 768.5 c 128,-1,35
 727 768 727 768 718 760.5 c 128,-1,36
 709 753 709 753 695.5 735.5 c 128,-1,37
 682 718 682 718 666.5 695 c 128,-1,38
 651 672 651 672 641.5 658.5 c 128,-1,39
 632 645 632 645 599.5 615 c 128,-1,40
 567 585 567 585 555 568 c 0,41,42
 500 493 500 493 491 487 c 1,43,44
 502 473 502 473 542 450 c 1,45,-1
 542 420 l 1,46,47
 521 405 521 405 478 389 c 1,48,49
 480 386 480 386 483 385 c 0,50,51
 489 356 489 356 536 311 c 0,52,53
 556 291 556 291 566 278.5 c 128,-1,54
 576 266 576 266 593.5 228 c 128,-1,55
 611 190 611 190 625 160.5 c 128,-1,56
 639 131 639 131 665.5 107 c 128,-1,57
 692 83 692 83 725 83 c 1,58,-1
 725 83 l 1,59,60
 737 80 737 80 773 74 c 128,-1,61
 809 68 809 68 830 59 c 0,62,63
 830 55 830 55 832 46.5 c 128,-1,64
 834 38 834 38 834 35 c 0,65,66
 831 32 831 32 826 21 c 128,-1,67
 821 10 821 10 812 7 c 1,68,69
 803 -2 803 -2 781 -2 c 0,70,71
 776 -2 776 -2 770 -1 c 0,72,73
 756 0 756 0 744 0 c 0,74,75
 729 0 729 0 718 -2 c 0,76,77
 705 -6 705 -6 670 -6 c 0,78,79
 625 -6 625 -6 545 1 c 0,80,81
 528 2 528 2 526 3 c 0,82,83
 523 12 523 12 523 22 c 0,84,85
 523 38 523 38 531 57 c 0,86,87
 545 88 545 88 546 96 c 1,88,89
 526 114 526 114 504 161 c 128,-1,90
 482 208 482 208 473 222 c 128,-1,91
 464 236 464 236 431 274 c 128,-1,92
 398 312 398 312 384 337 c 1,93,-1
 376 337 l 1,94,95
 363 308 363 308 325.5 261.5 c 128,-1,96
 288 215 288 215 257 170.5 c 128,-1,97
 226 126 226 126 221 94 c 1,98,-1
 225 94 l 2,99,100
 232 92 232 92 249 87 c 128,-1,101
 266 82 266 82 279.5 73.5 c 128,-1,102
 293 65 293 65 293 40 c 2,103,-1
 293 37 l 1,104,105
 289 33 289 33 281.5 25 c 128,-1,106
 274 17 274 17 273 16 c 0,107,108
 244 -1 244 -1 143 -2 c 0,109,110
 138 -2 138 -2 133 -2 c 0,111,112
 40 -2 40 -2 24 16 c 0,113,114
 15 23 15 23 15 36 c 0,115,116
 15 52 15 52 28 77 c 0,117,118
 32 84 32 84 33 86 c 0,119,120
 39 86 39 86 60 89.5 c 128,-1,121
 81 93 81 93 92 94 c 1,122,123
 127 163 127 163 168 222.5 c 128,-1,124
 209 282 209 282 236.5 321.5 c 128,-1,125
 264 361 264 361 273 374 c 1,126,-1
 269 374 l 2,127,128
 258 375 258 375 239 377 c 128,-1,129
 220 379 220 379 212 380 c 0,130,131
 211 382 211 382 199 415 c 0,132,133
 200 418 200 418 202.5 428.5 c 128,-1,134
 205 439 205 439 210 444 c 0,135,136
 218 453 218 453 258.5 455 c 128,-1,137
 299 457 299 457 304 459 c 1,138,-1
 304 461 l 1,139,140
 287 486 287 486 250 547.5 c 128,-1,141
 213 609 213 609 190 642 c 0,142,143
 186 648 186 648 169 662 c 128,-1,144
 152 676 152 676 148.5 683.5 c 128,-1,145
 145 691 145 691 147.5 708 c 128,-1,146
 150 725 150 725 142 727 c 1,147,148
 132 716 132 716 109 716 c 0,149,150
 96 716 96 716 78 721 c 0,151,152
 60 724 60 724 50 729 c 1,153,154
 50 767 50 767 70 804 c 1,155,156
 94 806 94 806 138 814 c 128,-1,157
 182 822 182 822 206 825 c 0,158,159
 214 826 214 826 224 826 c 0,160,161
 243 826 243 826 267 822 c 0,162,163
 304 816 304 816 336 797 c 1,164,-1
 336 753 l 1,0,-1
EndSplineSet
Validated: 1
EndChar

StartChar: Y
Encoding: 89 89 28
Width: 923
GlyphClass: 2
Flags: W
LayerCount: 2
Fore
SplineSet
380 226 m 1,0,1
 356 223 356 223 332 221 c 1,2,3
 327 244 327 244 327 264 c 128,-1,4
 327 284 327 284 332 302 c 1,5,6
 342 304 342 304 353 313 c 128,-1,7
 364 322 364 322 366 324 c 0,8,9
 361 362 361 362 312 409 c 0,10,11
 287 433 287 433 281 439 c 0,12,13
 275 451 275 451 252.5 492.5 c 128,-1,14
 230 534 230 534 153 649 c 0,15,16
 148 656 148 656 131.5 672.5 c 128,-1,17
 115 689 115 689 109 701 c 1,18,19
 90 697 90 697 73 697 c 0,20,21
 66 697 66 697 60 698 c 0,22,23
 38 700 38 700 32 706 c 0,24,25
 15 719 15 719 15 749 c 1,26,27
 79 786 79 786 148 786 c 0,28,29
 198 786 198 786 251 767 c 0,30,31
 252 763 252 763 255 750 c 128,-1,32
 258 737 258 737 259 730 c 0,33,34
 258 727 258 727 250.5 718.5 c 128,-1,35
 243 710 243 710 242 697 c 1,36,37
 256 688 256 688 271 658 c 128,-1,38
 286 628 286 628 298.5 613 c 128,-1,39
 311 598 311 598 338 552.5 c 128,-1,40
 365 507 365 507 374 494 c 128,-1,41
 383 481 383 481 410.5 451.5 c 128,-1,42
 438 422 438 422 447 402 c 1,43,44
 464 410 464 410 483 463 c 0,45,46
 491 485 491 485 498 496.5 c 128,-1,47
 505 508 505 508 529.5 539 c 128,-1,48
 554 570 554 570 562.5 584.5 c 128,-1,49
 571 599 571 599 588 636 c 0,50,51
 625 715 625 715 657 741 c 1,52,53
 657 741 657 741 655 745 c 1,54,55
 644 744 644 744 635 744 c 0,56,57
 616 744 616 744 602 749 c 1,58,59
 598 771 598 771 598 785 c 0,60,61
 598 787 598 787 598 790 c 0,62,63
 599 804 599 804 607 826 c 0,64,65
 608 826 608 826 609 826 c 0,66,67
 619 826 619 826 656 823 c 0,68,69
 670 821 670 821 681 821 c 0,70,71
 702 821 702 821 709 826 c 0,72,73
 722 830 722 830 739 840 c 128,-1,74
 756 850 756 850 767 856.5 c 128,-1,75
 778 863 778 863 798 866 c 0,76,77
 803 867 803 867 809 867 c 0,78,79
 822 867 822 867 834 861 c 1,80,-1
 834 848 l 1,81,-1
 847 848 l 1,82,83
 848 840 848 840 849 832 c 1,84,85
 834 810 834 810 821 791 c 0,86,87
 817 789 817 789 797.5 779.5 c 128,-1,88
 778 770 778 770 772 758 c 0,89,90
 770 755 770 755 771 738.5 c 128,-1,91
 772 722 772 722 768 712 c 0,92,93
 751 675 751 675 681.5 573.5 c 128,-1,94
 612 472 612 472 602 457 c 1,95,96
 597 442 597 442 589 418 c 0,97,98
 584 409 584 409 562.5 380.5 c 128,-1,99
 541 352 541 352 537 322 c 1,100,101
 561 311 561 311 565 287 c 0,102,103
 566 283 566 283 566 280 c 0,104,105
 566 260 566 260 545 247 c 0,106,107
 534 241 534 241 511.5 240 c 128,-1,108
 489 239 489 239 482 236 c 1,109,110
 478 200 478 200 478 167 c 0,111,112
 478 155 478 155 478 144 c 0,113,114
 480 101 480 101 487 88 c 0,115,116
 489 88 489 88 492 88 c 0,117,118
 528 88 528 88 553 75 c 0,119,120
 561 71 561 71 580 60 c 1,121,-1
 580 29 l 1,122,123
 571 27 571 27 558 16 c 128,-1,124
 545 5 545 5 535 3 c 0,125,126
 529 2 529 2 501 2 c 0,127,128
 475 2 475 2 427 3 c 0,129,130
 330 5 330 5 327 7 c 0,131,132
 314 14 314 14 310 40 c 0,133,134
 310 46 310 46 310 52 c 0,135,136
 310 68 310 68 316 76 c 0,137,138
 326 88 326 88 351.5 88.5 c 128,-1,139
 377 89 377 89 380 90 c 0,140,141
 380 91 380 91 384 152 c 0,142,143
 385 172 385 172 385 187 c 0,144,145
 385 216 385 216 380 221 c 1,146,-1
 380 226 l 1,0,1
EndSplineSet
Validated: 1
EndChar

StartChar: Z
Encoding: 90 90 29
Width: 943
GlyphClass: 2
Flags: W
LayerCount: 2
Fore
SplineSet
229 428 m 1,0,1
 233 435 233 435 238 441 c 0,2,3
 243 441 243 441 292 439 c 0,4,5
 303 439 303 439 312 439 c 0,6,7
 345 439 345 439 360 445 c 0,8,9
 378 453 378 453 392 468 c 128,-1,10
 406 483 406 483 423.5 510 c 128,-1,11
 441 537 441 537 451.5 550.5 c 128,-1,12
 462 564 462 564 484 588 c 128,-1,13
 506 612 506 612 534 640 c 128,-1,14
 562 668 562 668 576 684 c 1,15,-1
 576 686 l 1,16,17
 540 691 540 691 422 692.5 c 128,-1,18
 304 694 304 694 264 708 c 0,19,20
 249 713 249 713 223 713 c 0,21,22
 216 713 216 713 209 713 c 0,23,24
 172 711 172 711 167.5 706 c 128,-1,25
 163 701 163 701 160.5 695 c 128,-1,26
 158 689 158 689 155.5 682 c 128,-1,27
 153 675 153 675 153 673 c 0,28,29
 135 669 135 669 123 669 c 0,30,31
 103 669 103 669 98 679 c 1,32,33
 75 699 75 699 65 753 c 0,34,35
 60 783 60 783 60 810 c 0,36,37
 60 831 60 831 63 850 c 1,38,39
 80 858 80 858 85 861 c 1,40,41
 93 857 93 857 112 853 c 0,42,43
 153 846 153 846 161 828 c 0,44,45
 165 820 165 820 162 810.5 c 128,-1,46
 159 801 159 801 166 795 c 1,47,48
 226 794 226 794 294 793 c 1,49,50
 395 775 395 775 518 775 c 0,51,52
 581 775 581 775 650 780 c 1,53,54
 703 788 703 788 797 802 c 1,55,56
 852 781 852 781 855 780 c 0,57,58
 858 777 858 777 861 770 c 128,-1,59
 864 763 864 763 869 760 c 1,60,61
 867 741 867 741 860 734 c 0,62,63
 853 718 853 718 835 714.5 c 128,-1,64
 817 711 817 711 794 711 c 128,-1,65
 771 711 771 711 754 701.5 c 128,-1,66
 737 692 737 692 717 676.5 c 128,-1,67
 697 661 697 661 677 639.5 c 128,-1,68
 657 618 657 618 644.5 603 c 128,-1,69
 632 588 632 588 610 560 c 128,-1,70
 588 532 588 532 581.5 523.5 c 128,-1,71
 575 515 575 515 560 503 c 0,72,73
 529 478 529 478 526 450 c 1,74,75
 543 448 543 448 554 434.5 c 128,-1,76
 565 421 565 421 565 402 c 1,77,-1
 565 402 l 1,78,79
 562 398 562 398 556 389.5 c 128,-1,80
 550 381 550 381 548 378 c 0,81,82
 449 370 449 370 447 369 c 0,83,84
 434 363 434 363 414.5 337 c 128,-1,85
 395 311 395 311 392 307.5 c 128,-1,86
 389 304 389 304 355.5 271.5 c 128,-1,87
 322 239 322 239 298.5 215 c 128,-1,88
 275 191 275 191 252 161 c 128,-1,89
 229 131 229 131 227 116 c 1,90,91
 243 110 243 110 291 105.5 c 128,-1,92
 339 101 339 101 358 94 c 1,93,-1
 401 94 l 1,94,95
 426 84 426 84 503 62.5 c 128,-1,96
 580 41 580 41 615 22 c 0,97,98
 619 20 619 20 651 0 c 0,99,100
 711 -37 711 -37 743 -37 c 0,101,102
 746 -37 746 -37 748 -37 c 0,103,104
 751 -22 751 -22 755 8 c 128,-1,105
 759 38 759 38 762 53 c 1,106,107
 785 64 785 64 792 68 c 0,108,109
 796 67 796 67 842 53 c 0,110,111
 845 50 845 50 853 -28 c 0,112,113
 860 -90 860 -90 860 -106 c 0,114,115
 860 -110 860 -110 860 -111 c 0,116,117
 848 -138 848 -138 801 -138 c 0,118,119
 790 -138 790 -138 777 -137 c 0,120,121
 755 -134 755 -134 722 -121.5 c 128,-1,122
 689 -109 689 -109 658.5 -103 c 128,-1,123
 628 -97 628 -97 613 -90 c 128,-1,124
 598 -83 598 -83 569.5 -64 c 128,-1,125
 541 -45 541 -45 526 -39 c 0,126,127
 466 -13 466 -13 339 12 c 0,128,129
 266 26 266 26 220 26 c 0,130,131
 185 26 185 26 166 18 c 0,132,133
 154 13 154 13 128.5 0 c 128,-1,134
 103 -13 103 -13 91 -17 c 0,135,136
 78 -22 78 -22 67 -22 c 0,137,138
 48 -22 48 -22 35 -7 c 0,139,140
 15 17 15 17 15 51 c 0,141,142
 15 52 15 52 15 53 c 0,143,144
 36 68 36 68 56.5 98.5 c 128,-1,145
 77 129 77 129 81 134 c 0,146,147
 89 141 89 141 105.5 155 c 128,-1,148
 122 169 122 169 124.5 171.5 c 128,-1,149
 127 174 127 174 251 315 c 0,150,151
 254 319 254 319 267 337.5 c 128,-1,152
 280 356 280 356 290 363 c 1,153,-1
 290 369 l 1,154,155
 286 372 286 372 272 379 c 128,-1,156
 258 386 258 386 245 396.5 c 128,-1,157
 232 407 232 407 229 428 c 1,0,1
EndSplineSet
Validated: 1
EndChar

StartChar: a
Encoding: 97 97 36
Width: 996
GlyphClass: 2
Flags: W
LayerCount: 2
Fore
SplineSet
440 629 m 1,0,1
 440 628 440 628 427 602 c 0,2,3
 329 401 329 401 329 350 c 0,4,5
 329 344 329 344 330 340 c 0,6,7
 395 311 395 311 485 243 c 1,8,9
 567 288 567 288 591 321 c 1,10,11
 567 355 567 355 534 429 c 128,-1,12
 501 503 501 503 494 517 c 128,-1,13
 487 531 487 531 472 572.5 c 128,-1,14
 457 614 457 614 440 629 c 1,0,1
237 -6 m 2,15,-1
 175 -2 l 1,16,17
 164 -6 164 -6 159 -9 c 0,18,19
 153 -13 153 -13 149 -16 c 128,-1,20
 145 -19 145 -19 127 -11 c 0,21,22
 113 -5 113 -5 87 -5 c 0,23,24
 80 -5 80 -5 73 -5 c 256,25,26
 66 -5 66 -5 61 -5 c 0,27,28
 35 -5 35 -5 31 2 c 0,29,30
 15 13 15 13 15 36 c 0,31,32
 15 41 15 41 16 47 c 1,33,34
 28 55 28 55 36 73 c 1,35,36
 63 76 63 76 63 76 c 2,37,38
 80 78 80 78 89 79 c 0,39,40
 100 86 100 86 139 181 c 0,41,42
 178 277 178 277 181 303 c 0,43,44
 178 305 178 305 177 308 c 0,45,46
 172 309 172 309 155 312 c 0,47,48
 58 332 58 332 48 350 c 0,49,50
 44 356 44 356 45 371 c 1,51,52
 61 379 61 379 75 404 c 1,53,54
 100 407 100 407 123 407 c 0,55,56
 178 407 178 407 214 386 c 1,57,58
 233 398 233 398 249 450 c 0,59,60
 265 501 265 501 270 511 c 0,61,62
 297 561 297 561 332 655 c 0,63,64
 371 759 371 759 401 804 c 1,65,66
 414 806 414 806 428 806 c 0,67,68
 438 806 438 806 449 805 c 0,69,70
 477 802 477 802 485 787 c 0,71,72
 494 777 494 777 501 755 c 0,73,74
 508 732 508 732 513 725 c 0,75,76
 576 628 576 628 622 521 c 0,77,78
 625 514 625 514 637 478 c 0,79,80
 664 397 664 397 684 384 c 0,81,82
 694 380 694 380 709 395 c 128,-1,83
 724 410 724 410 728 413 c 1,84,85
 722 426 722 426 720 445 c 0,86,87
 718 463 718 463 722 473 c 1,88,89
 731 477 731 477 744 490 c 0,90,91
 758 504 758 504 777 504 c 0,92,93
 778 504 778 504 779 504 c 0,94,95
 785 498 785 498 807 485 c 0,96,97
 848 461 848 461 849 414 c 0,98,99
 849 413 849 413 849 413 c 2,100,101
 849 364 849 364 778 323 c 0,102,103
 737 299 737 299 728 278 c 1,104,105
 750 261 750 261 769 193 c 128,-1,106
 788 125 788 125 802 108 c 0,107,108
 810 95 810 95 824 95 c 0,109,110
 829 95 829 95 835 97 c 0,111,112
 842 99 842 99 849 99 c 0,113,114
 862 99 862 99 874 92 c 0,115,116
 887 84 887 84 903 72 c 0,117,118
 916 62 916 62 921 59 c 1,119,120
 921 50 921 50 920 43 c 1,121,122
 898 20 898 20 893 15 c 1,123,124
 836 5 836 5 833 5 c 128,-1,125
 830 5 830 5 821 -4 c 0,126,127
 814 -11 814 -11 802 -12 c 0,128,129
 800 -10 800 -10 769 -5 c 0,130,131
 708 5 708 5 677 5 c 0,132,133
 657 5 657 5 649 1 c 0,134,135
 638 -4 638 -4 628 -4 c 2,136,-1
 605 2 l 1,137,138
 587 12 587 12 587 12 c 2,139,140
 577 18 577 18 572 21 c 1,141,142
 572 47 572 47 579 53 c 0,143,144
 592 71 592 71 611 74 c 0,145,146
 636 78 636 78 651 78 c 0,147,148
 672 78 672 78 684 88 c 0,149,150
 686 88 686 88 686 88 c 2,151,152
 688 87 688 87 689 87 c 1,153,154
 687 103 687 103 661 161 c 128,-1,155
 635 219 635 219 626 222 c 1,156,157
 572 171 572 171 493 113 c 1,158,159
 432 117 432 117 395 162 c 0,160,161
 379 182 379 182 365 201 c 0,162,163
 330 250 330 250 277 260 c 1,164,165
 271 230 271 230 242 171 c 0,166,167
 214 115 214 115 210 76 c 1,168,169
 243 75 243 75 261 70 c 128,-1,170
 279 65 279 65 289 48 c 1,171,172
 289 37 289 37 290 25 c 1,173,174
 286 23 286 23 268 10 c 128,-1,175
 250 -3 250 -3 237 -6 c 2,15,-1
EndSplineSet
Validated: 1
EndChar

StartChar: b
Encoding: 98 98 37
Width: 787
GlyphClass: 2
Flags: W
LayerCount: 2
Fore
SplineSet
430 411 m 0,0,1
 413 393 413 393 354 381 c 0,2,3
 293 369 293 369 278 356 c 0,4,5
 270 349 270 349 273 331 c 0,6,7
 274 322 274 322 274 314 c 0,8,9
 274 304 274 304 272 294 c 0,10,11
 267 274 267 274 267 220 c 0,12,13
 267 211 267 211 267 201 c 0,14,15
 268 127 268 127 274 92 c 1,16,-1
 359 92 l 1,17,18
 383 102 383 102 436 110 c 0,19,20
 492 119 492 119 526 131 c 0,21,22
 565 145 565 145 584 172 c 0,23,24
 601 198 601 198 601 230 c 0,25,26
 601 241 601 241 599 252 c 0,27,28
 592 295 592 295 571 339 c 0,29,30
 551 380 551 380 535 391 c 128,-1,31
 519 402 519 402 486 407 c 0,32,33
 459 411 459 411 438 411 c 0,34,35
 434 411 434 411 430 411 c 0,0,1
17 743 m 1,36,37
 49 746 49 746 106.5 769 c 128,-1,38
 164 792 164 792 194 799 c 0,39,40
 222 806 222 806 284 808 c 0,41,42
 294 808 294 808 304 808 c 0,43,44
 352 808 352 808 392 800 c 0,45,46
 442 790 442 790 484 763 c 0,47,48
 521 740 521 740 539 700 c 0,49,50
 543 691 543 691 555 669 c 0,51,52
 583 615 583 615 583 580 c 0,53,54
 583 565 583 565 578 554 c 0,55,56
 572 538 572 538 555 509 c 0,57,58
 539 481 539 481 535 473 c 1,59,-1
 541 473 l 1,60,61
 549 466 549 466 576 456 c 0,62,63
 600 447 600 447 610 441 c 0,64,65
 661 408 661 408 702 324 c 0,66,67
 713 298 713 298 713 263 c 0,68,69
 713 235 713 235 706 202 c 0,70,71
 691 125 691 125 668 103 c 0,72,73
 615 52 615 52 493 21 c 0,74,75
 394 -4 394 -4 283 -4 c 0,76,77
 264 -4 264 -4 245 -3 c 0,78,79
 117 2 117 2 43 45 c 1,80,-1
 43 92 l 1,81,82
 66 95 66 95 73 110 c 1,83,84
 78 110 78 110 83 110 c 0,85,86
 101 110 101 110 122 105 c 0,87,88
 149 98 149 98 156 97 c 1,89,90
 159 174 159 174 159 233.5 c 128,-1,91
 159 293 159 293 156 334 c 1,92,93
 143 337 143 337 108 339 c 128,-1,94
 73 341 73 341 60 345 c 1,95,96
 56 380 56 380 56 403 c 1,97,98
 65 405 65 405 77 409 c 128,-1,99
 89 413 89 413 103 416 c 0,100,101
 116 420 116 420 152 420 c 1,102,103
 153 426 153 426 153 439 c 0,104,105
 153 457 153 457 151 487 c 0,106,107
 147 541 147 541 145 576 c 0,108,109
 143 614 143 614 152 634 c 1,110,111
 172 655 172 655 205 655 c 1,112,113
 231 645 231 645 261 634 c 1,114,115
 267 620 267 620 267 593 c 0,116,117
 267 576 267 576 265 555 c 0,118,119
 262 527 262 527 262 506 c 0,120,121
 262 446 262 446 287 445 c 1,122,123
 291 451 291 451 305 454 c 0,124,125
 321 458 321 458 323 454 c 1,126,127
 355 481 355 481 366 486 c 0,128,129
 389 489 389 489 396 490 c 0,130,131
 403 495 403 495 409 506 c 0,132,133
 412 512 412 512 419 522 c 0,134,135
 427 535 427 535 434 543 c 0,136,137
 444 555 444 555 448 563 c 0,138,139
 459 582 459 582 459 603 c 256,140,141
 459 624 459 624 447 649 c 0,142,143
 433 679 433 679 433 681 c 2,144,145
 433 681 433 681 426 700 c 1,146,147
 341 739 341 739 340 739 c 0,148,149
 337 740 337 740 312 736 c 0,150,151
 288 732 288 732 282 730 c 2,152,-1
 223 730 l 1,153,154
 191 718 191 718 180 713 c 0,155,156
 138 693 138 693 99 687 c 0,157,158
 80 684 80 684 65 684 c 0,159,160
 37 684 37 684 26 696 c 256,161,162
 15 708 15 708 15 726 c 0,163,164
 15 734 15 734 17 743 c 1,36,37
EndSplineSet
Validated: 33
EndChar

StartChar: c
Encoding: 99 99 38
Width: 806
GlyphClass: 2
Flags: W
LayerCount: 2
Fore
SplineSet
624 754 m 0,0,1
 627 754 627 754 630 754 c 0,2,3
 731 754 731 754 731 699 c 1,4,5
 702 672 702 672 642 552 c 0,6,7
 622 513 622 513 590.5 480.5 c 128,-1,8
 559 448 559 448 525 447 c 1,9,10
 520 453 520 453 508.5 460 c 128,-1,11
 497 467 497 467 488 470 c 1,12,13
 487 481 487 481 487 491 c 0,14,15
 487 510 487 510 491 524 c 0,16,17
 498 544 498 544 509.5 563 c 128,-1,18
 521 582 521 582 523.5 594 c 128,-1,19
 526 606 526 606 527 606.5 c 128,-1,20
 528 607 528 607 527 608 c 128,-1,21
 526 609 526 609 525 609 c 0,22,23
 517 624 517 624 489 639 c 0,24,25
 450 660 450 660 418 660 c 0,26,27
 395 660 395 660 376 648 c 0,28,29
 321 609 321 609 277 541.5 c 128,-1,30
 233 474 233 474 232 403 c 0,31,32
 234 401 234 401 236 398 c 0,33,34
 237 398 237 398 238 398 c 0,35,36
 286 398 286 398 310 357 c 1,37,38
 308 341 308 341 300 334 c 0,39,40
 291 323 291 323 264.5 320.5 c 128,-1,41
 238 318 238 318 227 311 c 0,42,43
 224 308 224 308 222 300 c 1,44,45
 230 291 230 291 231.5 262 c 128,-1,46
 233 233 233 233 236 224 c 0,47,48
 267 146 267 146 317 111 c 0,49,50
 349 88 349 88 387 88 c 0,51,52
 408 88 408 88 431 95 c 0,53,54
 476 109 476 109 522 132 c 128,-1,55
 568 155 568 155 579 159 c 0,56,57
 583 160 583 160 593 160 c 0,58,59
 613 160 613 160 656 155 c 0,60,61
 659 151 659 151 668.5 140 c 128,-1,62
 678 129 678 129 679 110 c 1,63,64
 659 77 659 77 607.5 49 c 128,-1,65
 556 21 556 21 495 7 c 0,66,67
 452 -3 452 -3 407 -3 c 0,68,69
 388 -3 388 -3 369 -2 c 0,70,71
 305 4 305 4 267 31.5 c 128,-1,72
 229 59 229 59 189 109 c 128,-1,73
 149 159 149 159 137.5 188 c 128,-1,74
 126 217 126 217 121 256.5 c 128,-1,75
 116 296 116 296 110 311 c 1,76,77
 105 312 105 312 85.5 313.5 c 128,-1,78
 66 315 66 315 56 317 c 0,79,80
 27 321 27 321 21 339 c 0,81,82
 15 345 15 345 15 353 c 0,83,84
 15 366 15 366 27 384 c 0,85,86
 30 389 30 389 30 389 c 1,87,88
 42 391 42 391 71 396 c 128,-1,89
 100 401 100 401 115 403 c 2,90,-1
 119 403 l 2,91,92
 119 404 119 404 119 405 c 0,93,94
 119 463 119 463 140 508 c 256,95,96
 161 553 161 553 188 600 c 0,97,98
 255 714 255 714 353 737 c 0,99,100
 376 742 376 742 401 742 c 0,101,102
 482 742 482 742 580 685 c 1,103,104
 583 688 583 688 588.5 692.5 c 128,-1,105
 594 697 594 697 596 699 c 0,106,107
 600 715 600 715 611 732.5 c 128,-1,108
 622 750 622 750 624 754 c 0,0,1
EndSplineSet
Validated: 1
EndChar

StartChar: d
Encoding: 100 100 39
Width: 821
GlyphClass: 2
Flags: W
LayerCount: 2
Fore
SplineSet
287 611 m 1,0,-1
 287 415 l 1,1,2
 300 407 300 407 329 394 c 128,-1,3
 358 381 358 381 368 375 c 1,4,5
 369 369 369 369 369 364 c 0,6,7
 369 345 369 345 364 341 c 0,8,9
 356 326 356 326 336 322 c 0,10,11
 327 320 327 320 320 320 c 0,12,13
 309 320 309 320 300 323 c 1,14,15
 296 315 296 315 287 310 c 1,16,17
 290 238 290 238 292 186 c 1,18,19
 287 169 287 169 285 139 c 0,20,21
 284 129 284 129 284 122 c 0,22,23
 284 105 284 105 287 96 c 1,24,25
 303 95 303 95 318 95 c 0,26,27
 412 95 412 95 495 150 c 0,28,29
 540 179 540 179 573 222 c 128,-1,30
 606 265 606 265 622 314 c 0,31,32
 635 351 635 351 635 393 c 0,33,34
 635 406 635 406 634 419 c 0,35,36
 629 475 629 475 600 528 c 0,37,38
 595 537 595 537 586 554.5 c 128,-1,39
 577 572 577 572 572 582 c 0,40,41
 540 640 540 640 465 664 c 0,42,43
 426 677 426 677 374 687 c 128,-1,44
 322 697 322 697 293 707 c 0,45,46
 271 715 271 715 240 715 c 0,47,48
 202 715 202 715 150 703 c 0,49,50
 99 692 99 692 71 692 c 0,51,52
 46 692 46 692 38 701 c 0,53,54
 21 714 21 714 21 744 c 0,55,56
 21 747 21 747 21 749 c 0,57,58
 28 754 28 754 30 766 c 1,59,60
 54 768 54 768 98 780 c 128,-1,61
 142 792 142 792 152 795 c 0,62,63
 176 800 176 800 208 800 c 0,64,65
 257 800 257 800 324 787 c 0,66,67
 433 766 433 766 527 726 c 128,-1,68
 621 686 621 686 648 651 c 0,69,70
 663 629 663 629 688.5 584.5 c 128,-1,71
 714 540 714 540 722 521.5 c 128,-1,72
 730 503 730 503 730.5 470.5 c 128,-1,73
 731 438 731 438 740 416 c 0,74,75
 747 400 747 400 747 374 c 0,76,77
 747 365 747 365 746 354 c 0,78,79
 734 202 734 202 630 120 c 0,80,81
 574 77 574 77 520 51.5 c 128,-1,82
 466 26 466 26 394 -2 c 0,83,84
 381 -8 381 -8 351 -8 c 0,85,86
 349 -8 349 -8 347 -7 c 0,87,88
 342 -7 342 -7 338 -7 c 0,89,90
 313 -7 313 -7 305 -10 c 256,91,92
 297 -13 297 -13 290 -12.5 c 128,-1,93
 283 -12 283 -12 279.5 -11 c 128,-1,94
 276 -10 276 -10 270 -8.5 c 128,-1,95
 264 -7 264 -7 263 -7 c 2,96,-1
 196 -7 l 1,97,98
 182 -2 182 -2 147 8 c 128,-1,99
 112 18 112 18 92 28 c 128,-1,100
 72 38 72 38 63.5 47 c 128,-1,101
 55 56 55 56 48 62.5 c 128,-1,102
 41 69 41 69 36 74 c 0,103,104
 15 97 15 97 15 115 c 0,105,106
 15 128 15 128 25 140 c 0,107,108
 39 168 39 168 73 170 c 1,109,110
 77 165 77 165 85.5 162.5 c 128,-1,111
 94 160 94 160 102 152.5 c 128,-1,112
 110 145 110 145 124 114 c 1,113,114
 130 112 130 112 146.5 106.5 c 128,-1,115
 163 101 163 101 176 100 c 1,116,-1
 176 107 l 1,117,118
 184 117 184 117 184 188 c 0,119,120
 184 200 184 200 184 213 c 0,121,122
 182 309 182 309 176 314 c 0,123,124
 167 322 167 322 144 322 c 0,125,126
 136 322 136 322 125 321 c 0,127,128
 106 319 106 319 93.5 319 c 128,-1,129
 81 319 81 319 76 321 c 0,130,131
 64 326 64 326 51.5 334 c 128,-1,132
 39 342 39 342 34 345 c 1,133,134
 30 369 30 369 30 395 c 0,135,136
 30 396 30 396 30 397 c 0,137,138
 41 398 41 398 55 398 c 0,139,140
 77 398 77 398 105 396 c 0,141,142
 114 396 114 396 123 396 c 0,143,144
 159 396 159 396 185 406 c 1,145,146
 179 452 179 452 179 508 c 0,147,148
 179 525 179 525 179 544 c 0,149,150
 182 621 182 621 189 629 c 0,151,152
 199 642 199 642 217 642 c 0,153,154
 244 642 244 642 287 611 c 1,0,-1
EndSplineSet
Validated: 1
EndChar

StartChar: e
Encoding: 101 101 40
Width: 794
GlyphClass: 2
Flags: W
LayerCount: 2
Fore
SplineSet
131 67 m 1,0,-1
 214 74 l 2,1,2
 220 74 220 74 268 67 c 0,3,4
 302 62 302 62 326 62 c 0,5,6
 337 62 337 62 345 63 c 0,7,8
 367 69 367 69 411 70 c 0,9,10
 421 70 421 70 430 70 c 0,11,12
 459 70 459 70 473.5 68 c 128,-1,13
 488 66 488 66 525 66 c 0,14,15
 537 66 537 66 550 66 c 0,16,17
 608 67 608 67 612 70 c 0,18,19
 615 73 615 73 615 94 c 0,20,21
 615 103 615 103 615 116 c 0,22,23
 613 142 613 142 613 156 c 0,24,25
 613 166 613 166 614 170 c 1,26,27
 619 170 619 170 629 171.5 c 128,-1,28
 639 173 639 173 650.5 174 c 128,-1,29
 662 175 662 175 671 166 c 0,30,31
 693 152 693 152 708 101 c 0,32,33
 720 63 720 63 720 33 c 0,34,35
 720 24 720 24 719 15 c 1,36,37
 710 11 710 11 706 2 c 1,38,39
 680 2 680 2 576 -1 c 0,40,41
 538 -1 538 -1 509 -1 c 0,42,43
 458 -1 458 -1 433 1 c 0,44,45
 413 4 413 4 396 4 c 0,46,47
 380 4 380 4 367 2 c 0,48,49
 340 -2 340 -2 322 -4 c 0,50,51
 318 -4 318 -4 315 -4 c 0,52,53
 299 -4 299 -4 280 2 c 0,54,55
 270 6 270 6 251 6 c 0,56,57
 237 6 237 6 216 4 c 0,58,59
 202 2 202 2 191 2 c 0,60,61
 166 2 166 2 160 11 c 1,62,63
 155 9 155 9 147 5.5 c 128,-1,64
 139 2 139 2 138 2 c 0,65,66
 103 -3 103 -3 83 -3 c 0,67,68
 75 -3 75 -3 69 -2 c 0,69,70
 50 1 50 1 16 19 c 0,71,72
 16 22 16 22 16 25 c 0,73,74
 16 88 16 88 20 210 c 0,75,76
 24 337 24 337 24 381 c 1,77,-1
 24 381 l 1,78,79
 24 425 24 425 20.5 469 c 128,-1,80
 17 513 17 513 16 537 c 0,81,82
 16 541 16 541 16 544 c 0,83,84
 16 565 16 565 20 588 c 0,85,86
 23 602 23 602 23 617 c 0,87,88
 23 631 23 631 21 644 c 0,89,90
 15 677 15 677 15 700 c 0,91,92
 15 737 15 737 29 753 c 0,93,94
 39 769 39 769 58 773 c 0,95,96
 75 776 75 776 98 776 c 0,97,98
 101 776 101 776 104 775 c 0,99,100
 106 775 106 775 107 775 c 0,101,102
 133 775 133 775 157 783 c 256,103,104
 181 791 181 791 224 793 c 0,105,106
 242 794 242 794 266 794 c 0,107,108
 296 794 296 794 334 793 c 0,109,110
 403 790 403 790 418.5 790 c 128,-1,111
 434 790 434 790 462 788 c 0,112,113
 468 788 468 788 473 788 c 0,114,115
 494 788 494 788 507 794 c 1,116,117
 507 806 507 806 511 819 c 128,-1,118
 515 832 515 832 516 842 c 0,119,120
 520 843 520 843 524 843 c 0,121,122
 565 843 565 843 585 827 c 1,123,124
 588 816 588 816 588 798 c 0,125,126
 588 774 588 774 584 737 c 0,127,128
 576 672 576 672 564 659 c 0,129,130
 557 647 557 647 539 643 c 0,131,132
 533 642 533 642 528 642 c 0,133,134
 516 642 516 642 507 648 c 0,135,136
 506 651 506 651 497.5 678 c 128,-1,137
 489 705 489 705 483 709 c 1,138,-1
 400 709 l 1,139,140
 387 705 387 705 350 705 c 0,141,142
 330 705 330 705 303 706 c 0,143,144
 282 707 282 707 265 707 c 0,145,146
 221 707 221 707 208 701 c 0,147,148
 202 698 202 698 182 698 c 0,149,150
 175 698 175 698 168 698 c 0,151,152
 164 698 164 698 160 698 c 0,153,154
 135 698 135 698 131 692 c 0,155,156
 127 690 127 690 123 687 c 0,157,158
 123 684 123 684 123 680 c 0,159,160
 123 649 123 649 125 582 c 0,161,162
 126 552 126 552 126 528 c 0,163,164
 126 490 126 490 124 466 c 0,165,166
 122 455 122 455 122 447 c 0,167,168
 122 424 122 424 131 415 c 0,169,170
 136 411 136 411 162.5 412 c 128,-1,171
 189 413 189 413 195 419 c 0,172,173
 196 420 196 420 199 421.5 c 128,-1,174
 202 423 202 423 203 423 c 1,175,176
 203 436 203 436 203 445 c 0,177,178
 203 473 203 473 208 478 c 0,179,180
 215 490 215 490 234 490 c 0,181,182
 240 490 240 490 246 489 c 0,183,184
 274 485 274 485 280 469 c 1,185,186
 288 462 288 462 288 393 c 0,187,188
 288 383 288 383 288 372 c 0,189,190
 286 284 286 284 280 277 c 0,191,192
 278 273 278 273 276 268 c 1,193,194
 270 268 270 268 264 268 c 0,195,196
 223 268 223 268 199 273 c 0,197,198
 199 276 199 276 198.5 308.5 c 128,-1,199
 198 341 198 341 190 349 c 2,200,-1
 188 353 l 1,201,202
 179 354 179 354 171 354 c 0,203,204
 139 354 139 354 132 346 c 128,-1,205
 125 338 125 338 125 313 c 0,206,207
 125 307 125 307 126 300 c 0,208,209
 126 292 126 292 126 281 c 0,210,211
 126 245 126 245 121 183 c 0,212,213
 120 161 120 161 120 141 c 0,214,215
 120 92 120 92 131 67 c 1,0,-1
EndSplineSet
Validated: 1
EndChar

StartChar: f
Encoding: 102 102 41
Width: 758
GlyphClass: 2
Flags: W
LayerCount: 2
Fore
SplineSet
371 323 m 1,0,1
 366 323 366 323 362 323 c 0,2,3
 333 323 333 323 322 337 c 0,4,5
 316 344 316 344 311 351 c 0,6,7
 298 369 298 369 264 369 c 1,8,9
 254 360 254 360 183 360 c 0,10,11
 169 360 169 360 153 360 c 1,12,13
 151 319 151 319 151 285 c 0,14,15
 151 198 151 198 161 159 c 0,16,17
 162 155 162 155 162 147 c 0,18,19
 162 135 162 135 161 116 c 0,20,21
 160 107 160 107 160 99 c 0,22,23
 160 81 160 81 166 79 c 1,24,-1
 166 74 l 1,25,26
 173 74 173 74 179 74 c 0,27,28
 286 74 286 74 286 9 c 0,29,30
 283 6 283 6 281 0 c 1,31,32
 260 -8 260 -8 240 -15 c 0,33,34
 236 -16 236 -16 223 -16 c 0,35,36
 197 -16 197 -16 130 -12 c 0,37,38
 31 -5 31 -5 22 1 c 0,39,40
 15 6 15 6 15 39 c 0,41,42
 15 42 15 42 15 46 c 0,43,44
 22 53 22 53 28 61 c 1,45,-1
 72 70 l 1,46,47
 65 222 65 222 63 404 c 0,48,49
 63 417 63 417 56 475 c 0,50,51
 52 509 52 509 52 530 c 0,52,53
 52 545 52 545 54 554 c 0,54,55
 55 559 55 559 55 566 c 0,56,57
 55 586 55 586 46 618 c 0,58,59
 43 626 43 626 42 697 c 2,60,-1
 41 768 l 1,61,62
 53 783 53 783 59 790 c 1,63,64
 70 790 70 790 80 790 c 0,65,66
 190 790 190 790 233 805 c 1,67,68
 259 803 259 803 275 801 c 1,69,70
 285 806 285 806 289 809 c 0,71,72
 292 810 292 810 312 810 c 0,73,74
 320 810 320 810 332 810 c 0,75,76
 356 809 356 809 366 809 c 0,77,78
 372 809 372 809 374 810 c 0,79,80
 378 810 378 810 397 813 c 0,81,82
 481 827 481 827 531 827 c 0,83,84
 570 827 570 827 587 819 c 0,85,86
 589 819 589 819 594 821 c 1,87,88
 593 827 593 827 593 832 c 0,89,90
 593 870 593 870 611 875 c 1,91,92
 619 883 619 883 629 883 c 0,93,94
 644 883 644 883 666 869 c 0,95,96
 678 860 678 860 683 853 c 1,97,-1
 683 712 l 2,98,99
 681 708 681 708 674.5 697 c 128,-1,100
 668 686 668 686 663 679 c 1,101,102
 657 678 657 678 645.5 676.5 c 128,-1,103
 634 675 634 675 628 674 c 1,104,105
 624 679 624 679 615.5 686.5 c 128,-1,106
 607 694 607 694 600.5 702.5 c 128,-1,107
 594 711 594 711 594 737 c 2,108,-1
 594 738 l 1,109,110
 564 741 564 741 523 741 c 0,111,112
 457 741 457 741 360 733 c 0,113,114
 205 720 205 720 144 720 c 1,115,116
 139 713 139 713 131 707 c 1,117,118
 131 700 131 700 131 694 c 0,119,120
 131 596 131 596 144 541 c 0,121,122
 146 532 146 532 146 516 c 0,123,124
 146 503 146 503 145 486 c 0,125,126
 144 478 144 478 144 471 c 0,127,128
 144 444 144 444 153 434 c 1,129,-1
 153 430 l 1,130,131
 260 443 260 443 294 447 c 0,132,133
 298 451 298 451 303 481 c 128,-1,134
 308 511 308 511 312 519 c 1,135,136
 327 521 327 521 338 521 c 0,137,138
 346 521 346 521 352 520 c 0,139,140
 365 517 365 517 384 506 c 1,141,142
 389 480 389 480 392 428 c 0,143,144
 393 411 393 411 393 397 c 0,145,146
 393 366 393 366 388 347 c 0,147,148
 386 342 386 342 379.5 336.5 c 128,-1,149
 373 331 373 331 371 323 c 1,0,1
EndSplineSet
Validated: 1
EndChar

StartChar: g
Encoding: 103 103 42
Width: 848
GlyphClass: 2
Flags: W
LayerCount: 2
Fore
SplineSet
675 35 m 1,0,-1
 633 127 l 1,1,-1
 631 127 l 1,2,3
 618 116 618 116 592 86 c 128,-1,4
 566 56 566 56 549 44.5 c 128,-1,5
 532 33 532 33 457 5 c 1,6,-1
 415 5 l 1,7,8
 388 -3 388 -3 359 -3 c 0,9,10
 300 -3 300 -3 232 29 c 0,11,12
 188 50 188 50 154 75.5 c 128,-1,13
 120 101 120 101 107 121.5 c 128,-1,14
 94 142 94 142 77 231.5 c 128,-1,15
 60 321 60 321 51 330 c 0,16,17
 46 335 46 335 34 338.5 c 128,-1,18
 22 342 22 342 20 343 c 0,19,20
 20 344 20 344 16 364.5 c 128,-1,21
 12 385 12 385 20.5 392.5 c 128,-1,22
 29 400 29 400 47.5 404 c 128,-1,23
 66 408 66 408 68 409 c 2,24,25
 68 409 68 409 68 410 c 0,26,27
 68 496 68 496 121 593 c 0,28,29
 175 691 175 691 238 734 c 0,30,31
 257 746 257 746 303.5 758.5 c 128,-1,32
 350 771 350 771 369 784 c 0,33,34
 376 784 376 784 382 784 c 0,35,36
 569 784 569 784 620 703 c 1,37,38
 629 710 629 710 635.5 722.5 c 128,-1,39
 642 735 642 735 649 740 c 128,-1,40
 656 745 656 745 669 744.5 c 128,-1,41
 682 744 682 744 692 740.5 c 128,-1,42
 702 737 702 737 714 731.5 c 128,-1,43
 726 726 726 726 732 725 c 1,44,45
 734 705 734 705 736 690 c 1,46,47
 722 679 722 679 682 622 c 0,48,49
 605 512 605 512 561 512 c 0,50,51
 549 512 549 512 540 520 c 0,52,53
 535 523 535 523 531 526 c 0,54,55
 530 531 530 531 526 555 c 0,56,57
 528 559 528 559 545 588 c 0,58,59
 560 614 560 614 560 624 c 0,60,61
 560 625 560 625 559 627 c 0,62,63
 545 671 545 671 481 694 c 0,64,65
 446 707 446 707 417 707 c 0,66,67
 392 707 392 707 370 698 c 0,68,69
 323 678 323 678 278.5 633.5 c 128,-1,70
 234 589 234 589 203 530 c 0,71,72
 178 481 178 481 178 439 c 0,73,74
 178 430 178 430 179 422 c 1,75,76
 208 420 208 420 251 395 c 0,77,78
 251 393 251 393 251 390 c 0,79,80
 251 368 251 368 247 352 c 1,81,82
 226 349 226 349 198 341.5 c 128,-1,83
 170 334 170 334 166 326 c 0,84,85
 164 322 164 322 164 314 c 0,86,87
 164 298 164 298 173 264 c 0,88,89
 187 212 187 212 197 190 c 0,90,91
 229 121 229 121 291 95 c 0,92,93
 325 81 325 81 361 81 c 0,94,95
 389 81 389 81 418 90 c 0,96,97
 482 111 482 111 526 168 c 0,98,99
 527 169 527 169 533.5 177.5 c 128,-1,100
 540 186 540 186 541.5 188.5 c 128,-1,101
 543 191 543 191 549 199 c 128,-1,102
 555 207 555 207 557 211.5 c 128,-1,103
 559 216 559 216 562 224 c 0,104,105
 570 240 570 240 570 259 c 0,106,107
 570 273 570 273 566 288 c 1,108,109
 556 288 556 288 510 284 c 0,110,111
 483 282 483 282 462 282 c 0,112,113
 409 282 409 282 393 297 c 0,114,115
 380 306 380 306 383.5 318.5 c 128,-1,116
 387 331 387 331 389 336.5 c 128,-1,117
 391 342 391 342 396 350.5 c 128,-1,118
 401 359 401 359 402 360 c 0,119,120
 416 362 416 362 468 364 c 128,-1,121
 520 366 520 366 550 374 c 1,122,-1
 590 369 l 1,123,124
 605 374 605 374 616 374 c 0,125,126
 623 374 623 374 627 373 c 0,127,128
 640 368 640 368 664.5 351 c 128,-1,129
 689 334 689 334 692 332 c 2,130,131
 692 332 692 332 692 331 c 0,132,133
 692 249 692 249 734 145 c 0,134,135
 749 107 749 107 762 66 c 0,136,137
 773 30 773 30 773 -7 c 0,138,139
 773 -61 773 -61 749 -115 c 1,140,141
 737 -118 737 -118 725 -118 c 0,142,143
 695 -118 695 -118 671 -102 c 1,144,145
 673 -24 673 -24 675 35 c 1,0,-1
EndSplineSet
Validated: 1
EndChar

StartChar: h
Encoding: 104 104 43
Width: 975
GlyphClass: 2
Flags: W
LayerCount: 2
Fore
SplineSet
239 702 m 1,0,-1
 235 348 l 1,1,2
 301 331 301 331 381 292 c 0,3,4
 385 290 385 290 403 274 c 128,-1,5
 421 258 421 258 429 260.5 c 128,-1,6
 437 263 437 263 443.5 272 c 128,-1,7
 450 281 450 281 454.5 283.5 c 128,-1,8
 459 286 459 286 471 287.5 c 128,-1,9
 483 289 483 289 489.5 292.5 c 128,-1,10
 496 296 496 296 517.5 309 c 128,-1,11
 539 322 539 322 564 335.5 c 128,-1,12
 589 349 589 349 626 351 c 1,13,-1
 648 623 l 2,14,15
 648 635 648 635 655 674 c 0,16,17
 659 690 659 690 659 702 c 0,18,19
 659 720 659 720 652 728 c 0,20,21
 648 734 648 734 633 747 c 128,-1,22
 618 760 618 760 617 787 c 1,23,24
 623 791 623 791 626 800 c 1,25,26
 654 800 654 800 699 807 c 0,27,28
 735 813 735 813 761 813 c 0,29,30
 767 813 767 813 773 812 c 0,31,32
 802 811 802 811 831 794 c 1,33,34
 833 776 833 776 833 764 c 128,-1,35
 833 752 833 752 831 746 c 1,36,37
 774 738 774 738 768 724 c 0,38,39
 761 717 761 717 751.5 596 c 128,-1,40
 742 475 742 475 738 461 c 0,41,42
 735 451 735 451 735 438 c 0,43,44
 735 433 735 433 736 428 c 0,45,46
 737 408 737 408 741 403.5 c 128,-1,47
 745 399 745 399 755 399 c 1,48,-1
 755 403 l 1,49,50
 765 409 765 409 778 436.5 c 128,-1,51
 791 464 791 464 792 479 c 1,52,53
 792 479 792 479 792 479 c 1,54,55
 798 479 798 479 826 481 c 0,56,57
 832 482 832 482 838 482 c 0,58,59
 859 482 859 482 866 475 c 0,60,61
 881 466 881 466 887 455 c 128,-1,62
 893 444 893 444 899 420 c 0,63,64
 901 412 901 412 901 404 c 0,65,66
 901 390 901 390 894 377 c 0,67,68
 884 357 884 357 861.5 343.5 c 128,-1,69
 839 330 839 330 816.5 320.5 c 128,-1,70
 794 311 794 311 767.5 300.5 c 128,-1,71
 741 290 741 290 728 283 c 1,72,73
 728 268 728 268 718 189 c 0,74,75
 713 153 713 153 713 127 c 0,76,77
 713 97 713 97 720 82 c 0,78,79
 721 82 721 82 723 82 c 0,80,81
 739 82 739 82 757 74 c 0,82,83
 776 66 776 66 779 51 c 0,84,85
 784 46 784 46 783 23 c 1,86,87
 770 15 770 15 763 3 c 1,88,89
 749 3 749 3 701 -3 c 0,90,91
 673 -6 673 -6 648 -6 c 0,92,93
 630 -6 630 -6 613 -4 c 0,94,95
 562 1 562 1 560 49 c 0,96,97
 562 53 562 53 562 56 c 0,98,99
 582 65 582 65 600 73 c 0,100,101
 600 76 600 76 602 88 c 0,102,103
 617 182 617 182 617 217 c 0,104,105
 617 234 617 234 614 238 c 0,106,107
 610 242 610 242 602 244 c 1,108,109
 566 229 566 229 530 200 c 128,-1,110
 494 171 494 171 475 141 c 1,111,112
 475 141 475 141 475 141 c 1,113,114
 419 141 419 141 372 191 c 0,115,116
 353 211 353 211 333 231 c 0,117,118
 295 269 295 269 246 269 c 0,119,120
 237 269 237 269 226 268 c 1,121,122
 226 256 226 256 223 223.5 c 128,-1,123
 220 191 220 191 216 138 c 0,124,125
 215 122 215 122 215 110 c 0,126,127
 215 82 215 82 222 73 c 0,128,129
 230 61 230 61 252 52 c 128,-1,130
 274 43 274 43 274 43 c 2,131,132
 275 41 275 41 278.5 26.5 c 128,-1,133
 282 12 282 12 274 3 c 0,134,135
 264 -16 264 -16 179 -21 c 0,136,137
 153 -22 153 -22 133 -22 c 0,138,139
 85 -22 85 -22 65 -14 c 0,140,141
 57 -10 57 -10 41 -1 c 128,-1,142
 25 8 25 8 17 12 c 1,143,144
 15 30 15 30 15 42 c 128,-1,145
 15 54 15 54 17 60 c 0,146,147
 20 60 20 60 54 58 c 0,148,149
 61 57 61 57 66 57 c 0,150,151
 90 57 90 57 98 65 c 0,152,153
 103 67 103 67 106 69 c 0,154,155
 106 84 106 84 114 174 c 0,156,157
 118 222 118 222 118 254 c 0,158,159
 118 281 118 281 115 296 c 0,160,161
 113 296 113 296 111 296 c 0,162,163
 67 296 67 296 25 320 c 0,164,165
 25 321 25 321 21.5 335.5 c 128,-1,166
 18 350 18 350 25 357 c 0,167,168
 27 362 27 362 30 368 c 1,169,170
 40 368 40 368 80 371.5 c 128,-1,171
 120 375 120 375 124 377 c 0,172,173
 132 431 132 431 136 536 c 0,174,175
 137 573 137 573 137 604 c 0,176,177
 137 664 137 664 132 706 c 1,178,179
 95 708 95 708 64 733 c 0,180,181
 49 745 49 745 39 750 c 1,182,183
 38 769 38 769 46 773.5 c 128,-1,184
 54 778 54 778 76 776 c 1,185,186
 92 784 92 784 171 786 c 0,187,188
 199 786 199 786 219 786 c 0,189,190
 256 786 256 786 266 784 c 0,191,192
 282 781 282 781 290 775 c 128,-1,193
 298 769 298 769 307 760 c 128,-1,194
 316 751 316 751 320 748 c 1,195,196
 319 738 319 738 314.5 730 c 128,-1,197
 310 722 310 722 309 719 c 0,198,199
 271 709 271 709 244 702 c 1,200,-1
 239 702 l 1,0,-1
EndSplineSet
Validated: 5
EndChar

StartChar: i
Encoding: 105 105 44
Width: 455
GlyphClass: 2
Flags: W
LayerCount: 2
Fore
SplineSet
149 410 m 1,0,-1
 136 689 l 1,1,-1
 123 689 l 1,2,3
 113 678 113 678 74 676 c 0,4,5
 67 675 67 675 60 675 c 0,6,7
 33 675 33 675 25 685 c 0,8,9
 18 689 18 689 15.5 705.5 c 128,-1,10
 13 722 13 722 22 731.5 c 128,-1,11
 31 741 31 741 52 747 c 128,-1,12
 73 753 73 753 101 757.5 c 128,-1,13
 129 762 129 762 139 765 c 0,14,15
 144 766 144 766 155 766 c 0,16,17
 162 766 162 766 172 766 c 0,18,19
 196 763 196 763 200 770 c 1,20,21
 258 767 258 767 309 765 c 0,22,23
 310 766 310 766 321 770 c 128,-1,24
 332 774 332 774 348.5 764 c 128,-1,25
 365 754 365 754 372 752 c 1,26,27
 373 746 373 746 376.5 736.5 c 128,-1,28
 380 727 380 727 381 717 c 1,29,30
 349 691 349 691 315 691 c 0,31,32
 305 691 305 691 295 693 c 0,33,34
 287 695 287 695 276 695 c 0,35,36
 261 695 261 695 239 691 c 1,37,38
 239 675 239 675 237.5 625 c 128,-1,39
 236 575 236 575 236 519 c 2,40,-1
 236 518 l 2,41,42
 236 463 236 463 250 418 c 1,43,44
 259 419 259 419 266 419 c 0,45,46
 288 419 288 419 293 414 c 0,47,48
 312 405 312 405 312 387 c 0,49,50
 312 378 312 378 307 366 c 1,51,52
 294 360 294 360 273 358 c 128,-1,53
 252 356 252 356 248 355 c 1,54,55
 248 355 248 355 248 354 c 0,56,57
 248 317 248 317 243 210 c 0,58,59
 241 157 241 157 241 124 c 0,60,61
 241 89 241 89 243 76 c 1,62,63
 260 73 260 73 284 73 c 0,64,65
 287 73 287 73 289 73 c 0,66,67
 294 73 294 73 298 73 c 0,68,69
 320 73 320 73 337 72 c 0,70,71
 357 71 357 71 368 57 c 0,72,73
 372 51 372 51 372 41 c 0,74,75
 372 26 372 26 363 3 c 1,76,77
 363 3 363 3 363 3 c 1,78,79
 357 3 357 3 288 4 c 0,80,81
 279 4 279 4 272 4 c 0,82,83
 216 4 216 4 204 -1 c 0,84,85
 199 0 199 0 169 3 c 1,86,87
 114 -11 114 -11 74 -11 c 0,88,89
 61 -11 61 -11 49 -10 c 1,90,91
 44 4 44 4 34 10 c 1,92,93
 33 28 33 28 36 35 c 128,-1,94
 39 42 39 42 43 48 c 128,-1,95
 47 54 47 54 49 58 c 1,96,97
 72 58 72 58 99 66.5 c 128,-1,98
 126 75 126 75 141 76 c 1,99,100
 150 128 150 128 150 179 c 0,101,102
 150 201 150 201 150 222 c 0,103,104
 150 251 150 251 150 281 c 0,105,106
 149 331 149 331 149 348 c 0,107,108
 146 349 146 349 130.5 351 c 128,-1,109
 115 353 115 353 106 357 c 1,110,111
 105 365 105 365 101 375 c 128,-1,112
 97 385 97 385 97 396 c 1,113,114
 122 403 122 403 145 410 c 1,115,-1
 149 410 l 1,0,-1
EndSplineSet
Validated: 5
EndChar

StartChar: j
Encoding: 106 106 45
Width: 784
GlyphClass: 2
Flags: W
LayerCount: 2
Fore
SplineSet
568 716 m 1,0,-1
 576 447 l 1,1,2
 586 448 586 448 594 448 c 0,3,4
 614 448 614 448 624 445 c 0,5,6
 639 442 639 442 661 430 c 1,7,8
 662 413 662 413 657 408 c 0,9,10
 649 396 649 396 623.5 395 c 128,-1,11
 598 394 598 394 590.5 388 c 128,-1,12
 583 382 583 382 576 377 c 1,13,14
 576 371 576 371 576 364 c 0,15,16
 576 180 576 180 547 104 c 0,17,18
 532 66 532 66 503 38.5 c 128,-1,19
 474 11 474 11 396 -10 c 0,20,21
 336 -27 336 -27 272 -27 c 0,22,23
 254 -27 254 -27 236 -26 c 0,24,25
 153 -20 153 -20 120 18.5 c 128,-1,26
 87 57 87 57 83 109 c 0,27,28
 80 143 80 143 80 177 c 0,29,30
 80 193 80 193 80 210 c 0,31,32
 83 259 83 259 83 275 c 1,33,34
 81 275 81 275 79 275 c 0,35,36
 48 275 48 275 20 288 c 0,37,38
 19 290 19 290 16 301 c 128,-1,39
 13 312 13 312 20 318 c 0,40,41
 23 324 23 324 33.5 333 c 128,-1,42
 44 342 44 342 50 345 c 2,43,-1
 79 340 l 2,44,45
 86 342 86 342 105 346 c 128,-1,46
 124 350 124 350 137 353 c 0,47,48
 165 359 165 359 185 359 c 0,49,50
 229 359 229 359 238 331 c 0,51,52
 243 327 243 327 243 316 c 128,-1,53
 243 305 243 305 238.5 300 c 128,-1,54
 234 295 234 295 221.5 291 c 128,-1,55
 209 287 209 287 194 284 c 128,-1,56
 179 281 179 281 175 279 c 0,57,58
 174 271 174 271 169 221 c 0,59,60
 166 191 166 191 166 166 c 0,61,62
 166 115 166 115 179 89 c 0,63,64
 193 60 193 60 243 52 c 0,65,66
 265 48 265 48 287 48 c 0,67,68
 315 48 315 48 343 54 c 0,69,70
 393 64 393 64 418 83.5 c 128,-1,71
 443 103 443 103 454 130.5 c 128,-1,72
 465 158 465 158 471 209.5 c 128,-1,73
 477 261 477 261 482 286 c 0,74,75
 490 318 490 318 490 337.5 c 128,-1,76
 490 357 490 357 482 364 c 0,77,78
 458 382 458 382 439 395 c 1,79,-1
 439 412 l 1,80,81
 452 415 452 415 487 434 c 1,82,83
 487 490 487 490 487 535 c 0,84,85
 487 698 487 698 478 709 c 0,86,87
 476 712 476 712 471 716 c 1,88,89
 455 706 455 706 427 706 c 0,90,91
 401 706 401 706 366 714 c 0,92,93
 340 720 340 720 327 727 c 1,94,95
 326 736 326 736 326 744 c 0,96,97
 326 758 326 758 332 764 c 0,98,99
 345 786 345 786 384 786 c 0,100,101
 394 786 394 786 405 785 c 0,102,103
 412 784 412 784 419 784 c 0,104,105
 432 784 432 784 444 787 c 0,106,107
 461 793 461 793 557 803 c 0,108,109
 634 811 634 811 654 811 c 0,110,111
 659 811 659 811 661 811 c 0,112,113
 669 808 669 808 687.5 795.5 c 128,-1,114
 706 783 706 783 709 781 c 0,115,116
 711 757 711 757 705 751 c 0,117,118
 695 734 695 734 637 727.5 c 128,-1,119
 579 721 579 721 568 716 c 1,0,-1
EndSplineSet
Validated: 1
EndChar

StartChar: k
Encoding: 107 107 46
Width: 824
GlyphClass: 2
Flags: W
LayerCount: 2
Fore
SplineSet
100 730 m 0,0,1
 97 730 97 730 94 730 c 0,2,3
 54 730 54 730 35 740 c 0,4,5
 16 752 16 752 15 767 c 1,6,7
 35 781 35 781 75 791 c 0,8,9
 122 803 122 803 157 803 c 0,10,11
 198 803 198 803 224 788 c 0,12,13
 251 773 251 773 251 743 c 0,14,15
 251 741 251 741 251 739 c 0,16,17
 245 737 245 737 222 732.5 c 128,-1,18
 199 728 199 728 187 726 c 1,19,-1
 187 640 l 2,20,21
 188 639 188 639 188 629 c 0,22,23
 188 620 188 620 188 604 c 0,24,25
 187 601 187 601 187 598 c 0,26,27
 187 569 187 569 192 551 c 0,28,29
 194 543 194 543 194 489 c 0,30,31
 195 419 195 419 207 350 c 1,32,33
 221 378 221 378 265.5 418 c 128,-1,34
 310 458 310 458 321.5 474.5 c 128,-1,35
 333 491 333 491 371 548 c 0,36,37
 428 633 428 633 476 678 c 0,38,39
 511 712 511 712 521 734 c 1,40,41
 517 736 517 736 498.5 738.5 c 128,-1,42
 480 741 480 741 472 749.5 c 128,-1,43
 464 758 464 758 468 771.5 c 128,-1,44
 472 785 472 785 473 800 c 1,45,46
 473 800 473 800 475 800 c 0,47,48
 486 800 486 800 563 804 c 0,49,50
 584 805 584 805 601 805 c 0,51,52
 658 805 658 805 666 793 c 0,53,54
 669 785 669 785 667.5 782.5 c 128,-1,55
 666 780 666 780 666 772 c 1,56,57
 666 772 666 772 666 772 c 1,58,59
 666 742 666 742 612 737 c 1,60,61
 612 737 612 737 612 736 c 0,62,63
 612 725 612 725 600 701 c 2,64,-1
 572 652 l 1,65,-1
 463 519 l 1,66,67
 463 519 463 519 463 519 c 257,68,69
 463 519 463 519 437 481 c 256,70,71
 411 443 411 443 401 427 c 1,72,73
 405 414 405 414 436.5 386.5 c 128,-1,74
 468 359 468 359 484 337.5 c 128,-1,75
 500 316 500 316 559.5 242.5 c 128,-1,76
 619 169 619 169 650 125 c 1,77,78
 657 124 657 124 663 123 c 1,79,80
 668 146 668 146 681 146 c 0,81,82
 686 146 686 146 692 143 c 0,83,84
 693 142 693 142 702 139.5 c 128,-1,85
 711 137 711 137 714 134 c 0,86,87
 735 126 735 126 746 63 c 0,88,89
 751 34 751 34 751 17 c 0,90,91
 751 -3 751 -3 744 -6 c 0,92,93
 739 -9 739 -9 728.5 -9.5 c 128,-1,94
 718 -10 718 -10 702 -12 c 128,-1,95
 686 -14 686 -14 674 -6 c 1,96,97
 668 3 668 3 655 23 c 1,98,99
 647 26 647 26 616.5 50 c 128,-1,100
 586 74 586 74 585 75 c 0,101,102
 578 75 578 75 551 118 c 128,-1,103
 524 161 524 161 517.5 163.5 c 128,-1,104
 511 166 511 166 476.5 211 c 128,-1,105
 442 256 442 256 426 265 c 0,106,107
 424 266 424 266 398 293.5 c 128,-1,108
 372 321 372 321 327 347 c 1,109,110
 303 323 303 323 281 301.5 c 128,-1,111
 259 280 259 280 233.5 255.5 c 128,-1,112
 208 231 208 231 205 228 c 0,113,114
 205 227 205 227 205 225 c 0,115,116
 205 207 205 207 204 160 c 0,117,118
 204 154 204 154 204 147 c 0,119,120
 204 105 204 105 209 75 c 1,121,122
 209 75 209 75 209 75 c 1,123,124
 234 75 234 75 252 61.5 c 128,-1,125
 270 48 270 48 277 44 c 1,126,127
 277 38 277 38 277 32 c 0,128,129
 277 14 277 14 273 10 c 0,130,131
 265 -5 265 -5 206 -8 c 0,132,133
 181 -10 181 -10 165 -10 c 0,134,135
 144 -10 144 -10 138 -8 c 0,136,137
 129 -3 129 -3 109.5 8 c 128,-1,138
 90 19 90 19 72 23 c 0,139,140
 71 25 71 25 67 37.5 c 128,-1,141
 63 50 63 50 63 62 c 1,142,143
 94 67 94 67 118 79 c 1,144,145
 118 94 118 94 118 109 c 0,146,147
 118 316 118 316 100 730 c 0,0,1
EndSplineSet
Validated: 5
EndChar

StartChar: l
Encoding: 108 108 47
Width: 832
GlyphClass: 2
Flags: W
LayerCount: 2
Fore
SplineSet
215 326 m 1,0,-1
 210 79 l 1,1,2
 210 79 210 79 211 79 c 0,3,4
 295 79 295 79 348 96 c 0,5,6
 357 99 357 99 375 99 c 0,7,8
 379 99 379 99 384 99 c 0,9,10
 390 99 390 99 395 99 c 0,11,12
 412 99 412 99 419 101 c 0,13,14
 421 102 421 102 426 102 c 0,15,16
 437 102 437 102 461 96 c 1,17,-1
 540 96 l 1,18,19
 568 88 568 88 601 88 c 0,20,21
 624 88 624 88 649 92 c 1,22,-1
 649 101 l 1,23,24
 649 101 649 101 651 123 c 128,-1,25
 653 145 653 145 656 151 c 1,26,27
 662 152 662 152 670.5 155.5 c 128,-1,28
 679 159 679 159 691 160 c 1,29,30
 694 152 694 152 703 151 c 128,-1,31
 712 150 712 150 719 144.5 c 128,-1,32
 726 139 726 139 745 84 c 0,33,34
 758 44 758 44 758 30 c 0,35,36
 758 24 758 24 756 22 c 0,37,38
 739 1 739 1 623 1 c 0,39,40
 571 1 571 1 498 5 c 0,41,42
 418 10 418 10 391 10 c 0,43,44
 386 10 386 10 383 10 c 0,45,46
 364 8 364 8 307 -2 c 0,47,48
 272 -9 272 -9 250 -9 c 0,49,50
 237 -9 237 -9 229 -6 c 0,51,52
 217 -3 217 -3 206 -3 c 0,53,54
 198 -3 198 -3 190 -5 c 0,55,56
 170 -11 170 -11 155 -11 c 0,57,58
 128 -11 128 -11 112 5 c 0,59,60
 107 10 107 10 107 40 c 0,61,62
 107 42 107 42 107 43 c 0,63,64
 107 76 107 76 115 106 c 128,-1,65
 123 136 123 136 125 212 c 0,66,67
 126 224 126 224 126 235 c 0,68,69
 126 295 126 295 116 339 c 1,70,71
 79 341 79 341 77 341 c 0,72,73
 57 371 57 371 56 379.5 c 128,-1,74
 55 388 55 388 55 391.5 c 128,-1,75
 55 395 55 395 62 399 c 128,-1,76
 69 403 69 403 73.5 404.5 c 128,-1,77
 78 406 78 406 92.5 410 c 128,-1,78
 107 414 107 414 116 417 c 1,79,80
 119 483 119 483 119 538 c 0,81,82
 119 652 119 652 108 716 c 1,83,-1
 86 719 l 1,84,85
 76 715 76 715 66 715 c 256,86,87
 56 715 56 715 45 719 c 0,88,89
 24 726 24 726 17.5 739.5 c 128,-1,90
 11 753 11 753 23 769 c 0,91,92
 31 778 31 778 135 794 c 0,93,94
 203 805 203 805 235 805 c 0,95,96
 251 805 251 805 257 802 c 0,97,98
 276 793 276 793 285.5 783.5 c 128,-1,99
 295 774 295 774 304 751 c 1,100,101
 300 736 300 736 298 734 c 0,102,103
 287 716 287 716 222 716 c 0,104,105
 215 716 215 716 206 716 c 1,106,107
 213 603 213 603 215 413 c 1,108,109
 276 405 276 405 276 352 c 0,110,111
 276 350 276 350 276 347 c 0,112,113
 273 344 273 344 271 336 c 1,114,115
 263 336 263 336 245 330 c 128,-1,116
 227 324 227 324 215 326 c 1,0,-1
EndSplineSet
Validated: 1
EndChar

StartChar: m
Encoding: 109 109 48
Width: 977
GlyphClass: 2
Flags: W
LayerCount: 2
Fore
SplineSet
861 -13 m 1,0,-1
 829 -9 l 2,1,2
 825 -9 825 -9 798 -11 c 0,3,4
 772 -14 772 -14 753 -14 c 0,5,6
 704 -14 704 -14 693 2 c 1,7,8
 679 10 679 10 676 29 c 1,9,10
 719 60 719 60 719 102 c 0,11,12
 719 106 719 106 719 109 c 0,13,14
 717 138 717 138 717 161 c 256,15,16
 717 184 717 184 719 200 c 0,17,18
 722 217 722 217 722 236 c 0,19,20
 722 250 722 250 720 264 c 0,21,22
 718 290 718 290 718 313 c 0,23,24
 718 319 718 319 718 324 c 0,25,26
 719 352 719 352 719 403 c 2,27,-1
 719 406 l 2,28,29
 719 456 719 456 718 526 c 0,30,31
 717 597 717 597 717 638 c 1,32,-1
 709 638 l 1,33,34
 683 594 683 594 616 521.5 c 128,-1,35
 549 449 549 449 530 376 c 1,36,37
 521 374 521 374 517.5 370 c 128,-1,38
 514 366 514 366 512 365 c 0,39,40
 504 364 504 364 498 364 c 0,41,42
 460 364 460 364 449 376 c 0,43,44
 439 384 439 384 426 408 c 128,-1,45
 413 432 413 432 406.5 441.5 c 128,-1,46
 400 451 400 451 373.5 472 c 128,-1,47
 347 493 347 493 339.5 502 c 128,-1,48
 332 511 332 511 306 544 c 128,-1,49
 280 577 280 577 245.5 615 c 128,-1,50
 211 653 211 653 178 668 c 1,51,52
 178 580 178 580 178 508 c 128,-1,53
 178 436 178 436 178 380 c 1,54,55
 202 374 202 374 224 354 c 0,56,57
 237 342 237 342 237 330 c 0,58,59
 237 321 237 321 231 312 c 0,60,61
 224 303 224 303 202.5 295.5 c 128,-1,62
 181 288 181 288 178 286 c 0,63,64
 178 274 178 274 176 237.5 c 128,-1,65
 174 201 174 201 170 143 c 0,66,67
 169 124 169 124 169 110 c 0,68,69
 169 82 169 82 174 77 c 0,70,71
 181 69 181 69 196 61 c 128,-1,72
 211 53 211 53 218.5 43 c 128,-1,73
 226 33 226 33 226 11 c 1,74,-1
 226 11 l 1,75,-1
 222 11 l 1,76,77
 213 -6 213 -6 165 -14 c 0,78,79
 142 -18 142 -18 120 -18 c 0,80,81
 94 -18 94 -18 69 -13 c 0,82,83
 23 -4 23 -4 19 20 c 1,84,85
 29 39 29 39 40 49.5 c 128,-1,86
 51 60 51 60 71 68 c 1,87,88
 84 147 84 147 84 286 c 1,89,90
 39 293 39 293 32 299 c 0,91,92
 15 310 15 310 15 320 c 0,93,94
 15 325 15 325 18 330 c 0,95,96
 34 352 34 352 84 371 c 1,97,98
 84 382 84 382 88 453.5 c 128,-1,99
 92 525 92 525 92 572 c 0,100,101
 92 639 92 639 84 657 c 0,102,103
 83 660 83 660 83 666 c 0,104,105
 83 675 83 675 87 692 c 0,106,107
 89 701 89 701 89 708 c 0,108,109
 89 722 89 722 80 727 c 0,110,111
 75 734 75 734 64 743 c 0,112,113
 41 761 41 761 41 788 c 1,114,-1
 45 788 l 1,115,116
 57 809 57 809 87 809 c 0,117,118
 106 809 106 809 132 801 c 0,119,120
 167 790 167 790 194.5 768.5 c 128,-1,121
 222 747 222 747 251 722 c 128,-1,122
 280 697 280 697 314 661.5 c 128,-1,123
 348 626 348 626 364.5 609 c 128,-1,124
 381 592 381 592 424 544 c 128,-1,125
 467 496 467 496 475 487 c 1,126,-1
 477 487 l 1,127,128
 496 508 496 508 525.5 552 c 128,-1,129
 555 596 555 596 566 609.5 c 128,-1,130
 577 623 577 623 595.5 639 c 128,-1,131
 614 655 614 655 624.5 665 c 128,-1,132
 635 675 635 675 658 712 c 128,-1,133
 681 749 681 749 683 751.5 c 128,-1,134
 685 754 685 754 713 771 c 1,135,136
 723 788 723 788 735 810 c 0,137,138
 739 813 739 813 752.5 814 c 128,-1,139
 766 815 766 815 770 819 c 0,140,141
 774 819 774 819 777 819 c 0,142,143
 811 819 811 819 829 805 c 0,144,145
 847 792 847 792 847 767 c 0,146,147
 847 762 847 762 846 758 c 0,148,149
 826 754 826 754 809 742 c 1,150,-1
 809 494 l 1,151,-1
 813 411 l 1,152,153
 805 358 805 358 805 301 c 0,154,155
 805 252 805 252 811 199 c 0,156,157
 812 191 812 191 812 179 c 0,158,159
 812 162 812 162 810 135 c 0,160,161
 808 107 808 107 808 92 c 0,162,163
 808 82 808 82 809 77 c 1,164,-1
 837 77 l 1,165,166
 842 81 842 81 849 81 c 0,167,168
 861 81 861 81 878 65 c 0,169,170
 903 41 903 41 903 18 c 0,171,172
 903 17 903 17 903 16 c 0,173,174
 900 14 900 14 885.5 2.5 c 128,-1,175
 871 -9 871 -9 861 -13 c 1,0,-1
EndSplineSet
Validated: 5
EndChar

StartChar: n
Encoding: 110 110 49
Width: 878
GlyphClass: 2
Flags: W
LayerCount: 2
Fore
SplineSet
607 520 m 1,0,-1
 602 561 l 1,1,2
 608 580 608 580 609 627 c 128,-1,3
 610 674 610 674 616 694 c 0,4,5
 618 701 618 701 618 709 c 0,6,7
 618 724 618 724 610 742 c 0,8,9
 598 769 598 769 598 786 c 1,10,11
 612 787 612 787 627 796.5 c 128,-1,12
 642 806 642 806 646 808 c 0,13,14
 665 817 665 817 689 817 c 0,15,16
 735 817 735 817 799 782 c 1,17,18
 802 758 802 758 803 753 c 1,19,20
 783 739 783 739 751.5 731 c 128,-1,21
 720 723 720 723 718 723 c 0,22,23
 712 687 712 687 705 646 c 1,24,25
 707 628 707 628 709 613 c 0,26,27
 709 610 709 610 709 607 c 0,28,29
 709 582 709 582 707 544 c 0,30,31
 704 502 704 502 701 493 c 128,-1,32
 698 484 698 484 699.5 465.5 c 128,-1,33
 701 447 701 447 702 435 c 128,-1,34
 703 423 703 423 696 415 c 0,35,36
 695 411 695 411 695 406 c 0,37,38
 695 392 695 392 700 367 c 0,39,40
 704 348 704 348 704 334 c 0,41,42
 704 323 704 323 701 315 c 0,43,44
 696 297 696 297 693 175 c 0,45,46
 691 109 691 109 691 76 c 0,47,48
 691 47 691 47 692 43 c 0,49,50
 695 33 695 33 710 16.5 c 128,-1,51
 725 0 725 0 727 -2 c 0,52,53
 763 -54 763 -54 770 -116 c 1,54,55
 756 -140 756 -140 729 -140 c 1,56,-1
 729 -140 l 1,57,58
 725 -136 725 -136 714.5 -133 c 128,-1,59
 704 -130 704 -130 694.5 -122 c 128,-1,60
 685 -114 685 -114 671.5 -96 c 128,-1,61
 658 -78 658 -78 642.5 -51 c 128,-1,62
 627 -24 627 -24 618.5 -11 c 128,-1,63
 610 2 610 2 582 31 c 128,-1,64
 554 60 554 60 543 79 c 0,65,66
 502 149 502 149 436.5 289 c 128,-1,67
 371 429 371 429 360 450 c 128,-1,68
 349 471 349 471 348.5 488.5 c 128,-1,69
 348 506 348 506 344.5 511.5 c 128,-1,70
 341 517 341 517 328 529 c 128,-1,71
 315 541 315 541 308 550.5 c 128,-1,72
 301 560 301 560 285 589 c 128,-1,73
 269 618 269 618 262 627.5 c 128,-1,74
 255 637 255 637 242 646 c 128,-1,75
 229 655 229 655 225 662 c 1,76,-1
 216 662 l 1,77,-1
 216 646 l 1,78,79
 220 587 220 587 233 391 c 1,80,81
 245 390 245 390 259 382.5 c 128,-1,82
 273 375 273 375 277 367 c 0,83,84
 288 358 288 358 288 341 c 0,85,86
 288 329 288 329 284 314 c 1,87,88
 274 311 274 311 256 305 c 128,-1,89
 238 299 238 299 233 297 c 1,90,91
 233 250 233 250 233 213 c 0,92,93
 233 92 233 92 238 86 c 0,94,95
 245 77 245 77 258.5 70 c 128,-1,96
 272 63 272 63 279 52 c 0,97,98
 286 42 286 42 286 20 c 0,99,100
 286 19 286 19 286 18 c 2,101,-1
 281 18 l 1,102,103
 273 3 273 3 219 -3 c 0,104,105
 187 -7 187 -7 155 -7 c 0,106,107
 133 -7 133 -7 111 -5 c 0,108,109
 56 -1 56 -1 46 13 c 1,110,-1
 46 39 l 1,111,112
 42 43 42 43 41 52 c 1,113,114
 83 71 83 71 122 74 c 1,115,116
 127 95 127 95 132 187 c 0,117,118
 135 235 135 235 135 261 c 0,119,120
 135 284 135 284 133 289 c 0,121,122
 128 298 128 298 126 301 c 0,123,124
 124 301 124 301 122 301 c 0,125,126
 76 301 76 301 37 325 c 1,127,128
 38 349 38 349 51.5 360.5 c 128,-1,129
 65 372 65 372 90.5 379 c 128,-1,130
 116 386 116 386 126 393 c 1,131,132
 128 425 128 425 128 453 c 0,133,134
 128 538 128 538 113 587 c 0,135,136
 110 597 110 597 112 613.5 c 128,-1,137
 114 630 114 630 112.5 636.5 c 128,-1,138
 111 643 111 643 113 665.5 c 128,-1,139
 115 688 115 688 116 702.5 c 128,-1,140
 117 717 117 717 109 729 c 0,141,142
 101 740 101 740 66.5 743.5 c 128,-1,143
 32 747 32 747 24 755 c 0,144,145
 22 756 22 756 19 757.5 c 128,-1,146
 16 759 16 759 15 760 c 0,147,148
 15 776 15 776 19 788.5 c 128,-1,149
 23 801 23 801 24 803 c 0,150,151
 50 809 50 809 77 809 c 0,152,153
 129 809 129 809 179 786 c 0,154,155
 186 782 186 782 203.5 780 c 128,-1,156
 221 778 221 778 229 773 c 0,157,158
 372 677 372 677 456 507 c 0,159,160
 465 487 465 487 477.5 450 c 128,-1,161
 490 413 490 413 497 398.5 c 128,-1,162
 504 384 504 384 539 317.5 c 128,-1,163
 574 251 574 251 589 214 c 1,164,-1
 594 214 l 1,165,166
 594 222 594 222 594 234 c 0,167,168
 594 254 594 254 593 286 c 0,169,170
 593 315 593 315 593 347 c 0,171,172
 593 373 593 373 593 401 c 0,173,174
 594 465 594 465 607 520 c 1,0,-1
EndSplineSet
Validated: 5
EndChar

StartChar: o
Encoding: 111 111 50
Width: 834
GlyphClass: 2
Flags: W
LayerCount: 2
Fore
SplineSet
559 304 m 1,0,-1
 506 334 l 1,1,2
 507 348 507 348 508 365 c 1,3,4
 539 386 539 386 572 391 c 1,5,-1
 572 441 l 1,6,7
 565 449 565 449 566 472 c 0,8,9
 566 476 566 476 566 479 c 0,10,11
 566 497 566 497 563 507 c 0,12,13
 531 590 531 590 518 612.5 c 128,-1,14
 505 635 505 635 470 656.5 c 128,-1,15
 435 678 435 678 425 695 c 0,16,17
 424 695 424 695 423 695 c 0,18,19
 387 695 387 695 358 670 c 0,20,21
 328 645 328 645 314 610 c 0,22,23
 302 580 302 580 302 547 c 0,24,25
 302 541 302 541 302 535 c 0,26,27
 305 496 305 496 327 472 c 0,28,29
 328 472 328 472 329 472 c 0,30,31
 351 472 351 472 365 490 c 256,32,33
 379 508 379 508 382 533 c 1,34,35
 410 539 410 539 424 539 c 0,36,37
 425 539 425 539 426 539 c 0,38,39
 440 539 440 539 465 524 c 1,40,41
 467 510 467 510 467 496 c 0,42,43
 467 473 467 473 460 454 c 0,44,45
 451 424 451 424 431 410 c 128,-1,46
 411 396 411 396 384 390 c 0,47,48
 373 388 373 388 360 388 c 0,49,50
 345 388 345 388 329 391 c 0,51,52
 300 398 300 398 273 411 c 128,-1,53
 246 424 246 424 224.5 446 c 128,-1,54
 203 468 203 468 192 494 c 1,55,56
 190 491 190 491 190 489 c 0,57,58
 177 477 177 477 170 443 c 0,59,60
 163 410 163 410 163 380 c 0,61,62
 163 379 163 379 163 378 c 0,63,64
 194 377 194 377 210 356 c 0,65,66
 219 344 219 344 219 330 c 0,67,68
 219 319 219 319 214 306 c 1,69,70
 206 305 206 305 187.5 302 c 128,-1,71
 169 299 169 299 159 297 c 0,72,73
 159 295 159 295 159 292 c 0,74,75
 159 224 159 224 190 173 c 0,76,77
 223 120 223 120 272 96 c 0,78,79
 311 77 311 77 358 77 c 0,80,81
 369 77 369 77 380 79 c 0,82,83
 440 84 440 84 491 123 c 0,84,85
 511 138 511 138 533 200 c 128,-1,86
 555 262 555 262 559 304 c 1,0,-1
369 788 m 0,87,88
 371 788 371 788 374 788 c 0,89,90
 500 788 500 788 571 716 c 0,91,92
 634 651 634 651 674 542 c 0,93,94
 683 519 683 519 684.5 465.5 c 128,-1,95
 686 412 686 412 696 391 c 1,96,97
 704 389 704 389 721 384.5 c 128,-1,98
 738 380 738 380 746 378 c 1,99,100
 747 373 747 373 753 357.5 c 128,-1,101
 759 342 759 342 759 326 c 0,102,103
 757 324 757 324 755 321.5 c 128,-1,104
 753 319 753 319 747 316 c 128,-1,105
 741 313 741 313 728.5 310.5 c 128,-1,106
 716 308 716 308 700 306.5 c 128,-1,107
 684 305 684 305 674 304 c 1,108,109
 670 221 670 221 620.5 134 c 128,-1,110
 571 47 571 47 511 22 c 0,111,112
 487 13 487 13 443 9.5 c 128,-1,113
 399 6 399 6 371 -1 c 0,114,115
 358 -4 358 -4 341 -4 c 0,116,117
 319 -4 319 -4 290 1 c 0,118,119
 238 9 238 9 211 27 c 0,120,121
 97 101 97 101 70 184 c 0,122,123
 67 202 67 202 52 297 c 0,124,125
 47 313 47 313 35 321 c 0,126,127
 15 334 15 334 15 367 c 1,128,129
 15 367 15 367 15 367 c 1,130,131
 16 368 16 368 25 373 c 128,-1,132
 34 378 34 378 43.5 384 c 128,-1,133
 53 390 53 390 56 400 c 1,134,135
 63 408 63 408 72.5 469 c 128,-1,136
 82 530 82 530 87 542 c 0,137,138
 154 700 154 700 284 769 c 0,139,140
 297 776 297 776 326 779.5 c 128,-1,141
 355 783 355 783 369 788 c 0,87,88
EndSplineSet
Validated: 5
EndChar

StartChar: p
Encoding: 112 112 51
Width: 648
GlyphClass: 2
Flags: W
LayerCount: 2
Fore
SplineSet
191 815 m 0,0,1
 194 814 194 814 197 814 c 0,2,3
 215 814 215 814 262 816 c 0,4,5
 272 817 272 817 280 817 c 0,6,7
 326 817 326 817 353 806 c 0,8,9
 386 794 386 794 429 775 c 128,-1,10
 472 756 472 756 509 723 c 0,11,12
 574 665 574 665 574 581 c 0,13,14
 574 539 574 539 558 492 c 0,15,16
 549 463 549 463 521 422.5 c 128,-1,17
 493 382 493 382 450.5 360.5 c 128,-1,18
 408 339 408 339 337 319 c 128,-1,19
 266 299 266 299 239 288 c 1,20,21
 224 203 224 203 224 146 c 0,22,23
 224 109 224 109 231 83 c 1,24,25
 246 90 246 90 262 90 c 0,26,27
 271 90 271 90 281 88 c 0,28,29
 308 82 308 82 322 66 c 0,30,31
 333 58 333 58 333 35 c 0,32,33
 333 25 333 25 331 13 c 1,34,-1
 322 13 l 1,35,36
 312 4 312 4 282 4 c 1,37,38
 282 4 282 4 282 4 c 257,39,40
 282 4 282 4 281 4 c 0,41,42
 252 4 252 4 235 0 c 0,43,44
 185 -16 185 -16 140 -16 c 0,45,46
 131 -16 131 -16 123 -15 c 0,47,48
 70 -12 70 -12 47 0 c 0,49,50
 47 2 47 2 47 4 c 0,51,52
 47 19 47 19 51 35 c 0,53,54
 56 52 56 52 56 66 c 1,55,56
 59 66 59 66 70.5 67.5 c 128,-1,57
 82 69 82 69 97.5 71 c 128,-1,58
 113 73 113 73 119 78.5 c 128,-1,59
 125 84 125 84 130 176 c 0,60,61
 132 215 132 215 132 239 c 0,62,63
 132 271 132 271 128 275 c 0,64,65
 128 276 128 276 76.5 288 c 128,-1,66
 25 300 25 300 17 302 c 1,67,68
 15 313 15 313 15 324 c 0,69,70
 15 363 15 363 41 384 c 0,71,72
 63 403 63 403 97 403 c 0,73,74
 112 403 112 403 128 400 c 1,75,76
 129 415 129 415 129.5 457.5 c 128,-1,77
 130 500 130 500 131 528 c 0,78,79
 135 607 135 607 159 638 c 1,80,81
 165 639 165 639 171 639 c 0,82,83
 181 639 181 639 191 636 c 0,84,85
 209 631 209 631 215.5 627.5 c 128,-1,86
 222 624 222 624 239 614 c 1,87,88
 243 588 243 588 243 557 c 0,89,90
 243 542 243 542 242 526 c 0,91,92
 239 476 239 476 239 467.5 c 128,-1,93
 239 459 239 459 238 428 c 0,94,95
 237 423 237 423 237 418 c 0,96,97
 237 396 237 396 244 391 c 1,98,-1
 244 387 l 1,99,100
 307 397 307 397 364.5 427 c 128,-1,101
 422 457 422 457 449 498 c 0,102,103
 455 507 455 507 455.5 525.5 c 128,-1,104
 456 544 456 544 458 553 c 0,105,106
 462 571 462 571 462 588 c 0,107,108
 462 622 462 622 446 649 c 0,109,110
 421 690 421 690 373 718 c 0,111,112
 341 737 341 737 290 737 c 0,113,114
 266 737 266 737 239 733 c 0,115,116
 202 728 202 728 167 723 c 0,117,118
 138 718 138 718 115 718 c 0,119,120
 67 718 67 718 39 736 c 0,121,122
 38 740 38 740 38 745 c 0,123,124
 38 769 38 769 47 777 c 0,125,126
 58 795 58 795 85 798.5 c 128,-1,127
 112 802 112 802 144 803 c 128,-1,128
 176 804 176 804 191 815 c 0,0,1
EndSplineSet
Validated: 5
EndChar

StartChar: q
Encoding: 113 113 52
Width: 886
GlyphClass: 2
Flags: W
LayerCount: 2
Fore
SplineSet
653 367 m 1,0,1
 644 366 644 366 637 366 c 0,2,3
 614 366 614 366 609 371 c 0,4,5
 607 373 607 373 600.5 378 c 128,-1,6
 594 383 594 383 590 386 c 1,7,-1
 590 410 l 1,8,9
 595 415 595 415 604.5 429.5 c 128,-1,10
 614 444 614 444 620.5 448 c 128,-1,11
 627 452 627 452 639.5 456.5 c 128,-1,12
 652 461 652 461 657 465 c 1,13,14
 647 495 647 495 631 554.5 c 128,-1,15
 615 614 615 614 589.5 640 c 128,-1,16
 564 666 564 666 510 687 c 0,17,18
 481 697 481 697 460 697 c 0,19,20
 440 697 440 697 426 688 c 0,21,22
 409 676 409 676 371 614 c 0,23,24
 342 566 342 566 342 547 c 0,25,26
 342 540 342 540 345 537 c 0,27,28
 346 523 346 523 346.5 506.5 c 128,-1,29
 347 490 347 490 348.5 476.5 c 128,-1,30
 350 463 350 463 361 456 c 0,31,32
 368 452 368 452 378 452 c 0,33,34
 386 452 386 452 395 454 c 1,35,36
 403 495 403 495 429 510 c 0,37,38
 442 517 442 517 453 517 c 0,39,40
 466 517 466 517 478 508 c 0,41,42
 498 493 498 493 498 461 c 0,43,44
 498 459 498 459 498 456 c 0,45,46
 490 447 490 447 476.5 418.5 c 128,-1,47
 463 390 463 390 448 380 c 1,48,49
 427 377 427 377 417 375 c 0,50,51
 397 368 397 368 377 368 c 0,52,53
 345 368 345 368 316 389 c 0,54,55
 269 422 269 422 251 474 c 1,56,-1
 251 504 l 1,57,58
 245 527 245 527 245 549 c 0,59,60
 245 562 245 562 247 574 c 0,61,62
 263 623 263 623 306 705 c 1,63,64
 304 703 304 703 302 701 c 0,65,66
 273 684 273 684 260.5 666 c 128,-1,67
 248 648 248 648 242 640.5 c 128,-1,68
 236 633 236 633 227.5 612 c 128,-1,69
 219 591 219 591 217 586 c 128,-1,70
 215 581 215 581 204.5 552 c 128,-1,71
 194 523 194 523 188 509 c 0,72,73
 173 474 173 474 173 457 c 0,74,75
 173 449 173 449 177 445 c 0,76,77
 178 443 178 443 188 431.5 c 128,-1,78
 198 420 198 420 199 404 c 1,79,80
 178 387 178 387 172 365 c 0,81,82
 168 347 168 347 168 312 c 0,83,84
 168 304 168 304 168 295 c 1,85,86
 176 286 176 286 179 258 c 0,87,88
 187 189 187 189 262 117 c 0,89,90
 298 82 298 82 344 82 c 0,91,92
 361 82 361 82 380 87 c 0,93,94
 391 90 391 90 415 91 c 128,-1,95
 439 92 439 92 454 97 c 128,-1,96
 469 102 469 102 474 118 c 1,97,98
 464 122 464 122 455.5 131.5 c 128,-1,99
 447 141 447 141 443 144 c 0,100,101
 397 157 397 157 395 157 c 0,102,103
 380 166 380 166 378 194 c 1,104,105
 384 205 384 205 395 225 c 1,106,107
 408 227 408 227 421 227 c 0,108,109
 471 227 471 227 518 189 c 0,110,111
 543 168 543 168 553 161 c 1,112,113
 587 193 587 193 620 255 c 128,-1,114
 653 317 653 317 653 367 c 1,0,1
35 469 m 1,115,116
 40 469 40 469 44 469 c 0,117,118
 65 469 65 469 75 474 c 1,119,120
 82 580 82 580 135.5 668.5 c 128,-1,121
 189 757 189 757 267 808 c 0,122,123
 278 815 278 815 302 816 c 128,-1,124
 326 817 326 817 337 821 c 0,125,126
 364 828 364 828 397 828 c 0,127,128
 423 828 423 828 452 824 c 0,129,130
 521 814 521 814 564 790 c 0,131,132
 573 785 573 785 588.5 765.5 c 128,-1,133
 604 746 604 746 609.5 742.5 c 128,-1,134
 615 739 615 739 636.5 728.5 c 128,-1,135
 658 718 658 718 672 703.5 c 128,-1,136
 686 689 686 689 699.5 653.5 c 128,-1,137
 713 618 713 618 725 573 c 128,-1,138
 737 528 737 528 744 513 c 128,-1,139
 751 498 751 498 751 481.5 c 128,-1,140
 751 465 751 465 760 458 c 0,141,142
 770 455 770 455 795 447 c 0,143,144
 798 445 798 445 801 438 c 128,-1,145
 804 431 804 431 808 428 c 1,146,-1
 808 395 l 2,147,148
 807 394 807 394 785.5 383 c 128,-1,149
 764 372 764 372 760 365 c 0,150,151
 755 359 755 359 742.5 297 c 128,-1,152
 730 235 730 235 725 225 c 0,153,154
 699 170 699 170 653 105 c 0,155,156
 651 101 651 101 640 92.5 c 128,-1,157
 629 84 629 84 627 79 c 0,158,159
 626 77 626 77 626 74 c 0,160,161
 626 56 626 56 665 6 c 0,162,163
 710 -51 710 -51 725 -57 c 1,164,165
 735 -24 735 -24 783 -24 c 0,166,167
 787 -24 787 -24 791 -24 c 0,168,169
 811 -79 811 -79 811 -125 c 0,170,171
 811 -152 811 -152 804 -177 c 1,172,173
 799 -178 799 -178 788 -182 c 128,-1,174
 777 -186 777 -186 769 -189 c 0,175,176
 762 -191 762 -191 754 -191 c 0,177,178
 726 -191 726 -191 697 -159 c 0,179,180
 682 -142 682 -142 665.5 -118.5 c 128,-1,181
 649 -95 649 -95 640 -85 c 0,182,183
 610 -56 610 -56 568 -15 c 0,184,185
 563 -9 563 -9 556.5 7.5 c 128,-1,186
 550 24 550 24 544 31 c 1,187,188
 479 10 479 10 445 -1 c 0,189,190
 422 -9 422 -9 391 -9 c 0,191,192
 375 -9 375 -9 358 -7 c 0,193,194
 306 -1 306 -1 258 24 c 0,195,196
 249 28 249 28 221.5 38 c 128,-1,197
 194 48 194 48 182 59 c 0,198,199
 177 69 177 69 173 79 c 1,200,201
 162 89 162 89 127 122 c 1,202,203
 105 154 105 154 94.5 191 c 128,-1,204
 84 228 84 228 76.5 295 c 128,-1,205
 69 362 69 362 66 380 c 1,206,207
 49 383 49 383 26 407 c 0,208,209
 15 419 15 419 15 430 c 0,210,211
 15 442 15 442 27 453 c 0,212,213
 33 459 33 459 35 469 c 1,115,116
EndSplineSet
Validated: 1
EndChar

StartChar: r
Encoding: 114 114 53
Width: 894
GlyphClass: 2
Flags: W
LayerCount: 2
Fore
SplineSet
237 85 m 2,0,1
 238 85 238 85 239 85 c 0,2,3
 266 85 266 85 297 58 c 0,4,5
 317 40 317 40 317 25 c 0,6,7
 317 16 317 16 311 9 c 0,8,9
 300 -4 300 -4 249 -8 c 0,10,11
 220 -10 220 -10 191 -10 c 0,12,13
 168 -10 168 -10 145 -9 c 0,14,15
 93 -6 93 -6 66 0 c 1,16,17
 65 9 65 9 63 12.5 c 128,-1,18
 61 16 61 16 53 20 c 0,19,20
 53 21 53 21 53 22 c 0,21,22
 53 43 53 43 62 72 c 0,23,24
 65 73 65 73 92 76.5 c 128,-1,25
 119 80 119 80 134 85 c 0,26,27
 135 88 135 88 139 112 c 0,28,29
 149 177 149 177 149 215 c 128,-1,30
 149 253 149 253 138 264 c 1,31,-1
 138 268 l 1,32,33
 130 268 130 268 123 268 c 0,34,35
 76 268 76 268 69 285 c 0,36,37
 67 290 67 290 65.5 296.5 c 128,-1,38
 64 303 64 303 62 308 c 0,39,40
 55 322 55 322 55 332 c 0,41,42
 55 339 55 339 59 344 c 0,43,44
 68 355 68 355 83 357 c 0,45,46
 133 364 133 364 138 371 c 0,47,48
 146 379 146 379 146 425 c 0,49,50
 146 457 146 457 142 508 c 0,51,52
 138 567 138 567 138 601 c 0,53,54
 138 638 138 638 143 646 c 0,55,56
 154 659 154 659 183 659 c 0,57,58
 184 659 184 659 187 659 c 0,59,60
 192 650 192 650 211 636.5 c 128,-1,61
 230 623 230 623 237 611 c 1,62,63
 235 602 235 602 235 572 c 0,64,65
 235 540 235 540 237 484 c 0,66,67
 240 377 240 377 248 364 c 1,68,69
 263 374 263 374 308 374 c 128,-1,70
 353 374 353 374 367 379.5 c 128,-1,71
 381 385 381 385 430.5 399.5 c 128,-1,72
 480 414 480 414 510 429 c 0,73,74
 576 463 576 463 576 539 c 0,75,76
 576 557 576 557 572 578 c 0,77,78
 561 643 561 643 525 668 c 0,79,80
 477 701 477 701 372 719 c 0,81,82
 329 726 329 726 290 726 c 0,83,84
 233 726 233 726 182 711 c 0,85,86
 93 684 93 684 55 684 c 0,87,88
 38 684 38 684 32 690 c 0,89,90
 23 696 23 696 21.5 704.5 c 128,-1,91
 20 713 20 713 18 719 c 128,-1,92
 16 725 16 725 15 731 c 128,-1,93
 14 737 14 737 15.5 742 c 128,-1,94
 17 747 17 747 18 751 c 128,-1,95
 19 755 19 755 24 759 c 128,-1,96
 29 763 29 763 30.5 765 c 128,-1,97
 32 767 32 767 39.5 770.5 c 128,-1,98
 47 774 47 774 49 775 c 128,-1,99
 51 776 51 776 60 779.5 c 128,-1,100
 69 783 69 783 71 784 c 0,101,102
 123 805 123 805 228 813 c 0,103,104
 264 816 264 816 295 816 c 0,105,106
 356 816 356 816 400 805 c 0,107,108
 495 781 495 781 560.5 743 c 128,-1,109
 626 705 626 705 658 642 c 0,110,111
 663 631 663 631 663 610 c 1,112,-1
 663 610 l 1,113,114
 663 610 663 610 663 609 c 0,115,116
 663 588 663 588 667 574 c 0,117,118
 675 547 675 547 675 520 c 0,119,120
 675 466 675 466 643 415 c 0,121,122
 621 382 621 382 592 359.5 c 128,-1,123
 563 337 563 337 534 330 c 1,124,-1
 534 321 l 1,125,126
 569 305 569 305 597.5 271.5 c 128,-1,127
 626 238 626 238 642 205.5 c 128,-1,128
 658 173 658 173 680.5 127 c 128,-1,129
 703 81 703 81 719 55 c 1,130,-1
 721 59 l 1,131,132
 736 71 736 71 756 107 c 0,133,134
 759 107 759 107 775.5 111 c 128,-1,135
 792 115 792 115 799 108.5 c 128,-1,136
 806 102 806 102 815 10 c 0,137,138
 820 -32 820 -32 820 -58 c 0,139,140
 820 -87 820 -87 814 -95 c 0,141,142
 803 -110 803 -110 779 -112 c 0,143,144
 777 -112 777 -112 776 -112 c 0,145,146
 752 -112 752 -112 717 -85 c 0,147,148
 680 -55 680 -55 666 -35.5 c 128,-1,149
 652 -16 652 -16 639.5 8 c 128,-1,150
 627 32 627 32 616 56 c 128,-1,151
 605 80 605 80 583 126 c 128,-1,152
 561 172 561 172 532 213.5 c 128,-1,153
 503 255 503 255 463 276 c 0,154,155
 442 287 442 287 416 287 c 0,156,157
 391 287 391 287 361 277 c 0,158,159
 349 272 349 272 319 272 c 0,160,161
 310 272 310 272 298 273 c 0,162,163
 290 273 290 273 283 273 c 0,164,165
 250 273 250 273 245 264 c 0,166,167
 242 261 242 261 239 187 c 0,168,169
 237 115 237 115 237 87 c 2,170,-1
 237 85 l 2,0,1
EndSplineSet
Validated: 5
EndChar

StartChar: s
Encoding: 115 115 54
Width: 749
GlyphClass: 2
Flags: W
LayerCount: 2
Fore
SplineSet
334 832 m 1,0,1
 344 833 344 833 353 833 c 0,2,3
 521 833 521 833 556 765 c 1,4,-1
 572 765 l 1,5,6
 579 781 579 781 588.5 787.5 c 128,-1,7
 598 794 598 794 620 793 c 1,8,9
 629 785 629 785 640.5 781 c 128,-1,10
 652 777 652 777 659.5 771 c 128,-1,11
 667 765 667 765 674 747 c 1,12,13
 668 734 668 734 643 707.5 c 128,-1,14
 618 681 618 681 586 655 c 0,15,16
 532 610 532 610 501 610 c 0,17,18
 487 610 487 610 478 618 c 0,19,20
 474 621 474 621 469 625 c 0,21,22
 469 626 469 626 469 626 c 2,23,24
 469 651 469 651 481 674 c 0,25,26
 493 698 493 698 495 710 c 1,27,28
 463 734 463 734 430 739 c 0,29,30
 418 741 418 741 407 741 c 0,31,32
 387 741 387 741 370 734 c 0,33,34
 343 724 343 724 324.5 701.5 c 128,-1,35
 306 679 306 679 300 652 c 0,36,37
 297 642 297 642 297 631 c 0,38,39
 297 612 297 612 305 591 c 0,40,41
 315 558 315 558 345 529 c 0,42,43
 347 526 347 526 354 518.5 c 128,-1,44
 361 511 361 511 369.5 503 c 128,-1,45
 378 495 378 495 393 494 c 1,46,47
 395 508 395 508 402.5 522 c 128,-1,48
 410 536 410 536 410 538 c 0,49,50
 416 539 416 539 421 540 c 0,51,52
 426 536 426 536 450.5 527.5 c 128,-1,53
 475 519 475 519 482 511 c 0,54,55
 493 502 493 502 493 485 c 0,56,57
 493 471 493 471 486 452 c 0,58,59
 481 439 481 439 491 424 c 0,60,61
 497 408 497 408 528.5 385.5 c 128,-1,62
 560 363 560 363 567 350 c 0,63,64
 605 288 605 288 615 204 c 0,65,66
 616 196 616 196 611.5 186.5 c 128,-1,67
 607 177 607 177 605 171.5 c 128,-1,68
 603 166 603 166 599.5 136 c 128,-1,69
 596 106 596 106 585 94 c 0,70,71
 547 54 547 54 518 32.5 c 128,-1,72
 489 11 489 11 415 -2 c 0,73,74
 359 -13 359 -13 301 -13 c 0,75,76
 282 -13 282 -13 262 -12 c 0,77,78
 185 -7 185 -7 148 18 c 0,79,80
 133 28 133 28 115.5 49.5 c 128,-1,81
 98 71 98 71 90 86 c 0,82,83
 85 96 85 96 85 115 c 0,84,85
 85 126 85 126 87 140 c 0,86,87
 88 151 88 151 88 160 c 0,88,89
 88 180 88 180 80 186 c 1,90,-1
 80 191 l 1,91,92
 76 190 76 190 72 190 c 0,93,94
 18 190 18 190 15 230 c 1,95,96
 19 235 19 235 23 250.5 c 128,-1,97
 27 266 27 266 32 271 c 0,98,99
 36 272 36 272 63 280 c 0,100,101
 73 284 73 284 91.5 293.5 c 128,-1,102
 110 303 110 303 130 311 c 0,103,104
 148 320 148 320 167 320 c 0,105,106
 195 320 195 320 225 302 c 0,107,108
 226 301 226 301 230.5 298.5 c 128,-1,109
 235 296 235 296 236 295 c 128,-1,110
 237 294 237 294 240.5 291.5 c 128,-1,111
 244 289 244 289 244.5 287.5 c 128,-1,112
 245 286 245 286 248 282 c 128,-1,113
 251 278 251 278 251 260 c 0,114,115
 249 259 249 259 246.5 255 c 128,-1,116
 244 251 244 251 239 246.5 c 128,-1,117
 234 242 234 242 218 239 c 128,-1,118
 202 236 202 236 192.5 228.5 c 128,-1,119
 183 221 183 221 183 201 c 1,120,121
 179 197 179 197 179 180 c 0,122,123
 179 172 179 172 180 161 c 0,124,125
 183 127 183 127 183 116 c 1,126,127
 190 110 190 110 211 90 c 1,128,129
 238 80 238 80 277 80 c 0,130,131
 308 80 308 80 346 86 c 0,132,133
 432 101 432 101 461.5 123 c 128,-1,134
 491 145 491 145 506 187 c 0,135,136
 517 219 517 219 517 235 c 0,137,138
 517 240 517 240 516 243 c 0,139,140
 511 257 511 257 503 272 c 128,-1,141
 495 287 495 287 479.5 308 c 128,-1,142
 464 329 464 329 460 335 c 1,143,144
 438 326 438 326 424 326 c 0,145,146
 415 326 415 326 410 330 c 0,147,148
 401 337 401 337 398.5 361 c 128,-1,149
 396 385 396 385 386.5 394.5 c 128,-1,150
 377 404 377 404 348 418 c 128,-1,151
 319 432 319 432 312 437 c 0,152,153
 252 478 252 478 212 562 c 0,154,155
 194 601 194 601 194 648 c 0,156,157
 194 649 194 649 194 650 c 0,158,159
 194 698 194 698 220 738 c 128,-1,160
 246 778 246 778 259.5 789 c 128,-1,161
 273 800 273 800 299 810 c 128,-1,162
 325 820 325 820 334 832 c 1,0,1
EndSplineSet
Validated: 1
EndChar

StartChar: t
Encoding: 116 116 55
Width: 862
GlyphClass: 2
Flags: W
LayerCount: 2
Fore
SplineSet
381 66 m 1,0,1
 394 65 394 65 409 65 c 256,2,3
 424 65 424 65 442 66 c 0,4,5
 451 67 451 67 460 67 c 0,6,7
 486 67 486 67 513 62 c 0,8,9
 550 57 550 57 560 42 c 0,10,11
 568 36 568 36 568 23 c 0,12,13
 568 14 568 14 565 3 c 1,14,15
 544 0 544 0 470 -3 c 128,-1,16
 396 -6 396 -6 364 -19 c 0,17,18
 351 -24 351 -24 336.5 -21 c 128,-1,19
 322 -18 322 -18 308 -15 c 128,-1,20
 294 -12 294 -12 283 -16 c 0,21,22
 275 -19 275 -19 254 -19 c 0,23,24
 246 -19 246 -19 235 -19 c 0,25,26
 199 -17 199 -17 194 -6 c 1,27,28
 181 3 181 3 181 25 c 1,29,30
 185 28 185 28 189 38 c 1,31,32
 197 41 197 41 234.5 47 c 128,-1,33
 272 53 272 53 279 62 c 0,34,35
 285 67 285 67 293 182 c 0,36,37
 301 293 301 293 301 345 c 0,38,39
 301 348 301 348 301 350 c 0,40,41
 286 352 286 352 275 360 c 128,-1,42
 264 368 264 368 261 370 c 0,43,44
 260 390 260 390 267 397 c 128,-1,45
 274 404 274 404 279 406.5 c 128,-1,46
 284 409 284 409 287 410.5 c 128,-1,47
 290 412 290 412 296.5 414.5 c 128,-1,48
 303 417 303 417 305 418 c 0,49,50
 306 426 306 426 306 442 c 0,51,52
 306 464 306 464 304 502 c 0,53,54
 303 534 303 534 303 562 c 0,55,56
 303 666 303 666 318 695 c 1,57,58
 304 701 304 701 207 705 c 0,59,60
 170 706 170 706 146 706 c 0,61,62
 108 706 108 706 104 703 c 0,63,64
 97 697 97 697 93 683.5 c 128,-1,65
 89 670 89 670 78 666 c 0,66,67
 76 667 76 667 61.5 671 c 128,-1,68
 47 675 47 675 43 679 c 0,69,70
 35 686 35 686 23 749 c 0,71,72
 15 792 15 792 15 812 c 0,73,74
 15 822 15 822 17 826 c 256,75,76
 19 830 19 830 25.5 837 c 128,-1,77
 32 844 32 844 34 850 c 1,78,79
 43 850 43 850 50 850 c 0,80,81
 66 850 66 850 75 848 c 0,82,83
 87 846 87 846 106 834 c 0,84,85
 107 831 107 831 108.5 815.5 c 128,-1,86
 110 800 110 800 111 800 c 0,87,88
 118 793 118 793 141 793 c 0,89,90
 166 793 166 793 210 800 c 0,91,92
 221 802 221 802 232 802 c 0,93,94
 251 802 251 802 271 797 c 0,95,96
 301 790 301 790 369 790 c 2,97,-1
 374 790 l 2,98,99
 445 790 445 790 467 797 c 0,100,101
 487 803 487 803 515 803 c 0,102,103
 519 803 519 803 523 803 c 0,104,105
 532 803 532 803 540 803 c 0,106,107
 560 803 560 803 570 805 c 0,108,109
 576 806 576 806 590 806 c 0,110,111
 605 806 605 806 628 804 c 0,112,113
 637 804 637 804 644 804 c 0,114,115
 675 804 675 804 685 813 c 0,116,117
 692 817 692 817 713 854 c 0,118,119
 717 854 717 854 721 854 c 0,120,121
 743 854 743 854 752 850 c 0,122,123
 762 845 762 845 772 839 c 128,-1,124
 782 833 782 833 787 830 c 1,125,126
 786 787 786 787 777 727.5 c 128,-1,127
 768 668 768 668 755 636 c 1,128,129
 725 636 725 636 713 642.5 c 128,-1,130
 701 649 701 649 701 657 c 0,131,132
 701 659 701 659 701 660 c 0,133,134
 701 690 701 690 689 703 c 0,135,136
 682 709 682 709 641 709 c 0,137,138
 618 709 618 709 585 707 c 0,139,140
 492 702 492 702 478 698 c 0,141,142
 470 696 470 696 456 696 c 0,143,144
 448 696 448 696 438 697 c 0,145,146
 411 699 411 699 408 693 c 0,147,148
 409 691 409 691 409 678 c 0,149,150
 409 650 409 650 403 569 c 0,151,152
 400 522 400 522 400 491 c 0,153,154
 400 444 400 444 408 435 c 0,155,156
 414 425 414 425 432.5 419.5 c 128,-1,157
 451 414 451 414 453 413 c 0,158,159
 454 410 454 410 458 397.5 c 128,-1,160
 462 385 462 385 462 374 c 1,161,-1
 458 374 l 1,162,163
 451 365 451 365 429 359.5 c 128,-1,164
 407 354 407 354 403 352 c 2,165,-1
 381 66 l 1,0,1
EndSplineSet
Validated: 1
EndChar

StartChar: u
Encoding: 117 117 56
Width: 878
GlyphClass: 2
Flags: W
LayerCount: 2
Fore
SplineSet
727 816 m 0,0,1
 730 816 730 816 733 816 c 0,2,3
 753 816 753 816 772 810 c 0,4,5
 793 804 793 804 799 790 c 0,6,7
 804 785 804 785 803 768 c 1,8,9
 794 764 794 764 769.5 751 c 128,-1,10
 745 738 745 738 731 733 c 1,11,12
 731 696 731 696 736 624 c 0,13,14
 740 563 740 563 740 514 c 0,15,16
 740 441 740 441 731 395 c 0,17,18
 731 394 731 394 731 392 c 0,19,20
 731 383 731 383 734 354 c 0,21,22
 735 345 735 345 735 338 c 0,23,24
 735 316 735 316 727 308 c 1,25,26
 729 304 729 304 729 287 c 0,27,28
 729 279 729 279 729 268 c 0,29,30
 727 235 727 235 718.5 212 c 128,-1,31
 710 189 710 189 694 154 c 128,-1,32
 678 119 678 119 671.5 99.5 c 128,-1,33
 665 80 665 80 655 70 c 0,34,35
 602 17 602 17 525 0 c 0,36,37
 484 -9 484 -9 444 -9 c 0,38,39
 339 -9 339 -9 236 53 c 0,40,41
 145 107 145 107 127 176 c 0,42,43
 121 197 121 197 116 222.5 c 128,-1,44
 111 248 111 248 109 257 c 0,45,46
 108 271 108 271 106 298.5 c 128,-1,47
 104 326 104 326 102 340 c 0,48,49
 97 349 97 349 65.5 349.5 c 128,-1,50
 34 350 34 350 28 360 c 1,51,52
 15 368 15 368 15 396 c 0,53,54
 15 398 15 398 15 401 c 0,55,56
 20 405 20 405 24 412 c 1,57,58
 86 413 86 413 98 414 c 1,59,-1
 98 583 l 1,60,61
 104 605 104 605 104 642 c 0,62,63
 104 644 104 644 104 646 c 0,64,65
 104 685 104 685 98 709 c 1,66,-1
 73 712 l 2,67,68
 47 714 47 714 41 724 c 0,69,70
 38 727 38 727 31.5 732 c 128,-1,71
 25 737 25 737 24 738 c 0,72,73
 23 765 23 765 28.5 768.5 c 128,-1,74
 34 772 34 772 119 788 c 0,75,76
 193 803 193 803 208 803 c 0,77,78
 210 803 210 803 211 803 c 0,79,80
 217 800 217 800 225 796 c 128,-1,81
 233 792 233 792 242 785.5 c 128,-1,82
 251 779 251 779 255 777 c 0,83,84
 256 773 256 773 257.5 766 c 128,-1,85
 259 759 259 759 260 755 c 0,86,87
 256 752 256 752 238.5 736.5 c 128,-1,88
 221 721 221 721 201 711 c 1,89,90
 201 699 201 699 198 627 c 0,91,92
 197 612 197 612 197 597 c 0,93,94
 197 547 197 547 205 515 c 0,95,96
 207 508 207 508 207 495 c 0,97,98
 207 483 207 483 205 465 c 0,99,100
 205 454 205 454 205 446 c 0,101,102
 205 425 205 425 209 417 c 0,103,104
 213 416 213 416 223.5 416 c 128,-1,105
 234 416 234 416 246 415 c 128,-1,106
 258 414 258 414 264 401 c 1,107,108
 274 393 274 393 274 377 c 0,109,110
 274 367 274 367 271 353 c 1,111,112
 258 351 258 351 209 338 c 0,113,114
 209 334 209 334 209 329 c 0,115,116
 209 221 209 221 254 157 c 0,117,118
 277 123 277 123 324 97 c 128,-1,119
 371 71 371 71 427 67 c 0,120,121
 432 67 432 67 438 67 c 0,122,123
 488 67 488 67 537 98 c 0,124,125
 593 133 593 133 611 224 c 0,126,127
 629 312 629 312 629 471 c 0,128,129
 629 476 629 476 629 482 c 0,130,131
 629 485 629 485 629 488 c 0,132,133
 629 524 629 524 630 605 c 0,134,135
 631 623 631 623 631 639 c 0,136,137
 631 694 631 694 626 700 c 0,138,139
 620 709 620 709 597.5 712.5 c 128,-1,140
 575 716 575 716 570 722 c 0,141,142
 568 728 568 728 568 734 c 0,143,144
 568 749 568 749 581 760 c 0,145,146
 601 776 601 776 629 783 c 0,147,148
 715 805 715 805 727 816 c 0,0,1
EndSplineSet
Validated: 1
EndChar

StartChar: v
Encoding: 118 118 57
Width: 958
GlyphClass: 2
Flags: W
LayerCount: 2
Fore
SplineSet
594 79 m 1,0,1
 596 79 596 79 598 79 c 0,2,3
 629 79 629 79 656 56 c 0,4,5
 671 41 671 41 671 28 c 0,6,7
 671 14 671 14 655 3 c 0,8,9
 647 -6 647 -6 557 -6 c 0,10,11
 531 -6 531 -6 500 -6 c 0,12,13
 355 -2 355 -2 340 11.5 c 128,-1,14
 325 25 325 25 327 37 c 128,-1,15
 329 49 329 49 331 54 c 128,-1,16
 333 59 333 59 338 69.5 c 128,-1,17
 343 80 343 80 345 83 c 0,18,19
 362 83 362 83 377 83 c 0,20,21
 433 83 433 83 443 88 c 1,22,-1
 443 90 l 1,23,24
 439 103 439 103 419.5 132.5 c 128,-1,25
 400 162 400 162 303 345 c 0,26,27
 298 346 298 346 278 347.5 c 128,-1,28
 258 349 258 349 247 351 c 0,29,30
 215 356 215 356 207 374 c 0,31,32
 200 380 200 380 201.5 386.5 c 128,-1,33
 203 393 203 393 204.5 399.5 c 128,-1,34
 206 406 206 406 207 409 c 0,35,36
 217 411 217 411 235.5 415.5 c 128,-1,37
 254 420 254 420 264 422 c 1,38,-1
 264 431 l 1,39,40
 252 443 252 443 240 477 c 128,-1,41
 228 511 228 511 221 525.5 c 128,-1,42
 214 540 214 540 188 578 c 128,-1,43
 162 616 162 616 154.5 629.5 c 128,-1,44
 147 643 147 643 140 665 c 128,-1,45
 133 687 133 687 126 697 c 1,46,47
 97 697 97 697 72 696 c 2,48,-1
 71 696 l 2,49,50
 47 696 47 696 31 709 c 0,51,52
 15 721 15 721 15 747 c 0,53,54
 15 748 15 748 15 749 c 0,55,56
 36 764 36 764 95 780 c 0,57,58
 149 794 149 794 204 794 c 0,59,60
 207 794 207 794 210 794 c 0,61,62
 268 793 268 793 277 765 c 0,63,64
 282 760 282 760 282 749 c 128,-1,65
 282 738 282 738 277 734 c 0,66,67
 272 725 272 725 255 717 c 128,-1,68
 238 709 238 709 233 701 c 1,69,70
 266 668 266 668 298 602 c 128,-1,71
 330 536 330 536 336 525 c 128,-1,72
 342 514 342 514 355.5 478 c 128,-1,73
 369 442 369 442 382 435 c 0,74,75
 386 432 386 432 414 429 c 128,-1,76
 442 426 442 426 452 417 c 0,77,78
 470 405 470 405 470 394 c 0,79,80
 470 390 470 390 468 386 c 0,81,82
 458 371 458 371 442.5 360 c 128,-1,83
 427 349 427 349 423 345 c 1,84,85
 432 329 432 329 463.5 279.5 c 128,-1,86
 495 230 495 230 504 190 c 1,87,-1
 513 190 l 1,88,89
 516 216 516 216 531 241.5 c 128,-1,90
 546 267 546 267 551.5 279.5 c 128,-1,91
 557 292 557 292 566 351.5 c 128,-1,92
 575 411 575 411 584 424.5 c 128,-1,93
 593 438 593 438 600 454.5 c 128,-1,94
 607 471 607 471 617 498.5 c 128,-1,95
 627 526 627 526 628 529 c 0,96,97
 631 554 631 554 633 570 c 1,98,99
 679 674 679 674 687 747 c 0,100,101
 685 749 685 749 683 751 c 0,102,103
 675 751 675 751 669 751 c 0,104,105
 651 751 651 751 646 755 c 0,106,107
 639 760 639 760 633 765 c 0,108,109
 633 767 633 767 633 769 c 0,110,111
 633 790 633 790 639 804 c 1,112,113
 736 826 736 826 794 826 c 0,114,115
 878 826 878 826 884 780 c 0,116,117
 883 778 883 778 878.5 768.5 c 128,-1,118
 874 759 874 759 864 756 c 1,119,120
 855 747 855 747 832.5 746.5 c 128,-1,121
 810 746 810 746 803 738 c 0,122,123
 784 722 784 722 773.5 666 c 128,-1,124
 763 610 763 610 751.5 584.5 c 128,-1,125
 740 559 740 559 713 481 c 128,-1,126
 686 403 686 403 677.5 382 c 128,-1,127
 669 361 669 361 667.5 337.5 c 128,-1,128
 666 314 666 314 661 300 c 128,-1,129
 656 286 656 286 636 239 c 0,130,131
 595 143 595 143 594 79 c 1,0,1
EndSplineSet
Validated: 1
EndChar

StartChar: w
Encoding: 119 119 58
Width: 1388
GlyphClass: 2
Flags: W
LayerCount: 2
Fore
SplineSet
1106 839 m 1,0,1
 1124 834 1124 834 1159 831 c 0,2,3
 1173 830 1173 830 1185 830 c 0,4,5
 1203 830 1203 830 1217 833 c 0,6,7
 1239 839 1239 839 1252 839 c 0,8,9
 1258 839 1258 839 1261 838 c 0,10,11
 1273 833 1273 833 1281.5 827.5 c 128,-1,12
 1290 822 1290 822 1298.5 814 c 128,-1,13
 1307 806 1307 806 1313 802 c 1,14,15
 1315 778 1315 778 1309 772 c 1,16,-1
 1309 767 l 1,17,18
 1294 768 1294 768 1281 768 c 0,19,20
 1226 768 1226 768 1219 756 c 0,21,22
 1222 754 1222 754 1222 748 c 0,23,24
 1222 736 1222 736 1211 712 c 0,25,26
 1194 676 1194 676 1185 657.5 c 128,-1,27
 1176 639 1176 639 1165 617.5 c 128,-1,28
 1154 596 1154 596 1139.5 566.5 c 128,-1,29
 1125 537 1125 537 1096.5 471.5 c 128,-1,30
 1068 406 1068 406 1033.5 324 c 128,-1,31
 999 242 999 242 987 215.5 c 128,-1,32
 975 189 975 189 958 161 c 0,33,34
 923 106 923 106 923 81 c 0,35,36
 923 76 923 76 925 73 c 0,37,38
 928 73 928 73 932 73 c 0,39,40
 962 73 962 73 980 60 c 0,41,42
 1001 46 1001 46 1001 16 c 1,43,-1
 1001 16 l 1,44,45
 998 15 998 15 992 9 c 128,-1,46
 986 3 986 3 979 1 c 0,47,48
 971 -6 971 -6 938 -6 c 0,49,50
 898 -6 898 -6 819 4 c 0,51,52
 773 10 773 10 756 14 c 1,53,54
 755 24 755 24 755 35.5 c 128,-1,55
 755 47 755 47 756 60 c 1,56,57
 796 64 796 64 796 90 c 1,58,-1
 796 90 l 1,59,60
 787 96 787 96 784 107 c 128,-1,61
 781 118 781 118 778 123.5 c 128,-1,62
 775 129 775 129 763 139 c 128,-1,63
 751 149 751 149 748 153 c 128,-1,64
 745 157 745 157 714.5 204.5 c 128,-1,65
 684 252 684 252 663 269 c 0,66,67
 659 270 659 270 654 272 c 1,68,69
 586 194 586 194 556 138.5 c 128,-1,70
 526 83 526 83 503 69 c 1,71,72
 505 59 505 59 514.5 43.5 c 128,-1,73
 524 28 524 28 525 12 c 1,74,75
 519 7 519 7 516 -3 c 1,76,77
 446 -16 446 -16 396 -16 c 0,78,79
 384 -16 384 -16 374 -15 c 0,80,81
 317 -11 317 -11 298 3 c 1,82,83
 296 17 296 17 296 29 c 0,84,85
 296 46 296 46 300 60 c 1,86,87
 343 60 343 60 370 73 c 1,88,-1
 370 75 l 1,89,90
 350 169 350 169 274 330 c 0,91,92
 235 411 235 411 227.5 428.5 c 128,-1,93
 220 446 220 446 196.5 507.5 c 128,-1,94
 173 569 173 569 162 589 c 128,-1,95
 151 609 151 609 138 646 c 0,96,97
 105 739 105 739 84 745 c 1,98,99
 76 754 76 754 47.5 758.5 c 128,-1,100
 19 763 19 763 19 763 c 1,101,102
 15 779 15 779 15 789 c 0,103,104
 15 803 15 803 20 808 c 0,105,106
 30 819 30 819 100 825 c 0,107,108
 125 827 125 827 142 827 c 0,109,110
 174 827 174 827 182 820 c 0,111,112
 213 804 213 804 213 766 c 0,113,114
 213 765 213 765 213 763 c 2,115,-1
 208 763 l 2,116,117
 205 760 205 760 198.5 757 c 128,-1,118
 192 754 192 754 191 739 c 1,119,120
 214 719 214 719 257 597 c 0,121,122
 276 544 276 544 288.5 514.5 c 128,-1,123
 301 485 301 485 344.5 393.5 c 128,-1,124
 388 302 388 302 397 282 c 128,-1,125
 406 262 406 262 418.5 213.5 c 128,-1,126
 431 165 431 165 442 143 c 1,127,128
 444 146 444 146 444 147 c 0,129,130
 455 154 455 154 522.5 246.5 c 128,-1,131
 590 339 590 339 593 352 c 1,132,133
 566 355 566 355 560 368 c 0,134,135
 554 372 554 372 552 381 c 128,-1,136
 550 390 550 390 556 396 c 0,137,138
 562 409 562 409 605 422 c 128,-1,139
 648 435 648 435 688 438 c 0,140,141
 695 439 695 439 702 439 c 0,142,143
 732 439 732 439 750 427 c 0,144,145
 770 415 770 415 770 381 c 0,146,147
 770 379 770 379 770 376 c 0,148,149
 767 374 767 374 765 370 c 0,150,151
 727 363 727 363 704 359 c 1,152,-1
 704 352 l 1,153,154
 721 339 721 339 751.5 296 c 128,-1,155
 782 253 782 253 810 215.5 c 128,-1,156
 838 178 838 178 855 173 c 1,157,158
 899 259 899 259 997 475 c 0,159,160
 1001 485 1001 485 1005 506 c 128,-1,161
 1009 527 1009 527 1014.5 538.5 c 128,-1,162
 1020 550 1020 550 1050 602 c 0,163,164
 1118 720 1118 720 1121 767 c 1,165,166
 1106 773 1106 773 1091 791 c 0,167,168
 1084 801 1084 801 1084 809 c 256,169,170
 1084 817 1084 817 1090 824 c 0,171,172
 1093 829 1093 829 1106 839 c 1,0,1
EndSplineSet
Validated: 1
EndChar

StartChar: x
Encoding: 120 120 59
Width: 909
GlyphClass: 2
Flags: W
LayerCount: 2
Fore
SplineSet
336 753 m 1,0,-1
 256 732 l 1,1,-1
 256 723 l 1,2,3
 273 710 273 710 318.5 641 c 128,-1,4
 364 572 364 572 384 535 c 1,5,-1
 393 535 l 1,6,7
 412 568 412 568 432.5 591.5 c 128,-1,8
 453 615 453 615 462.5 626 c 128,-1,9
 472 637 472 637 527 693 c 0,10,11
 577 743 577 743 577 754 c 0,12,13
 577 755 577 755 576 756 c 0,14,15
 572 760 572 760 556.5 761.5 c 128,-1,16
 541 763 541 763 537 768 c 128,-1,17
 533 773 533 773 532 783.5 c 128,-1,18
 531 794 531 794 532 802 c 128,-1,19
 533 810 533 810 535 823.5 c 128,-1,20
 537 837 537 837 537 839 c 1,21,22
 547 839 547 839 595 845 c 0,23,24
 638 851 638 851 688 851 c 0,25,26
 694 851 694 851 701 851 c 0,27,28
 758 850 758 850 769 817 c 0,29,30
 774 812 774 812 773 795 c 0,31,32
 770 793 770 793 762.5 783.5 c 128,-1,33
 755 774 755 774 749.5 771.5 c 128,-1,34
 744 769 744 769 735.5 768.5 c 128,-1,35
 727 768 727 768 718 760.5 c 128,-1,36
 709 753 709 753 695.5 735.5 c 128,-1,37
 682 718 682 718 666.5 695 c 128,-1,38
 651 672 651 672 641.5 658.5 c 128,-1,39
 632 645 632 645 599.5 615 c 128,-1,40
 567 585 567 585 555 568 c 0,41,42
 500 493 500 493 491 487 c 1,43,44
 502 473 502 473 542 450 c 1,45,-1
 542 420 l 1,46,47
 521 405 521 405 478 389 c 1,48,49
 480 386 480 386 483 385 c 0,50,51
 489 356 489 356 536 311 c 0,52,53
 556 291 556 291 566 278.5 c 128,-1,54
 576 266 576 266 593.5 228 c 128,-1,55
 611 190 611 190 625 160.5 c 128,-1,56
 639 131 639 131 665.5 107 c 128,-1,57
 692 83 692 83 725 83 c 1,58,-1
 725 83 l 1,59,60
 737 80 737 80 773 74 c 128,-1,61
 809 68 809 68 830 59 c 0,62,63
 830 55 830 55 832 46.5 c 128,-1,64
 834 38 834 38 834 35 c 0,65,66
 831 32 831 32 826 21 c 128,-1,67
 821 10 821 10 812 7 c 1,68,69
 803 -2 803 -2 781 -2 c 0,70,71
 776 -2 776 -2 770 -1 c 0,72,73
 756 0 756 0 744 0 c 0,74,75
 729 0 729 0 718 -2 c 0,76,77
 705 -6 705 -6 670 -6 c 0,78,79
 625 -6 625 -6 545 1 c 0,80,81
 528 2 528 2 526 3 c 0,82,83
 523 12 523 12 523 22 c 0,84,85
 523 38 523 38 531 57 c 0,86,87
 545 88 545 88 546 96 c 1,88,89
 526 114 526 114 504 161 c 128,-1,90
 482 208 482 208 473 222 c 128,-1,91
 464 236 464 236 431 274 c 128,-1,92
 398 312 398 312 384 337 c 1,93,-1
 376 337 l 1,94,95
 363 308 363 308 325.5 261.5 c 128,-1,96
 288 215 288 215 257 170.5 c 128,-1,97
 226 126 226 126 221 94 c 1,98,-1
 225 94 l 2,99,100
 232 92 232 92 249 87 c 128,-1,101
 266 82 266 82 279.5 73.5 c 128,-1,102
 293 65 293 65 293 40 c 2,103,-1
 293 37 l 1,104,105
 289 33 289 33 281.5 25 c 128,-1,106
 274 17 274 17 273 16 c 0,107,108
 244 -1 244 -1 143 -2 c 0,109,110
 138 -2 138 -2 133 -2 c 0,111,112
 40 -2 40 -2 24 16 c 0,113,114
 15 23 15 23 15 36 c 0,115,116
 15 52 15 52 28 77 c 0,117,118
 32 84 32 84 33 86 c 0,119,120
 39 86 39 86 60 89.5 c 128,-1,121
 81 93 81 93 92 94 c 1,122,123
 127 163 127 163 168 222.5 c 128,-1,124
 209 282 209 282 236.5 321.5 c 128,-1,125
 264 361 264 361 273 374 c 1,126,-1
 269 374 l 2,127,128
 258 375 258 375 239 377 c 128,-1,129
 220 379 220 379 212 380 c 0,130,131
 211 382 211 382 199 415 c 0,132,133
 200 418 200 418 202.5 428.5 c 128,-1,134
 205 439 205 439 210 444 c 0,135,136
 218 453 218 453 258.5 455 c 128,-1,137
 299 457 299 457 304 459 c 1,138,-1
 304 461 l 1,139,140
 287 486 287 486 250 547.5 c 128,-1,141
 213 609 213 609 190 642 c 0,142,143
 186 648 186 648 169 662 c 128,-1,144
 152 676 152 676 148.5 683.5 c 128,-1,145
 145 691 145 691 147.5 708 c 128,-1,146
 150 725 150 725 142 727 c 1,147,148
 132 716 132 716 109 716 c 0,149,150
 96 716 96 716 78 721 c 0,151,152
 60 724 60 724 50 729 c 1,153,154
 50 767 50 767 70 804 c 1,155,156
 94 806 94 806 138 814 c 128,-1,157
 182 822 182 822 206 825 c 0,158,159
 214 826 214 826 224 826 c 0,160,161
 243 826 243 826 267 822 c 0,162,163
 304 816 304 816 336 797 c 1,164,-1
 336 753 l 1,0,-1
EndSplineSet
Validated: 1
EndChar

StartChar: y
Encoding: 121 121 60
Width: 923
GlyphClass: 2
Flags: W
LayerCount: 2
Fore
SplineSet
380 226 m 1,0,1
 356 223 356 223 332 221 c 1,2,3
 327 244 327 244 327 264 c 128,-1,4
 327 284 327 284 332 302 c 1,5,6
 342 304 342 304 353 313 c 128,-1,7
 364 322 364 322 366 324 c 0,8,9
 361 362 361 362 312 409 c 0,10,11
 287 433 287 433 281 439 c 0,12,13
 275 451 275 451 252.5 492.5 c 128,-1,14
 230 534 230 534 153 649 c 0,15,16
 148 656 148 656 131.5 672.5 c 128,-1,17
 115 689 115 689 109 701 c 1,18,19
 90 697 90 697 73 697 c 0,20,21
 66 697 66 697 60 698 c 0,22,23
 38 700 38 700 32 706 c 0,24,25
 15 719 15 719 15 749 c 1,26,27
 79 786 79 786 148 786 c 0,28,29
 198 786 198 786 251 767 c 0,30,31
 252 763 252 763 255 750 c 128,-1,32
 258 737 258 737 259 730 c 0,33,34
 258 727 258 727 250.5 718.5 c 128,-1,35
 243 710 243 710 242 697 c 1,36,37
 256 688 256 688 271 658 c 128,-1,38
 286 628 286 628 298.5 613 c 128,-1,39
 311 598 311 598 338 552.5 c 128,-1,40
 365 507 365 507 374 494 c 128,-1,41
 383 481 383 481 410.5 451.5 c 128,-1,42
 438 422 438 422 447 402 c 1,43,44
 464 410 464 410 483 463 c 0,45,46
 491 485 491 485 498 496.5 c 128,-1,47
 505 508 505 508 529.5 539 c 128,-1,48
 554 570 554 570 562.5 584.5 c 128,-1,49
 571 599 571 599 588 636 c 0,50,51
 625 715 625 715 657 741 c 1,52,53
 657 741 657 741 655 745 c 1,54,55
 644 744 644 744 635 744 c 0,56,57
 616 744 616 744 602 749 c 1,58,59
 598 771 598 771 598 785 c 0,60,61
 598 787 598 787 598 790 c 0,62,63
 599 804 599 804 607 826 c 0,64,65
 608 826 608 826 609 826 c 0,66,67
 619 826 619 826 656 823 c 0,68,69
 670 821 670 821 681 821 c 0,70,71
 702 821 702 821 709 826 c 0,72,73
 722 830 722 830 739 840 c 128,-1,74
 756 850 756 850 767 856.5 c 128,-1,75
 778 863 778 863 798 866 c 0,76,77
 803 867 803 867 809 867 c 0,78,79
 822 867 822 867 834 861 c 1,80,-1
 834 848 l 1,81,-1
 847 848 l 1,82,83
 848 840 848 840 849 832 c 1,84,85
 834 810 834 810 821 791 c 0,86,87
 817 789 817 789 797.5 779.5 c 128,-1,88
 778 770 778 770 772 758 c 0,89,90
 770 755 770 755 771 738.5 c 128,-1,91
 772 722 772 722 768 712 c 0,92,93
 751 675 751 675 681.5 573.5 c 128,-1,94
 612 472 612 472 602 457 c 1,95,96
 597 442 597 442 589 418 c 0,97,98
 584 409 584 409 562.5 380.5 c 128,-1,99
 541 352 541 352 537 322 c 1,100,101
 561 311 561 311 565 287 c 0,102,103
 566 283 566 283 566 280 c 0,104,105
 566 260 566 260 545 247 c 0,106,107
 534 241 534 241 511.5 240 c 128,-1,108
 489 239 489 239 482 236 c 1,109,110
 478 200 478 200 478 167 c 0,111,112
 478 155 478 155 478 144 c 0,113,114
 480 101 480 101 487 88 c 0,115,116
 489 88 489 88 492 88 c 0,117,118
 528 88 528 88 553 75 c 0,119,120
 561 71 561 71 580 60 c 1,121,-1
 580 29 l 1,122,123
 571 27 571 27 558 16 c 128,-1,124
 545 5 545 5 535 3 c 0,125,126
 529 2 529 2 501 2 c 0,127,128
 475 2 475 2 427 3 c 0,129,130
 330 5 330 5 327 7 c 0,131,132
 314 14 314 14 310 40 c 0,133,134
 310 46 310 46 310 52 c 0,135,136
 310 68 310 68 316 76 c 0,137,138
 326 88 326 88 351.5 88.5 c 128,-1,139
 377 89 377 89 380 90 c 0,140,141
 380 91 380 91 384 152 c 0,142,143
 385 172 385 172 385 187 c 0,144,145
 385 216 385 216 380 221 c 1,146,-1
 380 226 l 1,0,1
EndSplineSet
Validated: 1
EndChar

StartChar: z
Encoding: 122 122 61
Width: 943
GlyphClass: 2
Flags: W
LayerCount: 2
Fore
SplineSet
229 428 m 1,0,1
 233 435 233 435 238 441 c 0,2,3
 243 441 243 441 292 439 c 0,4,5
 303 439 303 439 312 439 c 0,6,7
 345 439 345 439 360 445 c 0,8,9
 378 453 378 453 392 468 c 128,-1,10
 406 483 406 483 423.5 510 c 128,-1,11
 441 537 441 537 451.5 550.5 c 128,-1,12
 462 564 462 564 484 588 c 128,-1,13
 506 612 506 612 534 640 c 128,-1,14
 562 668 562 668 576 684 c 1,15,-1
 576 686 l 1,16,17
 540 691 540 691 422 692.5 c 128,-1,18
 304 694 304 694 264 708 c 0,19,20
 249 713 249 713 223 713 c 0,21,22
 216 713 216 713 209 713 c 0,23,24
 172 711 172 711 167.5 706 c 128,-1,25
 163 701 163 701 160.5 695 c 128,-1,26
 158 689 158 689 155.5 682 c 128,-1,27
 153 675 153 675 153 673 c 0,28,29
 135 669 135 669 123 669 c 0,30,31
 103 669 103 669 98 679 c 1,32,33
 75 699 75 699 65 753 c 0,34,35
 60 783 60 783 60 810 c 0,36,37
 60 831 60 831 63 850 c 1,38,39
 80 858 80 858 85 861 c 1,40,41
 93 857 93 857 112 853 c 0,42,43
 153 846 153 846 161 828 c 0,44,45
 165 820 165 820 162 810.5 c 128,-1,46
 159 801 159 801 166 795 c 1,47,48
 226 794 226 794 294 793 c 1,49,50
 395 775 395 775 518 775 c 0,51,52
 581 775 581 775 650 780 c 1,53,54
 703 788 703 788 797 802 c 1,55,56
 852 781 852 781 855 780 c 0,57,58
 858 777 858 777 861 770 c 128,-1,59
 864 763 864 763 869 760 c 1,60,61
 867 741 867 741 860 734 c 0,62,63
 853 718 853 718 835 714.5 c 128,-1,64
 817 711 817 711 794 711 c 128,-1,65
 771 711 771 711 754 701.5 c 128,-1,66
 737 692 737 692 717 676.5 c 128,-1,67
 697 661 697 661 677 639.5 c 128,-1,68
 657 618 657 618 644.5 603 c 128,-1,69
 632 588 632 588 610 560 c 128,-1,70
 588 532 588 532 581.5 523.5 c 128,-1,71
 575 515 575 515 560 503 c 0,72,73
 529 478 529 478 526 450 c 1,74,75
 543 448 543 448 554 434.5 c 128,-1,76
 565 421 565 421 565 402 c 1,77,-1
 565 402 l 1,78,79
 562 398 562 398 556 389.5 c 128,-1,80
 550 381 550 381 548 378 c 0,81,82
 449 370 449 370 447 369 c 0,83,84
 434 363 434 363 414.5 337 c 128,-1,85
 395 311 395 311 392 307.5 c 128,-1,86
 389 304 389 304 355.5 271.5 c 128,-1,87
 322 239 322 239 298.5 215 c 128,-1,88
 275 191 275 191 252 161 c 128,-1,89
 229 131 229 131 227 116 c 1,90,91
 243 110 243 110 291 105.5 c 128,-1,92
 339 101 339 101 358 94 c 1,93,-1
 401 94 l 1,94,95
 426 84 426 84 503 62.5 c 128,-1,96
 580 41 580 41 615 22 c 0,97,98
 619 20 619 20 651 0 c 0,99,100
 711 -37 711 -37 743 -37 c 0,101,102
 746 -37 746 -37 748 -37 c 0,103,104
 751 -22 751 -22 755 8 c 128,-1,105
 759 38 759 38 762 53 c 1,106,107
 785 64 785 64 792 68 c 0,108,109
 796 67 796 67 842 53 c 0,110,111
 845 50 845 50 853 -28 c 0,112,113
 860 -90 860 -90 860 -106 c 0,114,115
 860 -110 860 -110 860 -111 c 0,116,117
 848 -138 848 -138 801 -138 c 0,118,119
 790 -138 790 -138 777 -137 c 0,120,121
 755 -134 755 -134 722 -121.5 c 128,-1,122
 689 -109 689 -109 658.5 -103 c 128,-1,123
 628 -97 628 -97 613 -90 c 128,-1,124
 598 -83 598 -83 569.5 -64 c 128,-1,125
 541 -45 541 -45 526 -39 c 0,126,127
 466 -13 466 -13 339 12 c 0,128,129
 266 26 266 26 220 26 c 0,130,131
 185 26 185 26 166 18 c 0,132,133
 154 13 154 13 128.5 0 c 128,-1,134
 103 -13 103 -13 91 -17 c 0,135,136
 78 -22 78 -22 67 -22 c 0,137,138
 48 -22 48 -22 35 -7 c 0,139,140
 15 17 15 17 15 51 c 0,141,142
 15 52 15 52 15 53 c 0,143,144
 36 68 36 68 56.5 98.5 c 128,-1,145
 77 129 77 129 81 134 c 0,146,147
 89 141 89 141 105.5 155 c 128,-1,148
 122 169 122 169 124.5 171.5 c 128,-1,149
 127 174 127 174 251 315 c 0,150,151
 254 319 254 319 267 337.5 c 128,-1,152
 280 356 280 356 290 363 c 1,153,-1
 290 369 l 1,154,155
 286 372 286 372 272 379 c 128,-1,156
 258 386 258 386 245 396.5 c 128,-1,157
 232 407 232 407 229 428 c 1,0,1
EndSplineSet
Validated: 1
EndChar

StartChar: Cacute
Encoding: 262 262 62
Width: 806
Flags: W
LayerCount: 2
Fore
SplineSet
397.043945312 711.02734375 m 4,0,1
 458.7890625 710.149414062 458.7890625 710.149414062 487.211914062 683.779296875 c 28,2,-1
 598.943359375 777.830078125 l 28,3,-1
 654.80859375 830.568359375 l 28,4,-1
 519.555664062 828.811523438 l 28,5,6
 331.974609375 711.983398438 331.974609375 711.983398438 397.043945312 711.02734375 c 4,0,1
615.60546875 676.6640625 m 4,7,8
 618.544921875 676.6640625 618.544921875 676.6640625 621.486328125 676.6640625 c 4,9,10
 720.475585938 676.6640625 720.475585938 676.6640625 720.475585938 628.3203125 c 5,11,12
 692.052734375 604.588867188 692.052734375 604.588867188 633.247070312 499.111328125 c 4,13,14
 613.645507812 464.831054688 613.645507812 464.831054688 582.771484375 436.263671875 c 132,-1,15
 551.899414062 407.697265625 551.899414062 407.697265625 518.576171875 406.818359375 c 5,16,17
 513.674804688 412.092773438 513.674804688 412.092773438 502.404296875 418.245117188 c 132,-1,18
 491.1328125 424.3984375 491.1328125 424.3984375 482.3125 427.03515625 c 5,19,20
 481.33203125 436.703125 481.33203125 436.703125 481.33203125 445.494140625 c 4,21,22
 481.33203125 462.193359375 481.33203125 462.193359375 485.251953125 474.499023438 c 4,23,24
 492.112304688 492.079101562 492.112304688 492.079101562 503.384765625 508.778320312 c 132,-1,25
 514.655273438 525.479492188 514.655273438 525.479492188 517.10546875 536.02734375 c 132,-1,26
 519.555664062 546.575195312 519.555664062 546.575195312 520.53515625 547.014648438 c 132,-1,27
 521.515625 547.454101562 521.515625 547.454101562 520.53515625 548.333984375 c 132,-1,28
 519.555664062 549.212890625 519.555664062 549.212890625 518.576171875 549.212890625 c 4,29,30
 510.735351562 562.397460938 510.735351562 562.397460938 483.291015625 575.58203125 c 4,31,32
 445.068359375 594.041015625 445.068359375 594.041015625 413.704101562 594.041015625 c 4,33,34
 391.162109375 594.041015625 391.162109375 594.041015625 372.541015625 583.493164062 c 4,35,36
 318.635742188 549.212890625 318.635742188 549.212890625 275.510742188 489.881835938 c 132,-1,37
 232.38671875 430.55078125 232.38671875 430.55078125 231.40625 368.143554688 c 4,38,39
 233.3671875 366.385742188 233.3671875 366.385742188 235.326171875 363.748046875 c 4,40,41
 236.306640625 363.748046875 236.306640625 363.748046875 237.287109375 363.748046875 c 4,42,43
 284.331054688 363.748046875 284.331054688 363.748046875 307.853515625 327.709960938 c 5,44,45
 305.893554688 313.646484375 305.893554688 313.646484375 298.052734375 307.495117188 c 4,46,47
 289.232421875 297.825195312 289.232421875 297.825195312 263.258789062 295.627929688 c 132,-1,48
 237.287109375 293.430664062 237.287109375 293.430664062 226.505859375 287.27734375 c 4,49,50
 223.565429688 284.641601562 223.565429688 284.641601562 221.60546875 277.608398438 c 5,51,52
 229.446289062 269.698242188 229.446289062 269.698242188 230.916015625 244.208007812 c 132,-1,53
 232.38671875 218.717773438 232.38671875 218.717773438 235.326171875 210.806640625 c 4,54,55
 265.709960938 142.247070312 265.709960938 142.247070312 314.71484375 111.482421875 c 4,56,57
 346.078125 91.265625 346.078125 91.265625 383.322265625 91.265625 c 4,58,59
 403.904296875 91.265625 403.904296875 91.265625 426.4453125 97.419921875 c 4,60,61
 470.55078125 109.724609375 470.55078125 109.724609375 515.635742188 129.940429688 c 132,-1,62
 560.719726562 150.157226562 560.719726562 150.157226562 571.500976562 153.673828125 c 4,63,64
 575.421875 154.551757812 575.421875 154.551757812 585.221679688 154.551757812 c 4,65,66
 604.82421875 154.551757812 604.82421875 154.551757812 646.967773438 150.157226562 c 4,67,68
 649.909179688 146.642578125 649.909179688 146.642578125 659.219726562 136.97265625 c 132,-1,69
 668.530273438 127.3046875 668.530273438 127.3046875 669.510742188 110.603515625 c 5,70,71
 649.909179688 81.59765625 649.909179688 81.59765625 599.43359375 56.9853515625 c 132,-1,72
 548.958007812 32.375 548.958007812 32.375 489.172851562 20.068359375 c 4,73,74
 447.028320312 11.279296875 447.028320312 11.279296875 402.923828125 11.279296875 c 4,75,76
 384.301757812 11.279296875 384.301757812 11.279296875 365.6796875 12.158203125 c 4,77,78
 302.954101562 17.4326171875 302.954101562 17.4326171875 265.709960938 41.603515625 c 132,-1,79
 228.465820312 65.7763671875 228.465820312 65.7763671875 189.26171875 109.724609375 c 132,-1,80
 150.057617188 153.673828125 150.057617188 153.673828125 138.787109375 179.163085938 c 132,-1,81
 127.515625 204.653320312 127.515625 204.653320312 122.615234375 239.373046875 c 132,-1,82
 117.71484375 274.09375 117.71484375 274.09375 111.833984375 287.27734375 c 5,83,84
 106.93359375 288.15625 106.93359375 288.15625 87.8212890625 289.475585938 c 132,-1,85
 68.7099609375 290.793945312 68.7099609375 290.793945312 58.908203125 292.55078125 c 4,86,87
 30.4853515625 296.067382812 30.4853515625 296.067382812 24.60546875 311.889648438 c 4,88,89
 18.724609375 317.163085938 18.724609375 317.163085938 18.724609375 324.194335938 c 4,90,91
 18.724609375 335.62109375 18.724609375 335.62109375 30.4853515625 351.442382812 c 4,92,93
 33.4267578125 355.837890625 33.4267578125 355.837890625 33.4267578125 355.837890625 c 5,94,95
 45.1875 357.595703125 45.1875 357.595703125 73.6103515625 361.990234375 c 132,-1,96
 102.033203125 366.385742188 102.033203125 366.385742188 116.734375 368.143554688 c 6,97,-1
 120.654296875 368.143554688 l 6,98,99
 120.654296875 369.022460938 120.654296875 369.022460938 120.654296875 369.901367188 c 4,100,101
 120.654296875 420.881835938 120.654296875 420.881835938 141.236328125 460.436523438 c 260,102,103
 161.819335938 499.989257812 161.819335938 499.989257812 188.282226562 541.301757812 c 4,104,105
 253.94921875 641.504882812 253.94921875 641.504882812 349.998046875 661.721679688 c 4,106,107
 372.541015625 666.116210938 372.541015625 666.116210938 397.043945312 666.116210938 c 4,108,109
 476.430664062 666.116210938 476.430664062 666.116210938 572.481445312 616.014648438 c 5,110,111
 575.421875 618.651367188 575.421875 618.651367188 580.8125 622.607421875 c 132,-1,112
 586.202148438 626.5625 586.202148438 626.5625 588.163085938 628.3203125 c 4,113,114
 592.083007812 642.383789062 592.083007812 642.383789062 602.864257812 657.766601562 c 132,-1,115
 613.645507812 673.147460938 613.645507812 673.147460938 615.60546875 676.6640625 c 4,7,8
EndSplineSet
Validated: 524329
EndChar

StartChar: cacute
Encoding: 263 263 63
Width: 806
Flags: W
LayerCount: 2
Fore
SplineSet
397.043945312 711.02734375 m 4,0,1
 458.7890625 710.149414062 458.7890625 710.149414062 487.211914062 683.779296875 c 28,2,-1
 598.943359375 777.830078125 l 28,3,-1
 654.80859375 830.568359375 l 28,4,-1
 519.555664062 828.811523438 l 28,5,6
 331.974609375 711.983398438 331.974609375 711.983398438 397.043945312 711.02734375 c 4,0,1
615.60546875 676.6640625 m 4,7,8
 618.544921875 676.6640625 618.544921875 676.6640625 621.486328125 676.6640625 c 4,9,10
 720.475585938 676.6640625 720.475585938 676.6640625 720.475585938 628.3203125 c 5,11,12
 692.052734375 604.588867188 692.052734375 604.588867188 633.247070312 499.111328125 c 4,13,14
 613.645507812 464.831054688 613.645507812 464.831054688 582.771484375 436.263671875 c 132,-1,15
 551.899414062 407.697265625 551.899414062 407.697265625 518.576171875 406.818359375 c 5,16,17
 513.674804688 412.092773438 513.674804688 412.092773438 502.404296875 418.245117188 c 132,-1,18
 491.1328125 424.3984375 491.1328125 424.3984375 482.3125 427.03515625 c 5,19,20
 481.33203125 436.703125 481.33203125 436.703125 481.33203125 445.494140625 c 4,21,22
 481.33203125 462.193359375 481.33203125 462.193359375 485.251953125 474.499023438 c 4,23,24
 492.112304688 492.079101562 492.112304688 492.079101562 503.384765625 508.778320312 c 132,-1,25
 514.655273438 525.479492188 514.655273438 525.479492188 517.10546875 536.02734375 c 132,-1,26
 519.555664062 546.575195312 519.555664062 546.575195312 520.53515625 547.014648438 c 132,-1,27
 521.515625 547.454101562 521.515625 547.454101562 520.53515625 548.333984375 c 132,-1,28
 519.555664062 549.212890625 519.555664062 549.212890625 518.576171875 549.212890625 c 4,29,30
 510.735351562 562.397460938 510.735351562 562.397460938 483.291015625 575.58203125 c 4,31,32
 445.068359375 594.041015625 445.068359375 594.041015625 413.704101562 594.041015625 c 4,33,34
 391.162109375 594.041015625 391.162109375 594.041015625 372.541015625 583.493164062 c 4,35,36
 318.635742188 549.212890625 318.635742188 549.212890625 275.510742188 489.881835938 c 132,-1,37
 232.38671875 430.55078125 232.38671875 430.55078125 231.40625 368.143554688 c 4,38,39
 233.3671875 366.385742188 233.3671875 366.385742188 235.326171875 363.748046875 c 4,40,41
 236.306640625 363.748046875 236.306640625 363.748046875 237.287109375 363.748046875 c 4,42,43
 284.331054688 363.748046875 284.331054688 363.748046875 307.853515625 327.709960938 c 5,44,45
 305.893554688 313.646484375 305.893554688 313.646484375 298.052734375 307.495117188 c 4,46,47
 289.232421875 297.825195312 289.232421875 297.825195312 263.258789062 295.627929688 c 132,-1,48
 237.287109375 293.430664062 237.287109375 293.430664062 226.505859375 287.27734375 c 4,49,50
 223.565429688 284.641601562 223.565429688 284.641601562 221.60546875 277.608398438 c 5,51,52
 229.446289062 269.698242188 229.446289062 269.698242188 230.916015625 244.208007812 c 132,-1,53
 232.38671875 218.717773438 232.38671875 218.717773438 235.326171875 210.806640625 c 4,54,55
 265.709960938 142.247070312 265.709960938 142.247070312 314.71484375 111.482421875 c 4,56,57
 346.078125 91.265625 346.078125 91.265625 383.322265625 91.265625 c 4,58,59
 403.904296875 91.265625 403.904296875 91.265625 426.4453125 97.419921875 c 4,60,61
 470.55078125 109.724609375 470.55078125 109.724609375 515.635742188 129.940429688 c 132,-1,62
 560.719726562 150.157226562 560.719726562 150.157226562 571.500976562 153.673828125 c 4,63,64
 575.421875 154.551757812 575.421875 154.551757812 585.221679688 154.551757812 c 4,65,66
 604.82421875 154.551757812 604.82421875 154.551757812 646.967773438 150.157226562 c 4,67,68
 649.909179688 146.642578125 649.909179688 146.642578125 659.219726562 136.97265625 c 132,-1,69
 668.530273438 127.3046875 668.530273438 127.3046875 669.510742188 110.603515625 c 5,70,71
 649.909179688 81.59765625 649.909179688 81.59765625 599.43359375 56.9853515625 c 132,-1,72
 548.958007812 32.375 548.958007812 32.375 489.172851562 20.068359375 c 4,73,74
 447.028320312 11.279296875 447.028320312 11.279296875 402.923828125 11.279296875 c 4,75,76
 384.301757812 11.279296875 384.301757812 11.279296875 365.6796875 12.158203125 c 4,77,78
 302.954101562 17.4326171875 302.954101562 17.4326171875 265.709960938 41.603515625 c 132,-1,79
 228.465820312 65.7763671875 228.465820312 65.7763671875 189.26171875 109.724609375 c 132,-1,80
 150.057617188 153.673828125 150.057617188 153.673828125 138.787109375 179.163085938 c 132,-1,81
 127.515625 204.653320312 127.515625 204.653320312 122.615234375 239.373046875 c 132,-1,82
 117.71484375 274.09375 117.71484375 274.09375 111.833984375 287.27734375 c 5,83,84
 106.93359375 288.15625 106.93359375 288.15625 87.8212890625 289.475585938 c 132,-1,85
 68.7099609375 290.793945312 68.7099609375 290.793945312 58.908203125 292.55078125 c 4,86,87
 30.4853515625 296.067382812 30.4853515625 296.067382812 24.60546875 311.889648438 c 4,88,89
 18.724609375 317.163085938 18.724609375 317.163085938 18.724609375 324.194335938 c 4,90,91
 18.724609375 335.62109375 18.724609375 335.62109375 30.4853515625 351.442382812 c 4,92,93
 33.4267578125 355.837890625 33.4267578125 355.837890625 33.4267578125 355.837890625 c 5,94,95
 45.1875 357.595703125 45.1875 357.595703125 73.6103515625 361.990234375 c 132,-1,96
 102.033203125 366.385742188 102.033203125 366.385742188 116.734375 368.143554688 c 6,97,-1
 120.654296875 368.143554688 l 6,98,99
 120.654296875 369.022460938 120.654296875 369.022460938 120.654296875 369.901367188 c 4,100,101
 120.654296875 420.881835938 120.654296875 420.881835938 141.236328125 460.436523438 c 260,102,103
 161.819335938 499.989257812 161.819335938 499.989257812 188.282226562 541.301757812 c 4,104,105
 253.94921875 641.504882812 253.94921875 641.504882812 349.998046875 661.721679688 c 4,106,107
 372.541015625 666.116210938 372.541015625 666.116210938 397.043945312 666.116210938 c 4,108,109
 476.430664062 666.116210938 476.430664062 666.116210938 572.481445312 616.014648438 c 5,110,111
 575.421875 618.651367188 575.421875 618.651367188 580.8125 622.607421875 c 132,-1,112
 586.202148438 626.5625 586.202148438 626.5625 588.163085938 628.3203125 c 4,113,114
 592.083007812 642.383789062 592.083007812 642.383789062 602.864257812 657.766601562 c 132,-1,115
 613.645507812 673.147460938 613.645507812 673.147460938 615.60546875 676.6640625 c 4,7,8
EndSplineSet
Validated: 524329
EndChar

StartChar: Ccaron
Encoding: 268 268 64
Width: 806
Flags: W
LayerCount: 2
Fore
SplineSet
502 715.620117188 m 30,0,-1
 584 815.259765625 l 30,1,-1
 426 819.5 l 30,2,-1
 430 768.620117188 l 30,3,-1
 338 766.5 l 30,4,-1
 318 804.66015625 l 30,5,-1
 254 798.299804688 l 30,6,-1
 314 696.540039062 l 30,7,-1
 502 715.620117188 l 30,0,-1
624 674.280273438 m 4,8,9
 627 674.280273438 627 674.280273438 630 674.280273438 c 4,10,11
 731 674.280273438 731 674.280273438 731 625.307617188 c 5,12,13
 702 601.267578125 702 601.267578125 642 494.419921875 c 4,14,15
 622 459.693359375 622 459.693359375 590.5 430.754882812 c 132,-1,16
 559 401.817382812 559 401.817382812 525 400.927734375 c 5,17,18
 520 406.26953125 520 406.26953125 508.5 412.501953125 c 132,-1,19
 497 418.735351562 497 418.735351562 488 421.407226562 c 5,20,21
 487 431.200195312 487 431.200195312 487 440.104492188 c 4,22,23
 487 457.022460938 487 457.022460938 491 469.48828125 c 4,24,25
 498 487.295898438 498 487.295898438 509.5 504.212890625 c 132,-1,26
 521 521.130859375 521 521.130859375 523.5 531.815429688 c 132,-1,27
 526 542.5 526 542.5 527 542.9453125 c 132,-1,28
 528 543.390625 528 543.390625 527 544.282226562 c 132,-1,29
 526 545.171875 526 545.171875 525 545.171875 c 4,30,31
 517 558.52734375 517 558.52734375 489 571.884765625 c 4,32,33
 450 590.58203125 450 590.58203125 418 590.58203125 c 4,34,35
 395 590.58203125 395 590.58203125 376 579.897460938 c 4,36,37
 321 545.171875 321 545.171875 277 485.0703125 c 132,-1,38
 233 424.967773438 233 424.967773438 232 361.75 c 4,39,40
 234 359.969726562 234 359.969726562 236 357.297851562 c 4,41,42
 237 357.297851562 237 357.297851562 238 357.297851562 c 4,43,44
 286 357.297851562 286 357.297851562 310 320.791015625 c 5,45,46
 308 306.544921875 308 306.544921875 300 300.3125 c 4,47,48
 291 290.517578125 291 290.517578125 264.5 288.291992188 c 132,-1,49
 238 286.065429688 238 286.065429688 227 279.833007812 c 4,50,51
 224 277.162109375 224 277.162109375 222 270.038085938 c 5,52,53
 230 262.024414062 230 262.024414062 231.5 236.203125 c 132,-1,54
 233 210.381835938 233 210.381835938 236 202.368164062 c 4,55,56
 267 132.916992188 267 132.916992188 317 101.752929688 c 4,57,58
 349 81.2734375 349 81.2734375 387 81.2734375 c 4,59,60
 408 81.2734375 408 81.2734375 431 87.5068359375 c 4,61,62
 476 99.97265625 476 99.97265625 522 120.451171875 c 132,-1,63
 568 140.930664062 568 140.930664062 579 144.4921875 c 4,64,65
 583 145.3828125 583 145.3828125 593 145.3828125 c 4,66,67
 613 145.3828125 613 145.3828125 656 140.930664062 c 4,68,69
 659 137.369140625 659 137.369140625 668.5 127.57421875 c 132,-1,70
 678 117.780273438 678 117.780273438 679 100.862304688 c 5,71,72
 659 71.4794921875 659 71.4794921875 607.5 46.5478515625 c 132,-1,73
 556 21.6171875 556 21.6171875 495 9.150390625 c 4,74,75
 452 0.2470703125 452 0.2470703125 407 0.2470703125 c 4,76,77
 388 0.2470703125 388 0.2470703125 369 1.1376953125 c 4,78,79
 305 6.48046875 305 6.48046875 267 30.9658203125 c 132,-1,80
 229 55.4521484375 229 55.4521484375 189 99.97265625 c 132,-1,81
 149 144.4921875 149 144.4921875 137.5 170.313476562 c 132,-1,82
 126 196.134765625 126 196.134765625 121 231.305664062 c 132,-1,83
 116 266.477539062 116 266.477539062 110 279.833007812 c 5,84,85
 105 280.72265625 105 280.72265625 85.5 282.059570312 c 132,-1,86
 66 283.39453125 66 283.39453125 56 285.174804688 c 4,87,88
 27 288.737304688 27 288.737304688 21 304.764648438 c 4,89,90
 15 310.106445312 15 310.106445312 15 317.229492188 c 4,91,92
 15 328.8046875 15 328.8046875 27 344.83203125 c 4,93,94
 30 349.284179688 30 349.284179688 30 349.284179688 c 5,95,96
 42 351.064453125 42 351.064453125 71 355.517578125 c 132,-1,97
 100 359.969726562 100 359.969726562 115 361.75 c 6,98,-1
 119 361.75 l 6,99,100
 119 362.639648438 119 362.639648438 119 363.530273438 c 4,101,102
 119 415.172851562 119 415.172851562 140 455.2421875 c 260,103,104
 161 495.309570312 161 495.309570312 188 537.158203125 c 4,105,106
 255 638.6640625 255 638.6640625 353 659.142578125 c 4,107,108
 376 663.594726562 376 663.594726562 401 663.594726562 c 4,109,110
 482 663.594726562 482 663.594726562 580 612.842773438 c 5,111,112
 583 615.512695312 583 615.512695312 588.5 619.520507812 c 132,-1,113
 594 623.52734375 594 623.52734375 596 625.307617188 c 4,114,115
 600 639.5546875 600 639.5546875 611 655.13671875 c 132,-1,116
 622 670.717773438 622 670.717773438 624 674.280273438 c 4,8,9
EndSplineSet
Validated: 524297
EndChar

StartChar: ccaron
Encoding: 269 269 65
Width: 806
Flags: W
LayerCount: 2
Fore
SplineSet
502 715.620117188 m 30,0,-1
 584 815.259765625 l 30,1,-1
 426 819.5 l 30,2,-1
 430 768.620117188 l 30,3,-1
 338 766.5 l 30,4,-1
 318 804.66015625 l 30,5,-1
 254 798.299804688 l 30,6,-1
 314 696.540039062 l 30,7,-1
 502 715.620117188 l 30,0,-1
624 674.280273438 m 4,8,9
 627 674.280273438 627 674.280273438 630 674.280273438 c 4,10,11
 731 674.280273438 731 674.280273438 731 625.307617188 c 5,12,13
 702 601.267578125 702 601.267578125 642 494.419921875 c 4,14,15
 622 459.693359375 622 459.693359375 590.5 430.754882812 c 132,-1,16
 559 401.817382812 559 401.817382812 525 400.927734375 c 5,17,18
 520 406.26953125 520 406.26953125 508.5 412.501953125 c 132,-1,19
 497 418.735351562 497 418.735351562 488 421.407226562 c 5,20,21
 487 431.200195312 487 431.200195312 487 440.104492188 c 4,22,23
 487 457.022460938 487 457.022460938 491 469.48828125 c 4,24,25
 498 487.295898438 498 487.295898438 509.5 504.212890625 c 132,-1,26
 521 521.130859375 521 521.130859375 523.5 531.815429688 c 132,-1,27
 526 542.5 526 542.5 527 542.9453125 c 132,-1,28
 528 543.390625 528 543.390625 527 544.282226562 c 132,-1,29
 526 545.171875 526 545.171875 525 545.171875 c 4,30,31
 517 558.52734375 517 558.52734375 489 571.884765625 c 4,32,33
 450 590.58203125 450 590.58203125 418 590.58203125 c 4,34,35
 395 590.58203125 395 590.58203125 376 579.897460938 c 4,36,37
 321 545.171875 321 545.171875 277 485.0703125 c 132,-1,38
 233 424.967773438 233 424.967773438 232 361.75 c 4,39,40
 234 359.969726562 234 359.969726562 236 357.297851562 c 4,41,42
 237 357.297851562 237 357.297851562 238 357.297851562 c 4,43,44
 286 357.297851562 286 357.297851562 310 320.791015625 c 5,45,46
 308 306.544921875 308 306.544921875 300 300.3125 c 4,47,48
 291 290.517578125 291 290.517578125 264.5 288.291992188 c 132,-1,49
 238 286.065429688 238 286.065429688 227 279.833007812 c 4,50,51
 224 277.162109375 224 277.162109375 222 270.038085938 c 5,52,53
 230 262.024414062 230 262.024414062 231.5 236.203125 c 132,-1,54
 233 210.381835938 233 210.381835938 236 202.368164062 c 4,55,56
 267 132.916992188 267 132.916992188 317 101.752929688 c 4,57,58
 349 81.2734375 349 81.2734375 387 81.2734375 c 4,59,60
 408 81.2734375 408 81.2734375 431 87.5068359375 c 4,61,62
 476 99.97265625 476 99.97265625 522 120.451171875 c 132,-1,63
 568 140.930664062 568 140.930664062 579 144.4921875 c 4,64,65
 583 145.3828125 583 145.3828125 593 145.3828125 c 4,66,67
 613 145.3828125 613 145.3828125 656 140.930664062 c 4,68,69
 659 137.369140625 659 137.369140625 668.5 127.57421875 c 132,-1,70
 678 117.780273438 678 117.780273438 679 100.862304688 c 5,71,72
 659 71.4794921875 659 71.4794921875 607.5 46.5478515625 c 132,-1,73
 556 21.6171875 556 21.6171875 495 9.150390625 c 4,74,75
 452 0.2470703125 452 0.2470703125 407 0.2470703125 c 4,76,77
 388 0.2470703125 388 0.2470703125 369 1.1376953125 c 4,78,79
 305 6.48046875 305 6.48046875 267 30.9658203125 c 132,-1,80
 229 55.4521484375 229 55.4521484375 189 99.97265625 c 132,-1,81
 149 144.4921875 149 144.4921875 137.5 170.313476562 c 132,-1,82
 126 196.134765625 126 196.134765625 121 231.305664062 c 132,-1,83
 116 266.477539062 116 266.477539062 110 279.833007812 c 5,84,85
 105 280.72265625 105 280.72265625 85.5 282.059570312 c 132,-1,86
 66 283.39453125 66 283.39453125 56 285.174804688 c 4,87,88
 27 288.737304688 27 288.737304688 21 304.764648438 c 4,89,90
 15 310.106445312 15 310.106445312 15 317.229492188 c 4,91,92
 15 328.8046875 15 328.8046875 27 344.83203125 c 4,93,94
 30 349.284179688 30 349.284179688 30 349.284179688 c 5,95,96
 42 351.064453125 42 351.064453125 71 355.517578125 c 132,-1,97
 100 359.969726562 100 359.969726562 115 361.75 c 6,98,-1
 119 361.75 l 6,99,100
 119 362.639648438 119 362.639648438 119 363.530273438 c 4,101,102
 119 415.172851562 119 415.172851562 140 455.2421875 c 260,103,104
 161 495.309570312 161 495.309570312 188 537.158203125 c 4,105,106
 255 638.6640625 255 638.6640625 353 659.142578125 c 4,107,108
 376 663.594726562 376 663.594726562 401 663.594726562 c 4,109,110
 482 663.594726562 482 663.594726562 580 612.842773438 c 5,111,112
 583 615.512695312 583 615.512695312 588.5 619.520507812 c 132,-1,113
 594 623.52734375 594 623.52734375 596 625.307617188 c 4,114,115
 600 639.5546875 600 639.5546875 611 655.13671875 c 132,-1,116
 622 670.717773438 622 670.717773438 624 674.280273438 c 4,8,9
EndSplineSet
Validated: 524297
EndChar
